<?xml version="1.0" encoding="UTF-8" standalone="no"?>
<!-- Created with Inkscape (http://www.inkscape.org/) -->

<svg
   xmlns:dc="http://purl.org/dc/elements/1.1/"
   xmlns:cc="http://creativecommons.org/ns#"
   xmlns:rdf="http://www.w3.org/1999/02/22-rdf-syntax-ns#"
   xmlns:svg="http://www.w3.org/2000/svg"
   xmlns="http://www.w3.org/2000/svg"
   xmlns:sodipodi="http://sodipodi.sourceforge.net/DTD/sodipodi-0.dtd"
   xmlns:inkscape="http://www.inkscape.org/namespaces/inkscape"
   width="597"
   height="162"
   viewBox="0 0 157.95624 42.8625"
   version="1.1"
   id="svg1317"
   inkscape:version="0.92.2 (5c3e80d, 2017-08-06)"
   sodipodi:docname="logo-rect.svg">
  <defs
     id="defs1311" />
  <sodipodi:namedview
     id="base"
     pagecolor="#ffffff"
     bordercolor="#666666"
     borderopacity="1.0"
     inkscape:pageopacity="0.0"
     inkscape:pageshadow="2"
     inkscape:zoom="0.35355339"
     inkscape:cx="-169.49335"
     inkscape:cy="-39.319898"
     inkscape:document-units="mm"
     inkscape:current-layer="layer1"
     showgrid="false"
     inkscape:pagecheckerboard="true"
     units="px"
     inkscape:window-width="1366"
     inkscape:window-height="745"
     inkscape:window-x="-8"
     inkscape:window-y="-8"
     inkscape:window-maximized="1" />
  <metadata
     id="metadata1314">
    <rdf:RDF>
      <cc:Work
         rdf:about="">
        <dc:format>image/svg+xml</dc:format>
        <dc:type
           rdf:resource="http://purl.org/dc/dcmitype/StillImage" />
        <dc:title></dc:title>
      </cc:Work>
    </rdf:RDF>
  </metadata>
  <g
     inkscape:label="Layer 1"
     inkscape:groupmode="layer"
     id="layer1"
     transform="translate(0,-254.13753)">
    <g
       id="g2176"
       transform="translate(778.68974,178.0053)">
      <g
         id="text1260"
         style="font-style:normal;font-variant:normal;font-weight:normal;font-stretch:normal;font-size:16.98555756px;line-height:1.25;font-family:Centaur;-inkscape-font-specification:'Centaur, Normal';font-variant-ligatures:normal;font-variant-caps:normal;font-variant-numeric:normal;font-feature-settings:normal;text-align:center;letter-spacing:3.4395833px;word-spacing:0px;writing-mode:lr-tb;text-anchor:middle;opacity:1;fill:#ffffff;fill-opacity:1;stroke:#ffffff;stroke-width:2.64583325;stroke-miterlimit:4;stroke-dasharray:none"
         transform="scale(0.76946807,1.2995991)"
         aria-label="ARSHAD">
        <path
           id="path2143"
           style="font-style:normal;font-variant:normal;font-weight:normal;font-stretch:normal;font-size:16.98555756px;font-family:Centaur;-inkscape-font-specification:'Centaur, Normal';font-variant-ligatures:normal;font-variant-caps:normal;font-variant-numeric:normal;font-feature-settings:normal;text-align:center;letter-spacing:3.4395833px;writing-mode:lr-tb;text-anchor:middle;opacity:1;fill:#ffffff;stroke:#ffffff;stroke-width:2.64583325;stroke-miterlimit:4;stroke-dasharray:none;stroke-opacity:1"
           d="m -996.34323,77.475726 v -0.273693 q 0.38151,-0.06635 0.60544,-0.174169 0.23223,-0.107818 0.23223,-0.364924 0,-0.240518 -0.14929,-0.696673 -0.14929,-0.456155 -0.22393,-0.630324 l -0.61374,-1.667039 q -0.48103,-0.06635 -1.56751,-0.06635 h -0.65521 q -0.98695,-0.03317 -1.73336,0.09952 l -0.6138,1.53434 q -0.4064,0.962072 -0.4064,1.20259 0,0.290281 0.2572,0.48933 0.2654,0.190756 1.0698,0.306868 V 77.5089 q -0.9703,-0.116112 -1.6504,-0.116112 -0.6967,0 -1.5095,0.06635 V 77.21862 q 0.4977,-0.124406 0.7631,-0.389805 0.199,-0.174169 0.5225,-0.82108 0.3317,-0.655204 0.6635,-1.418227 0.34,-0.771317 0.4893,-1.202591 l 1.32699,-3.176498 q 0.24881,-0.572268 0.50591,-1.194297 0.2654,-0.630324 0.49763,-1.260647 0.23222,-0.630324 0.34004,-1.011835 0,-0.107819 0.0498,-0.157581 l 0.27369,-0.01659 q 0.25711,0.920604 0.56398,1.766564 l 1.74168,4.669369 q 0.67179,1.749977 1.01184,2.587644 0.34833,0.829373 0.60544,1.186003 0.21564,0.306868 0.88743,0.373218 v 0.290281 q -0.68009,-0.06635 -1.31041,-0.06635 -0.49763,0 -0.9289,0.02488 -0.42298,0.02488 -0.67179,0.04147 -0.24881,0.02488 -0.37322,0.03317 z m -2.62911,-7.472651 -0.93719,2.413476 q -0.19077,0.514211 -0.25707,0.646911 0.63029,0.09952 1.45136,0.09952 l 0.76303,-0.01659 q 0.68838,0 1.23576,-0.03317 -0.29028,-0.84596 -0.37321,-1.003541 l -0.59715,-1.526046 q -0.0995,-0.248812 -0.38151,-0.904017 -0.2737,-0.655205 -0.3981,-0.895723 -0.15758,0.348337 -0.2737,0.638617 -0.10782,0.281987 -0.23222,0.580561 z"
           inkscape:connector-curvature="0" />
        <path
           id="path2145"
           style="font-style:normal;font-variant:normal;font-weight:normal;font-stretch:normal;font-size:16.98555756px;font-family:Centaur;-inkscape-font-specification:'Centaur, Normal';font-variant-ligatures:normal;font-variant-caps:normal;font-variant-numeric:normal;font-feature-settings:normal;text-align:center;letter-spacing:3.4395833px;writing-mode:lr-tb;text-anchor:middle;opacity:1;fill:#ffffff;stroke:#ffffff;stroke-width:2.64583325;stroke-miterlimit:4;stroke-dasharray:none;stroke-opacity:1"
           d="m -984.08741,73.743547 -0.95378,-1.360171 q -1.09477,0 -1.81633,-0.107819 l -0.0166,1.990495 q 0,0.630324 0.0332,1.409934 0.0415,0.779611 0.17417,1.103066 0.0663,0.19905 0.22393,0.281987 0.16587,0.08294 0.72985,0.232225 0.18246,0.04147 0.18246,0.132699 0,0.182462 -0.11611,0.182462 -0.1327,0 -0.69668,-0.08294 -0.71326,-0.06635 -0.87084,-0.06635 -0.80449,0 -1.65874,0.116112 -0.0581,0 -0.141,0.01659 -0.16587,0 -0.16587,-0.149287 0,-0.08294 0.0581,-0.124406 0.0664,-0.04147 0.28198,-0.09952 0.37322,-0.09952 0.53909,-0.298574 0.16588,-0.207344 0.24052,-0.796198 0.0747,-0.597149 0.0829,-1.907558 v -3.665828 q 0.0166,-1.343585 -0.0166,-1.973908 -0.0249,-0.630323 -0.1327,-0.920604 -0.10782,-0.298574 -0.33175,-0.398099 -0.22393,-0.09952 -0.70496,-0.157581 l 0.0332,-0.273693 q 0.43957,0.01659 1.11965,0.01659 0.19905,0 1.44311,-0.09952 1.25236,-0.107819 1.58411,-0.107819 0.87084,0 1.56751,0.240519 0.69667,0.240518 1.16112,0.638617 0.47275,0.398099 0.71326,0.91231 0.24052,0.505917 0.24052,1.04501 0,0.55568 -0.24881,1.078185 -0.24881,0.522505 -0.75473,0.953778 -0.50592,0.422981 -1.30211,0.721555 l 0.37321,0.563974 q 0.77961,1.177709 1.29382,1.907557 0.51422,0.721555 1.10307,1.393347 0.59715,0.671792 1.21089,1.094772 0.62202,0.414687 1.21088,0.464449 0.15758,0.02488 0.15758,0.165874 0,0.07464 -0.0746,0.107819 -0.0747,0.04147 -0.35663,0.04147 -0.8045,0 -1.55093,-0.356631 -0.74644,-0.348336 -1.41823,-0.945485 -0.67179,-0.597148 -1.1943,-1.252353 -0.5225,-0.655205 -1.23576,-1.66704 z m -2.72034,-1.940732 q 0.55568,0.132699 1.34358,0.132699 0.3981,0 0.83767,-0.05806 0.44786,-0.05806 0.91231,-0.257105 0.47274,-0.19905 0.81278,-0.671792 0.34005,-0.472743 0.34005,-1.268941 0,-0.563974 -0.29858,-1.177709 -0.29028,-0.62203 -0.90402,-1.061598 -0.61373,-0.447861 -1.49287,-0.447861 -0.36492,0 -0.82937,0.09952 -0.45616,0.09123 -0.5308,0.298574 -0.19075,0.406393 -0.19075,4.412264 z"
           inkscape:connector-curvature="0" />
        <path
           id="path2147"
           style="font-style:normal;font-variant:normal;font-weight:normal;font-stretch:normal;font-size:16.98555756px;font-family:Centaur;-inkscape-font-specification:'Centaur, Normal';font-variant-ligatures:normal;font-variant-caps:normal;font-variant-numeric:normal;font-feature-settings:normal;text-align:center;letter-spacing:3.4395833px;writing-mode:lr-tb;text-anchor:middle;opacity:1;fill:#ffffff;stroke:#ffffff;stroke-width:2.64583325;stroke-miterlimit:4;stroke-dasharray:none;stroke-opacity:1"
           d="m -973.61475,77.475726 -0.34004,-0.01659 q 0.0166,-1.152828 -0.45615,-2.770105 0.19905,-0.05806 0.2654,-0.06635 0.19904,0.622029 0.30686,0.904016 0.11612,0.273693 0.29028,0.48933 0.18247,0.207343 0.49763,0.373218 0.53909,0.281987 1.24406,0.505918 0.70496,0.22393 1.51775,0.22393 0.70497,0 1.40993,-0.348336 0.71326,-0.348337 0.71326,-1.53434 0,-0.597149 -0.20734,-1.028423 -0.20734,-0.431274 -0.54739,-0.696673 -0.33174,-0.265399 -0.77961,-0.472743 -0.43956,-0.207343 -1.14453,-0.472742 -0.97866,-0.356631 -1.61728,-0.729848 -0.63032,-0.373218 -1.00354,-0.920604 -0.37322,-0.547386 -0.37322,-1.335291 0,-1.252353 0.92061,-2.081726 0.9206,-0.837666 2.62911,-0.837666 0.87084,0 1.7168,0.182462 0.34004,0.06635 0.42298,0.06635 0.24881,0 0.49763,-0.165874 l 0.0664,-0.03317 q 0.0663,0 0.16587,0.03317 -0.0249,0.190756 -0.0498,0.381511 -0.0166,0.182462 -0.0415,0.406393 -0.0166,0.223931 -0.0249,0.348337 -0.008,0.124406 -0.0166,0.165874 0.10782,1.003542 0.0995,1.094773 l -0.24881,0.01659 q -0.0663,-0.84596 -0.55568,-1.326997 -0.48933,-0.48933 -1.10306,-0.663498 -0.61374,-0.174168 -1.17771,-0.174168 -1.37676,0 -1.82462,0.721554 -0.43957,0.713261 -0.43957,1.351878 0,0.671792 0.33175,1.119654 0.33175,0.439567 0.82108,0.696673 0.49762,0.248812 1.39334,0.597148 1.01184,0.398099 1.62558,0.738142 0.61373,0.331749 1.09477,0.970367 0.48103,0.630323 0.48103,1.567514 0,0.796198 -0.41468,1.434816 -0.41469,0.638617 -1.24406,1.011835 -0.82938,0.373217 -2.03197,0.373217 -1.16941,0 -2.43006,-0.340043 -0.22393,-0.04976 -0.27369,-0.04976 -0.21564,0 -0.16588,0.290281 z"
           inkscape:connector-curvature="0" />
        <path
           id="path2149"
           style="font-style:normal;font-variant:normal;font-weight:normal;font-stretch:normal;font-size:16.98555756px;font-family:Centaur;-inkscape-font-specification:'Centaur, Normal';font-variant-ligatures:normal;font-variant-caps:normal;font-variant-numeric:normal;font-feature-settings:normal;text-align:center;letter-spacing:3.4395833px;writing-mode:lr-tb;text-anchor:middle;opacity:1;fill:#ffffff;stroke:#ffffff;stroke-width:2.64583325;stroke-miterlimit:4;stroke-dasharray:none;stroke-opacity:1"
           d="m -962.89327,77.542075 -0.11611,-0.306868 q 0.87913,-0.09952 1.06989,-0.35663 0.14099,-0.199049 0.22393,-1.832914 0.0829,-1.642158 0.0829,-2.836456 l 0.0166,-2.73693 q 0,-1.119654 -0.0829,-1.608984 -0.0747,-0.48933 -0.32346,-0.646911 -0.24881,-0.165874 -0.7879,-0.182462 l 0.0166,-0.273693 q 0.48104,-0.08294 0.83767,-0.08294 0.11611,0 0.86255,0.03317 0.56397,0.04976 0.88743,0.04976 l 1.20259,-0.01659 q 0,0.149287 0.0166,0.29028 l -0.43957,0.06635 q -0.41469,0.05806 -0.56397,0.140994 -0.14929,0.08294 -0.22394,0.340043 -0.0664,0.248811 -0.14928,1.028422 -0.0829,0.746436 -0.0829,1.766564 0,0.845961 0.0166,1.326997 h 3.92293 q 2.2476,0 2.7784,-0.0083 0.5308,-0.0083 0.77132,-0.05806 l 0.0166,-1.749977 q 0,-1.426521 -0.0332,-1.783152 -0.0249,-0.364924 -0.11611,-0.563973 -0.0912,-0.265399 -0.29858,-0.35663 -0.20734,-0.09952 -0.87913,-0.240519 l 0.0415,-0.306868 q 0.38151,0.04976 0.76302,0.09123 0.48933,0.04976 1.08648,0.04976 0.14929,0 0.86255,-0.03317 0.74643,-0.03317 0.83766,-0.03317 l 0.0332,0.232224 q -0.11611,0.03317 -0.15758,0.04976 -0.34005,0.08294 -0.51421,0.215637 -0.17417,0.132699 -0.25711,0.42298 -0.0746,0.281987 -0.0995,0.646911 -0.0249,0.364924 -0.0581,1.774858 l -0.0746,3.823409 q -0.0415,1.575809 0.0332,2.264188 0.0829,0.68838 0.31516,0.895723 0.24052,0.207343 0.82938,0.273693 l -0.0166,0.248812 q -0.32346,-0.07464 -0.80449,-0.09952 -0.2654,-0.01659 -0.69668,-0.01659 -0.14928,0 -0.99524,0.03317 -0.6718,0.04976 -1.03672,0.04976 l -0.0332,-0.290281 q 0.56398,-0.06635 0.7962,-0.22393 0.23223,-0.157581 0.30687,-0.505918 0.0746,-0.348336 0.0995,-1.20259 l 0.0498,-1.882677 -0.0166,-1.086479 -0.9206,-0.04147 -4.73572,-0.03317 -1.79974,0.01659 q -0.0498,0.970367 -0.0498,2.894512 0,1.202591 0.0995,1.492871 0.0415,0.157581 0.14099,0.265399 0.10782,0.107819 0.34834,0.19905 0.24052,0.08294 0.73814,0.182462 l -0.0166,0.265399 q -0.17416,-0.0083 -0.61373,-0.04147 -0.43128,-0.03317 -0.83767,-0.05806 -0.40639,-0.01659 -0.72985,-0.01659 -0.5225,0 -1.54263,0.08294 z"
           inkscape:connector-curvature="0" />
        <path
           id="path2151"
           style="font-style:normal;font-variant:normal;font-weight:normal;font-stretch:normal;font-size:16.98555756px;font-family:Centaur;-inkscape-font-specification:'Centaur, Normal';font-variant-ligatures:normal;font-variant-caps:normal;font-variant-numeric:normal;font-feature-settings:normal;text-align:center;letter-spacing:3.4395833px;writing-mode:lr-tb;text-anchor:middle;opacity:1;fill:#ffffff;stroke:#ffffff;stroke-width:2.64583325;stroke-miterlimit:4;stroke-dasharray:none;stroke-opacity:1"
           d="m -939.55703,77.475726 v -0.273693 q 0.38151,-0.06635 0.60544,-0.174169 0.23223,-0.107818 0.23223,-0.364924 0,-0.240518 -0.14929,-0.696673 -0.14929,-0.456155 -0.22393,-0.630324 l -0.61373,-1.667039 q -0.48104,-0.06635 -1.56752,-0.06635 h -0.6552 q -0.98696,-0.03317 -1.73339,0.09952 l -0.61374,1.53434 q -0.40639,0.962072 -0.40639,1.20259 0,0.290281 0.2571,0.48933 0.2654,0.190756 1.06989,0.306868 V 77.5089 q -0.97036,-0.116112 -1.65045,-0.116112 -0.69667,0 -1.50946,0.06635 V 77.21862 q 0.49763,-0.124406 0.76303,-0.389805 0.19905,-0.174169 0.5225,-0.82108 0.33175,-0.655204 0.6635,-1.418227 0.34004,-0.771317 0.48933,-1.202591 l 1.327,-3.176498 q 0.24881,-0.572268 0.50591,-1.194297 0.2654,-0.630324 0.49763,-1.260647 0.23222,-0.630324 0.34004,-1.011835 0,-0.107819 0.0498,-0.157581 l 0.2737,-0.01659 q 0.2571,0.920604 0.56397,1.766564 l 1.74168,4.669369 q 0.67179,1.749977 1.01184,2.587644 0.34833,0.829373 0.60544,1.186003 0.21564,0.306868 0.88743,0.373218 v 0.290281 q -0.68009,-0.06635 -1.31041,-0.06635 -0.49762,0 -0.9289,0.02488 -0.42298,0.02488 -0.67179,0.04147 -0.24881,0.02488 -0.37322,0.03317 z m -2.62911,-7.472651 -0.93719,2.413476 q -0.19076,0.514211 -0.25711,0.646911 0.63033,0.09952 1.45141,0.09952 l 0.76302,-0.01659 q 0.68838,0 1.23576,-0.03317 -0.29028,-0.84596 -0.37321,-1.003541 l -0.59715,-1.526046 q -0.0995,-0.248812 -0.38151,-0.904017 -0.2737,-0.655205 -0.3981,-0.895723 -0.15758,0.348337 -0.2737,0.638617 -0.10781,0.281987 -0.23222,0.580561 z"
           inkscape:connector-curvature="0" />
        <path
           id="path2153"
           style="font-style:normal;font-variant:normal;font-weight:normal;font-stretch:normal;font-size:16.98555756px;font-family:Centaur;-inkscape-font-specification:'Centaur, Normal';font-variant-ligatures:normal;font-variant-caps:normal;font-variant-numeric:normal;font-feature-settings:normal;text-align:center;letter-spacing:3.4395833px;writing-mode:lr-tb;text-anchor:middle;opacity:1;fill:#ffffff;stroke:#ffffff;stroke-width:2.64583325;stroke-miterlimit:4;stroke-dasharray:none;stroke-opacity:1"
           d="m -932.24427,67.16662 -0.0166,-0.306868 q 2.22272,0 3.74047,-0.182462 0.56398,-0.07464 1.16942,-0.07464 1.23576,0 2.36371,0.373218 1.12795,0.364924 2.00708,1.061598 0.87914,0.696673 1.37676,1.700214 0.50592,0.995248 0.50592,2.239307 0,1.509459 -0.77961,2.753518 -0.77132,1.24406 -2.21443,1.965614 -1.43481,0.713261 -3.27602,0.713261 -0.10782,0 -0.6552,-0.01659 -0.54739,-0.01659 -0.63862,-0.01659 -0.32346,0 -0.58056,0.0083 -0.24881,0 -0.73814,0.0083 -0.48104,0.0083 -0.9289,0.02488 -0.43957,0.0083 -0.60544,0.0083 l -0.81279,-0.01659 v -0.306868 q 0.88743,0 1.06989,-0.389806 0.20734,-0.456155 0.20734,-4.130277 0,-2.438356 -0.058,-3.632653 -0.0581,-1.202591 -0.23223,-1.492871 -0.21563,-0.315162 -0.90401,-0.290281 z m 9.70366,4.826951 q 0,-1.575809 -0.74643,-2.703756 -0.74644,-1.136241 -1.90756,-1.716802 -1.16112,-0.580561 -2.3803,-0.580561 -1.1943,0 -2.15637,0.431274 -0.0829,0.464449 -0.12441,2.770105 -0.0415,2.305657 -0.0415,3.972697 0,0.06635 0.008,0.622029 0.0166,0.55568 0.0249,1.127947 0.0166,0.563974 0.0166,0.646911 0.83766,0.2654 1.28552,0.373218 0.44786,0.09952 1.12795,0.09952 1.7168,0 2.81157,-0.738142 1.10307,-0.746436 1.5924,-1.899264 0.48933,-1.152828 0.48933,-2.405181 z"
           inkscape:connector-curvature="0" />
      </g>
      <path
         sodipodi:nodetypes="cccccc"
         inkscape:connector-curvature="0"
         id="path1262"
         d="m -702.47913,107.74809 4.95321,-19.70247 9.84406,-7.95676 h -87.41315 v 27.65923 z"
         style="opacity:1;fill:#ffffff;fill-opacity:1;stroke:#ffffff;stroke-width:4.4979167;stroke-linecap:square;stroke-linejoin:round;stroke-miterlimit:4;stroke-dasharray:none;stroke-dashoffset:0;stroke-opacity:1" />
      <path
         style="opacity:1;fill:#ffffff;fill-opacity:1;stroke:#1a1a1a;stroke-width:1.70497501;stroke-linecap:square;stroke-linejoin:round;stroke-miterlimit:4;stroke-dasharray:none;stroke-dashoffset:0;stroke-opacity:1"
         d="m -702.47913,107.74809 4.95321,-19.70247 9.84406,-7.95676 h -87.41315 v 27.65923 z"
         id="path1264"
         inkscape:connector-curvature="0"
         sodipodi:nodetypes="cccccc" />
      <path
         transform="scale(0.26458333)"
         id="path2090"
         d="m -2747.8418,319.40039 c -0.4281,0 -0.8233,0.19464 -1.1855,0.58399 -1.3173,1.50175 -2.9139,2.94737 -4.7911,4.33789 -1.6795,1.16803 -3.3595,2.33587 -5.039,3.5039 -0.4281,2.7254 -0.6426,5.42396 -0.6426,8.09375 0,2.22482 0.1489,4.56051 0.4453,7.00781 -2.6016,0.77869 -6.0272,1.58562 -10.2754,2.41993 -0.2634,-2.50293 -0.3945,-5.14476 -0.3945,-7.92578 0,-1.39052 0.066,-3.42202 0.1973,-6.0918 0.1645,-2.72541 0.2461,-4.58867 0.2461,-5.58985 0,-0.33372 -0.032,-0.66627 -0.098,-1 -0.066,-0.33372 -0.1493,-0.66823 -0.2481,-1.00195 -0.099,-0.33371 -0.345,-0.52835 -0.7402,-0.58398 -0.494,-1.72424 -1.1036,-2.58594 -1.8281,-2.58594 0.099,0 -2.9793,2.64183 -9.2363,7.92578 -1.482,16.74178 -2.2247,29.89616 -2.2246,39.46289 0,4.61651 0.099,7.89703 0.2968,9.84375 0.4611,4.61651 1.4659,6.92578 3.0137,6.92578 0.066,0 1.9584,-0.86169 5.6797,-2.58594 0.9221,-0.44502 1.4821,-0.75116 1.6797,-0.91796 0.5926,-0.50059 0.9222,-1.25274 0.9883,-2.25391 0.4282,-7.78686 0.7083,-13.31995 0.8398,-16.60156 5.5326,-1.39051 9.6989,-2.30894 12.498,-2.75391 0.066,1.05679 0.1,2.16986 0.1,3.33789 0,1.613 -0.084,4.03183 -0.2481,7.25781 -0.1645,3.226 -0.2461,5.64482 -0.2461,7.25782 0,3.83781 0.2641,6.73102 0.791,8.67773 0.3952,0.50059 0.8222,0.75 1.2832,0.75 0.5928,0 1.3991,-0.83334 2.42,-2.50195 0.5598,-0.88993 1.5487,-1.94626 2.9648,-3.16992 1.4161,-1.16803 2.4209,-2.25274 3.0137,-3.25391 h 0.789 c 0.099,-0.38934 0.3629,-1.08477 0.791,-2.08594 0.2635,-0.61182 0.3946,-1.58503 0.3946,-2.91992 0,-0.66744 -0.048,-1.66901 -0.1465,-3.00391 -0.099,-1.39051 -0.1484,-2.42044 -0.1484,-3.08789 0,-1.44613 0.097,-3.58718 0.2949,-6.42382 0.1975,-2.83665 0.2969,-4.9777 0.2969,-6.42383 0,-0.66745 -0.034,-1.69543 -0.1,-3.08594 -0.066,-1.44614 -0.098,-2.50443 -0.098,-3.17188 0,-1.11241 0.05,-2.14038 0.1484,-3.08593 0.1316,-7.00819 0.2131,-12.26544 0.2461,-15.76953 0.033,-0.66745 0.1146,-1.9468 0.2461,-3.83789 0.099,-1.66862 0.1484,-2.97437 0.1484,-3.91993 v 0 c 0,-0.94554 -0.2145,-1.52946 -0.6426,-1.75195 z m -149.4941,0.41602 -1.334,1.08593 c -1.0539,0.77869 -2.1064,1.55725 -3.1602,2.33594 -1.2184,1.00117 -2.1081,2.19738 -2.6679,3.58789 -3.0627,8.06498 -5.2849,14.18198 -6.668,18.35352 -1.8113,4.95022 -2.8816,8.06447 -3.211,9.34375 -0.8891,3.50409 -1.6973,7.67664 -2.4218,12.51562 -0.5927,4.28278 -1.1845,8.56488 -1.7774,12.84766 -0.099,0.44485 -0.1484,0.61307 -0.1484,0.50195 0,0.66744 0.8241,1.64065 2.4707,2.91992 1.5148,1.16805 2.5355,1.75196 3.0625,1.75196 0.1315,0 0.2467,-0.223 0.3457,-0.66797 l 1.0859,0.66797 c 0.4938,-1.44615 1.1851,-4.28261 2.0743,-8.50977 0.7904,-3.61533 1.5984,-6.34225 2.4218,-8.17773 0.3623,-0.11124 1.7444,-0.47216 4.1485,-1.08399 1.6466,-0.38934 3.0128,-0.9449 4.0996,-1.66797 1.8442,-1.22365 2.9145,-1.83593 3.2109,-1.83593 0.8563,0 2.0259,2.36405 3.5078,7.09179 0.8892,3.11475 1.7788,6.229 2.668,9.34375 0.2305,0.66744 0.6257,1.27972 1.1855,1.83594 0.5599,0.61183 1.0702,0.91797 1.5313,0.91797 0.2635,0 1.2842,-1.86326 3.0625,-5.58984 1.7784,-3.72658 2.7653,-6.03586 2.9629,-6.92579 0,-0.16686 0.018,-0.41627 0.051,-0.75 0.066,-0.3337 0.098,-0.58507 0.098,-0.75195 0,-0.16685 -0.016,-0.36149 -0.049,-0.58398 -3.1615,-11.23535 -5.334,-18.7432 -6.5195,-22.52539 -2.5688,-8.34308 -5.1384,-15.49001 -7.7071,-21.44141 l -1.0859,-2.66992 c -0.5598,-1.27927 -0.9729,-1.91992 -1.2363,-1.91992 z m 46.416,0 c -3.6225,0 -7.5406,1.50235 -11.7559,4.50586 -4.9068,3.50409 -7.8379,7.70305 -8.793,12.59765 l -0.1,0.58399 c 0,0.38932 0.099,0.6671 0.2969,0.83398 -0.6586,1.66862 -1.1531,6.28522 -1.4824,13.84961 -0.1976,5.06147 -0.3943,10.15049 -0.5918,15.26758 -0.1315,1.66862 -0.1973,3.42038 -0.1973,5.25586 0,2.83664 0.048,4.69992 0.1465,5.58984 0.1647,1.83549 0.5936,3.53248 1.2852,5.08984 0.1647,-0.38934 0.3454,-0.58398 0.5429,-0.58398 0.099,0 0.2478,0.0566 0.4454,0.16797 0.1977,0.11137 0.3626,0.16601 0.4941,0.16601 0.8892,0 2.454,-1.39084 4.6934,-4.17187 1.6795,-2.05797 3.1113,-4.05914 4.2968,-6.00586 0.5928,-0.94555 0.8887,-2.30803 0.8887,-4.08789 0,-0.11124 -0.05,-1.25268 -0.1484,-3.42188 -0.099,-1.39051 -0.065,-2.44685 0.1,-3.16992 l 0.2461,-1.58593 c 0.099,0 0.1484,0.0567 0.1484,0.16796 3.2273,4.67213 5.6163,8.2588 7.1641,10.76172 2.5687,3.5041 4.0005,5.56201 4.2968,6.17383 0.2964,0.55621 1.0868,0.83594 2.3711,0.83594 0.988,0 2.7991,-1.05829 5.4336,-3.17188 2.4699,-1.94671 4.1817,-3.58698 5.1367,-4.92187 0.066,-0.0556 0.3797,-0.36176 0.9395,-0.91797 0.395,-0.44496 0.6254,-0.80587 0.6914,-1.08398 0.099,-0.33373 0.1484,-0.86288 0.1484,-1.58594 0,-1.16803 -1.6641,-3.72673 -4.9902,-7.67578 -3.9847,-4.72775 -6.1235,-7.3148 -6.4199,-7.75977 0.955,-0.66744 2.1723,-1.9732 3.6543,-3.91992 1.6467,-2.1692 2.5522,-3.86619 2.7168,-5.08984 0.3293,-2.00235 0.6093,-3.50469 0.8398,-4.50586 0,-0.38935 -0.016,-0.91654 -0.049,-1.58399 -0.033,-0.72306 -0.051,-1.19548 -0.051,-1.41797 0,-0.2781 -0.048,-0.83561 -0.1465,-1.66992 -0.066,-0.5562 -0.066,-0.97384 0,-1.25195 -0.5269,-1.8911 -1.3351,-3.75437 -2.4218,-5.58985 -1.1856,-2.11358 -2.2877,-3.36456 -3.3086,-3.7539 l -0.5938,-1.08399 c -1.8442,-1.22365 -3.8201,-1.83593 -5.9277,-1.83593 z m 135.1328,0 -1.334,1.08593 c -1.0538,0.77869 -2.1063,1.55725 -3.1601,2.33594 -1.2185,1.00117 -2.1081,2.19738 -2.668,3.58789 -3.0627,8.06498 -5.2849,14.18198 -6.668,18.35352 -1.8112,4.95022 -2.8816,8.06447 -3.2109,9.34375 -0.8892,3.50409 -1.6974,7.67664 -2.4219,12.51562 l -1.7773,12.84766 c -0.099,0.44485 -0.1485,0.61307 -0.1485,0.50195 0,0.66744 0.8222,1.64065 2.4688,2.91992 1.5149,1.16805 2.5375,1.75196 3.0644,1.75196 0.1315,0 0.2467,-0.223 0.3457,-0.66797 l 1.086,0.66797 c 0.4939,-1.44615 1.185,-4.28261 2.0742,-8.50977 0.7904,-3.61533 1.5986,-6.34225 2.4219,-8.17773 0.3622,-0.11124 1.7444,-0.47216 4.1484,-1.08399 1.6466,-0.38934 3.0129,-0.9449 4.0996,-1.66797 1.8442,-1.22365 2.9146,-1.83593 3.2109,-1.83593 0.8563,0 2.0259,2.36405 3.5079,7.09179 0.8891,3.11475 1.7788,6.229 2.6679,9.34375 0.2305,0.66744 0.6257,1.27972 1.1856,1.83594 0.5598,0.61183 1.0702,0.91797 1.5312,0.91797 0.2635,0 1.2842,-1.86326 3.0625,-5.58984 1.7784,-3.72658 2.7654,-6.03586 2.9629,-6.92579 0,-0.16686 0.018,-0.41627 0.051,-0.75 0.066,-0.3337 0.098,-0.58507 0.098,-0.75195 0,-0.16685 -0.016,-0.36149 -0.049,-0.58398 -3.1614,-11.23535 -5.3359,-18.7432 -6.5215,-22.52539 -2.5687,-8.34308 -5.1364,-15.49001 -7.705,-21.44141 l -1.086,-2.66992 c -0.5598,-1.27927 -0.9729,-1.91992 -1.2363,-1.91992 z m 46.5137,1.00195 c -3.4579,0 -7.5567,1.97477 -12.2989,5.92383 -5.4666,4.56088 -8.2011,9.48362 -8.2011,14.76758 0,0.66744 0.133,1.50078 0.3964,2.50195 0.2964,0.94555 0.6082,1.5862 0.9375,1.91992 1.0209,0 1.9106,-0.47437 2.668,-1.41992 l 0.3945,0.33398 c 0.066,-0.44496 0.2486,-0.66601 0.545,-0.66601 0.1976,0 0.4279,0.10957 0.6914,0.33203 0.2305,0.5562 0.3457,1.36313 0.3457,2.41992 0,0.77869 0.032,1.94653 0.098,3.50391 0.099,1.50175 0.1485,2.64318 0.1485,3.42187 v 7.3418 l -0.3946,1 c -0.3952,0 -0.9711,-0.19464 -1.7285,-0.58399 -0.7245,-0.44496 -1.2686,-0.66601 -1.6308,-0.66601 -0.7575,0 -1.9589,1.36248 -3.6055,4.08789 -1.3831,2.22482 -2.4217,4.17122 -3.1133,5.83984 -0.2634,0.66745 -0.3945,1.58588 -0.3945,2.75391 0,5.56205 2.1248,9.03722 6.373,10.42773 4.2812,1.39052 7.0137,2.08594 8.1992,2.08594 0.5269,0 1.3014,-0.24941 2.3223,-0.75 1.0538,-0.44495 1.8601,-0.66797 2.4199,-0.66797 0.2635,-0.66746 0.8732,-1.00195 1.8282,-1.00195 1.6136,-1.39049 2.8488,-2.30698 3.705,-2.75195 3.8531,-3.83782 7.3442,-8.12187 10.4727,-12.84961 l -0.1973,-0.66797 c 1.8113,-2.50292 3.2431,-5.53404 4.2969,-9.09375 1.0538,-3.55972 1.5801,-7.28625 1.5801,-11.17969 0,-4.6165 -0.709,-8.78709 -2.125,-12.51367 -1.1526,-3.00351 -2.9637,-6.17449 -5.4336,-9.51172 -2.0747,-2.89227 -4.841,-4.33789 -8.2988,-4.33789 z m -140.75,2.08594 c -3.8201,0 -7.4602,1.91804 -10.918,5.75586 -3.886,4.22716 -5.8281,9.37291 -5.8281,15.43554 0,5.3952 1.12,9.73402 3.3593,13.01563 h 0.6407 l 0.3965,1.08398 c 1.5148,0.66745 3.0122,1.36287 4.4941,2.08594 1.7783,0.72307 3.3272,1.08398 4.6445,1.08398 0.2306,0 0.8383,-0.0283 1.8262,-0.084 0.9879,-0.11124 1.7962,-0.16602 2.4219,-0.16602 2.8321,0 4.5936,0.8617 5.2851,2.58594 -1.8442,2.78103 -3.9849,4.17188 -6.4218,4.17188 -1.5808,0 -3.1615,-0.44406 -4.7422,-1.33399 -0.9221,-0.5562 -2.0421,-1.41986 -3.3594,-2.58789 -1.0209,-0.94555 -1.6623,-1.41797 -1.9258,-1.41797 -0.461,0 -1.3011,0.64065 -2.5195,1.91992 -1.3502,1.39051 -2.2717,2.19549 -2.7656,2.41797 -0.5929,0.22249 -0.9403,0.6685 -1.0391,1.33594 -0.2635,1.66862 -0.3945,4.78287 -0.3945,9.34375 l 0.5937,1.41797 c 6.1583,3.7822 11.2778,5.67383 15.3613,5.67383 4.4129,0 8.464,-2.05792 12.1524,-6.17383 4.1494,-4.61651 6.2246,-10.51245 6.2246,-17.6875 0,-2.78102 -0.3455,-5.22821 -1.0371,-7.3418 -0.7904,-2.4473 -1.9104,-4.00442 -3.3594,-4.67187 -3.3261,-1.44613 -5.3854,-2.16992 -6.1758,-2.16992 -0.461,0 -1.1521,0.0567 -2.0742,0.16796 -0.9221,0.11125 -1.6132,0.16602 -2.0742,0.16602 -1.7783,0 -3.6232,-0.50079 -5.5332,-1.50195 -2.6016,-1.3349 -3.9024,-3.14143 -3.9024,-5.42188 0,-0.66744 0.2145,-1.39123 0.6426,-2.16992 0.461,-0.77869 0.888,-1.16797 1.2832,-1.16797 1.7454,0 5.7151,1.72536 11.9063,5.17383 0.1976,0.11124 0.4438,0.50052 0.7402,1.16797 0.3293,0.66744 0.7245,1 1.1856,1 0.5598,0 1.8287,-0.83334 3.8046,-2.50195 1.976,-1.72424 3.1436,-3.00359 3.5059,-3.83789 l 0.051,-0.66797 c 0,-0.66745 -0.084,-1.25137 -0.2481,-1.75196 -1.5148,-3.67095 -3.9356,-6.6737 -7.2617,-9.00976 -3.0627,-2.22482 -6.0414,-3.33789 -8.9394,-3.33789 z m -40.9454,12.93164 c 0.5928,0 1.1846,0.36092 1.7774,1.08398 0.5928,0.72307 0.8906,1.55836 0.8906,2.50391 0,1.22365 -0.8578,2.39149 -2.5703,3.5039 -1.5149,1.00118 -2.7004,1.44523 -3.5566,1.33399 -0.3952,0 -1.1181,0.19464 -2.1719,0.58398 -1.0538,0.38935 -1.7628,0.58399 -2.125,0.58399 -0.3294,-0.0556 -0.6749,-0.082 -1.0371,-0.082 -0.1976,-0.0556 -0.2969,-0.63955 -0.2969,-1.75196 0,-3.39285 1.1041,-5.67376 3.3106,-6.84179 1.2514,-0.61183 3.1776,-0.91797 5.7792,-0.91797 z m 179.6211,5.83984 c 0.8234,0 1.6812,0.25137 2.5704,0.75195 1.0209,0.61183 1.7119,1.4168 2.0742,2.41797 0.033,0.11124 0.1819,0.44575 0.4453,1.00196 0.2634,0.55618 0.3945,0.9171 0.3945,1.08398 0,0.66745 0.099,1.55751 0.2969,2.66992 0.1975,1.11242 0.2949,1.97412 0.2949,2.58594 0,2.94789 -0.6255,5.70122 -1.8769,8.25977 -1.3173,2.7254 -2.8305,4.08789 -4.543,4.08789 -0.3952,0 -0.7904,-0.0831 -1.1856,-0.25 0.1646,-1.8911 0.2461,-5.58928 0.2461,-11.09571 0.033,-4.72774 0.2296,-8.42591 0.5918,-11.0957 0.1976,-0.27811 0.428,-0.41797 0.6914,-0.41797 z m -228.8652,5.44336 c 0.038,0.0201 0.062,0.0616 0.062,0.14648 l -0.049,-0.084 c 0.3952,1.66861 0.8718,2.83646 1.4316,3.50391 l 0.2481,0.75195 c -0.033,0.33372 0.033,0.69464 0.1972,1.08398 0.1976,0.33372 0.295,0.55673 0.295,0.66797 v 0 c 0,0.38934 -0.5938,0.69548 -1.7793,0.91797 -1.4489,0.27811 -2.1896,0.41602 -2.2226,0.41602 l -0.8887,-0.66602 c 0.1646,-0.83431 0.5102,-1.94738 1.0371,-3.33789 0.5599,-1.39051 0.9214,-2.47522 1.0859,-3.25391 0.3527,-0.0745 0.5373,-0.12186 0.5801,-0.14648 z m 181.5469,0 c 0.038,0.0201 0.064,0.0616 0.064,0.14648 l -0.049,-0.084 c 0.3952,1.66861 0.8718,2.83646 1.4316,3.50391 l 0.2481,0.75195 c -0.033,0.33372 0.033,0.69464 0.1973,1.08398 0.1975,0.33372 0.2949,0.55673 0.2949,0.66797 v 0 c 0,0.38934 -0.5937,0.69548 -1.7793,0.91797 -1.4489,0.27811 -2.1896,0.41602 -2.2226,0.41602 l -0.8887,-0.66602 c 0.1647,-0.83431 0.5102,-1.94738 1.0371,-3.33789 0.56,-1.39051 0.9214,-2.47522 1.086,-3.25391 0.3516,-0.0743 0.5345,-0.12179 0.5781,-0.14648 z"
         style="font-style:normal;font-variant:normal;font-weight:normal;font-stretch:normal;font-size:16.9855442px;line-height:1.25;font-family:'Yard Sale';-inkscape-font-specification:'Yard Sale, Normal';font-variant-ligatures:normal;font-variant-caps:normal;font-variant-numeric:normal;font-feature-settings:normal;text-align:center;letter-spacing:3.4395833px;word-spacing:0px;writing-mode:lr-tb;text-anchor:middle;opacity:1;fill:#1a1a1a;fill-opacity:0.99607843;stroke:none;stroke-width:5;stroke-miterlimit:4;stroke-dasharray:none;stroke-opacity:1"
         inkscape:connector-curvature="0" />
      <g
         id="text1274"
         style="font-style:normal;font-variant:normal;font-weight:normal;font-stretch:normal;font-size:16.98555756px;line-height:1.25;font-family:Centaur;-inkscape-font-specification:'Centaur, Normal';font-variant-ligatures:normal;font-variant-caps:normal;font-variant-numeric:normal;font-feature-settings:normal;text-align:center;letter-spacing:3.4395833px;word-spacing:0px;writing-mode:lr-tb;text-anchor:middle;opacity:1;fill:#ffffff;fill-opacity:1;stroke:#ffffff;stroke-width:2.64583325;stroke-miterlimit:4;stroke-dasharray:none"
         transform="scale(0.76946807,1.2995991)"
         aria-label="MOOLLA">
        <path
           id="path2130"
           style="font-style:normal;font-variant:normal;font-weight:normal;font-stretch:normal;font-size:16.98555756px;font-family:Centaur;-inkscape-font-specification:'Centaur, Normal';font-variant-ligatures:normal;font-variant-caps:normal;font-variant-numeric:normal;font-feature-settings:normal;text-align:center;letter-spacing:3.4395833px;writing-mode:lr-tb;text-anchor:middle;opacity:1;fill:#ffffff;stroke:#ffffff;stroke-width:2.64583325;stroke-miterlimit:4;stroke-dasharray:none;stroke-opacity:1"
           d="m -904.74503,73.290441 0.0332,-0.315162 q 0.15759,0 0.30687,0.01659 0.14929,0.0083 0.52251,0.01659 0.43127,0.03317 0.80449,0.05806 0.37322,0.02488 0.76302,0.02488 0.15758,-0.0083 0.29858,-0.0083 0.14099,-0.0083 0.41468,-0.0083 0.2737,0.738142 0.48933,1.244059 0.22393,0.505918 0.87914,1.774858 0.6552,1.260647 1.26065,2.405182 0.61373,1.136241 1.53434,2.861336 0.37321,-0.622029 1.21917,-2.255894 0.15758,-0.298574 1.15283,-2.172957 1.00354,-1.874383 1.40994,-2.6457 0.40639,-0.771317 0.61373,-1.227472 0.64691,0.01659 1.40994,0.01659 0.63032,0 1.00354,-0.01659 l -0.0166,0.306868 q -0.63862,0.07464 -0.90402,0.174169 -0.2654,0.09123 -0.40639,0.331749 -0.14099,0.240518 -0.18246,0.696673 -0.0332,0.456155 -0.0166,1.60069 l 0.0498,2.305656 q 0.008,0.19905 0.008,0.398099 0.008,0.190756 0.0166,0.481037 0.0166,0.281987 0.0332,0.738142 0.0166,0.447861 0.0415,1.119653 0.0415,0.779611 0.0912,1.169416 0.0581,0.389805 0.21564,0.613736 0.15758,0.215637 0.40639,0.29028 0.24881,0.06635 0.76302,0.08294 v 0.306868 l -1.42652,-0.01659 -1.10307,0.01659 q -0.91231,0 -1.5758,0.08294 l -0.0166,-0.306868 q 0.69667,-0.165875 0.99525,-0.35663 0.29857,-0.19905 0.43127,-0.68838 0.1327,-0.497624 0.1327,-1.484577 0,-0.630324 -0.0166,-1.020129 l -0.0664,-2.239307 q -0.0498,-1.443109 -0.22393,-2.653993 -0.24881,0.481036 -0.77132,1.443109 -0.51421,0.962072 -0.95377,1.783151 -0.43128,0.82108 -0.83767,1.60069 -0.40639,0.779611 -0.6635,1.326997 -0.5308,1.161122 -0.70497,1.567515 -0.16587,0.406392 -0.33175,0.928897 l -0.2571,0.01659 q -0.20734,-0.655205 -0.49762,-1.434815 -0.29029,-0.779611 -0.82108,-1.791446 -1.06989,-2.040257 -2.86134,-5.490449 -0.14099,1.409934 -0.27369,3.292611 -0.1327,1.882676 -0.1327,3.98099 0,0.646911 0.2654,0.904016 0.27369,0.257106 1.26894,0.364924 l -0.0166,0.273693 q -0.54739,-0.06635 -1.17771,-0.06635 l -1.00354,0.01659 q -0.17417,0 -0.32346,0.0083 -0.14099,0 -0.41468,0.0083 -0.2737,0.0083 -0.5391,0.01659 -0.2654,0.01659 -0.38151,0.01659 l 0.0166,-0.240518 q 0.7962,-0.140993 1.12795,-0.406392 0.33175,-0.273693 0.43127,-0.779611 0.0995,-0.505917 0.19076,-1.816327 l 0.24881,-4.329326 q 0.0415,-0.597149 0.0415,-0.804492 0,-0.84596 -0.22393,-1.285528 -0.21564,-0.439568 -0.63033,-0.597149 -0.40639,-0.165874 -1.11965,-0.22393 z"
           inkscape:connector-curvature="0" />
        <path
           id="path2132"
           style="font-style:normal;font-variant:normal;font-weight:normal;font-stretch:normal;font-size:16.98555756px;font-family:Centaur;-inkscape-font-specification:'Centaur, Normal';font-variant-ligatures:normal;font-variant-caps:normal;font-variant-numeric:normal;font-feature-settings:normal;text-align:center;letter-spacing:3.4395833px;writing-mode:lr-tb;text-anchor:middle;opacity:1;fill:#ffffff;stroke:#ffffff;stroke-width:2.64583325;stroke-miterlimit:4;stroke-dasharray:none;stroke-opacity:1"
           d="m -886.10304,78.391084 q 0,-1.509459 0.7962,-2.786693 0.80449,-1.277234 2.13149,-2.02367 1.32699,-0.746435 2.81157,-0.746435 1.01184,0 1.99879,0.398099 0.98695,0.398099 1.76656,1.119653 0.77961,0.713261 1.24406,1.749977 0.46445,1.036716 0.46445,2.255894 0,1.484578 -0.73814,2.7784 -0.73814,1.285528 -2.05685,2.048551 -1.3104,0.763023 -2.96915,0.763023 -1.26894,0 -2.28907,-0.497624 -1.02013,-0.497624 -1.74168,-1.343584 -0.71326,-0.845961 -1.06989,-1.808033 -0.34834,-0.970366 -0.34834,-1.907558 z m 1.23577,-0.630323 q 0,1.451402 0.68008,2.745224 0.68009,1.293822 1.82462,2.073432 1.14454,0.771317 2.42177,0.771317 0.94549,0 1.80803,-0.464449 0.87084,-0.472742 1.42652,-1.451402 0.55568,-0.97866 0.55568,-2.413475 0,-1.144535 -0.37321,-2.172957 -0.36493,-1.028423 -1.02843,-1.79974 -0.6552,-0.77961 -1.51775,-1.20259 -0.86255,-0.431274 -1.81632,-0.431274 -1.04501,0 -1.95732,0.522505 -0.91232,0.514211 -1.46799,1.509458 -0.55568,0.995248 -0.55568,2.313951 z"
           inkscape:connector-curvature="0" />
        <path
           id="path2134"
           style="font-style:normal;font-variant:normal;font-weight:normal;font-stretch:normal;font-size:16.98555756px;font-family:Centaur;-inkscape-font-specification:'Centaur, Normal';font-variant-ligatures:normal;font-variant-caps:normal;font-variant-numeric:normal;font-feature-settings:normal;text-align:center;letter-spacing:3.4395833px;writing-mode:lr-tb;text-anchor:middle;opacity:1;fill:#ffffff;stroke:#ffffff;stroke-width:2.64583325;stroke-miterlimit:4;stroke-dasharray:none;stroke-opacity:1"
           d="m -870.09016,78.391084 q 0,-1.509459 0.79619,-2.786693 0.8045,-1.277234 2.13149,-2.02367 1.327,-0.746435 2.81158,-0.746435 1.01183,0 1.99879,0.398099 0.98695,0.398099 1.76656,1.119653 0.77961,0.713261 1.24406,1.749977 0.46445,1.036716 0.46445,2.255894 0,1.484578 -0.73814,2.7784 -0.73815,1.285528 -2.05685,2.048551 -1.31041,0.763023 -2.96915,0.763023 -1.26894,0 -2.28907,-0.497624 -1.02013,-0.497624 -1.74169,-1.343584 -0.71326,-0.845961 -1.06989,-1.808033 -0.34833,-0.970366 -0.34833,-1.907558 z m 1.23576,-0.630323 q 0,1.451402 0.68009,2.745224 0.68008,1.293822 1.82462,2.073432 1.14453,0.771317 2.42177,0.771317 0.94548,0 1.80803,-0.464449 0.87084,-0.472742 1.42652,-1.451402 0.55568,-0.97866 0.55568,-2.413475 0,-1.144535 -0.37322,-2.172957 -0.36492,-1.028423 -1.02842,-1.79974 -0.6552,-0.77961 -1.51775,-1.20259 -0.86255,-0.431274 -1.81633,-0.431274 -1.04501,0 -1.95732,0.522505 -0.91231,0.514211 -1.46799,1.509458 -0.55568,0.995248 -0.55568,2.313951 z"
           inkscape:connector-curvature="0" />
        <path
           id="path2136"
           style="font-style:normal;font-variant:normal;font-weight:normal;font-stretch:normal;font-size:16.98555756px;font-family:Centaur;-inkscape-font-specification:'Centaur, Normal';font-variant-ligatures:normal;font-variant-caps:normal;font-variant-numeric:normal;font-feature-settings:normal;text-align:center;letter-spacing:3.4395833px;writing-mode:lr-tb;text-anchor:middle;opacity:1;fill:#ffffff;stroke:#ffffff;stroke-width:2.64583325;stroke-miterlimit:4;stroke-dasharray:none;stroke-opacity:1"
           d="m -853.97776,73.365084 v -0.29028 q 1.04501,0.0083 1.36846,0.01659 0.32346,0.0083 0.5391,0.01659 1.39334,0 1.83291,-0.03317 l -0.0166,0.323455 q -0.57226,0.04976 -0.85425,0.140994 -0.28199,0.08294 -0.40639,0.364924 -0.0747,0.182462 -0.10782,0.91231 -0.0332,0.729848 -0.0581,1.874383 -0.0332,1.285528 -0.0498,2.330538 -0.0166,1.045009 -0.0166,2.073432 0,0.937191 0.0498,1.385053 0.0498,0.447861 0.16588,0.563973 0.14099,0.107819 0.46445,0.157581 0.33175,0.04976 1.40164,0.04976 1.17771,0 1.96561,-0.190756 0.7962,-0.190756 1.1943,-0.406393 0.5308,-0.323455 0.72985,-1.103066 l 0.27369,0.03317 q -0.0498,0.340043 -0.22393,1.020129 -0.17417,0.680085 -0.40639,1.235765 -0.71326,-0.08294 -1.13624,-0.08294 -0.25711,-0.0083 -0.48104,-0.01659 -0.21564,0 -0.50592,0 h -5.8222 l -0.0166,-0.257106 q 0.48933,-0.09952 0.71326,-0.215637 0.22393,-0.116112 0.33175,-0.398099 0.11611,-0.290281 0.14099,-0.862548 0.0332,-0.572267 0.0332,-1.650452 l 0.0166,-3.649241 q 0.0166,-1.235766 0,-1.874383 -0.0166,-0.638617 -0.11611,-0.945485 -0.0995,-0.315162 -0.31516,-0.406393 -0.21564,-0.09952 -0.68838,-0.116112 z"
           inkscape:connector-curvature="0" />
        <path
           id="path2138"
           style="font-style:normal;font-variant:normal;font-weight:normal;font-stretch:normal;font-size:16.98555756px;font-family:Centaur;-inkscape-font-specification:'Centaur, Normal';font-variant-ligatures:normal;font-variant-caps:normal;font-variant-numeric:normal;font-feature-settings:normal;text-align:center;letter-spacing:3.4395833px;writing-mode:lr-tb;text-anchor:middle;opacity:1;fill:#ffffff;stroke:#ffffff;stroke-width:2.64583325;stroke-miterlimit:4;stroke-dasharray:none;stroke-opacity:1"
           d="m -840.9838,73.365084 v -0.29028 q 1.04501,0.0083 1.36846,0.01659 0.32346,0.0083 0.53909,0.01659 1.39335,0 1.83292,-0.03317 l -0.0166,0.323455 q -0.57227,0.04976 -0.85425,0.140994 -0.28199,0.08294 -0.4064,0.364924 -0.0746,0.182462 -0.10781,0.91231 -0.0332,0.729848 -0.0581,1.874383 -0.0332,1.285528 -0.0498,2.330538 -0.0166,1.045009 -0.0166,2.073432 0,0.937191 0.0498,1.385053 0.0498,0.447861 0.16588,0.563973 0.14099,0.107819 0.46445,0.157581 0.33174,0.04976 1.40164,0.04976 1.17771,0 1.96561,-0.190756 0.7962,-0.190756 1.1943,-0.406393 0.5308,-0.323455 0.72984,-1.103066 l 0.2737,0.03317 q -0.0498,0.340043 -0.22393,1.020129 -0.17417,0.680085 -0.4064,1.235765 -0.71326,-0.08294 -1.13624,-0.08294 -0.2571,-0.0083 -0.48103,-0.01659 -0.21564,0 -0.50592,0 h -5.8222 l -0.0166,-0.257106 q 0.48933,-0.09952 0.71327,-0.215637 0.22393,-0.116112 0.33174,-0.398099 0.11612,-0.290281 0.141,-0.862548 0.0332,-0.572267 0.0332,-1.650452 l 0.0166,-3.649241 q 0.0166,-1.235766 0,-1.874383 -0.0166,-0.638617 -0.11611,-0.945485 -0.0995,-0.315162 -0.31516,-0.406393 -0.21564,-0.09952 -0.68838,-0.116112 z"
           inkscape:connector-curvature="0" />
        <path
           id="path2140"
           style="font-style:normal;font-variant:normal;font-weight:normal;font-stretch:normal;font-size:16.98555756px;font-family:Centaur;-inkscape-font-specification:'Centaur, Normal';font-variant-ligatures:normal;font-variant-caps:normal;font-variant-numeric:normal;font-feature-settings:normal;text-align:center;letter-spacing:3.4395833px;writing-mode:lr-tb;text-anchor:middle;opacity:1;fill:#ffffff;stroke:#ffffff;stroke-width:2.64583325;stroke-miterlimit:4;stroke-dasharray:none;stroke-opacity:1"
           d="m -821.62026,83.773714 v -0.273693 q 0.38151,-0.06635 0.60544,-0.174168 0.23223,-0.107818 0.23223,-0.364924 0,-0.240518 -0.14929,-0.696673 -0.14929,-0.456155 -0.22393,-0.630324 l -0.61373,-1.667039 q -0.48104,-0.06635 -1.56752,-0.06635 h -0.6552 q -0.98696,-0.03317 -1.73339,0.09952 l -0.61374,1.53434 q -0.40639,0.962072 -0.40639,1.20259 0,0.290281 0.2571,0.48933 0.2654,0.190756 1.06989,0.306868 v 0.273693 q -0.97036,-0.116112 -1.65045,-0.116112 -0.69667,0 -1.50946,0.06635 v -0.240518 q 0.49763,-0.124406 0.76303,-0.389805 0.19905,-0.174169 0.5225,-0.82108 0.33175,-0.655204 0.6635,-1.418227 0.34004,-0.771317 0.48933,-1.202591 l 1.327,-3.176498 q 0.24881,-0.572268 0.50591,-1.194297 0.2654,-0.630324 0.49763,-1.260647 0.23222,-0.630324 0.34004,-1.011835 0,-0.107819 0.0498,-0.157581 l 0.2737,-0.01659 q 0.2571,0.920604 0.56397,1.766565 l 1.74168,4.669369 q 0.67179,1.749977 1.01184,2.587644 0.34833,0.829373 0.60544,1.186003 0.21564,0.306868 0.88743,0.373218 v 0.290281 q -0.68009,-0.06635 -1.31041,-0.06635 -0.49762,0 -0.9289,0.02488 -0.42298,0.02488 -0.67179,0.04147 -0.24881,0.02488 -0.37322,0.03317 z m -2.62911,-7.47265 -0.93719,2.413476 q -0.19076,0.514211 -0.25711,0.64691 0.63033,0.09952 1.45141,0.09952 l 0.76302,-0.01659 q 0.68838,0 1.23576,-0.03317 -0.29028,-0.845961 -0.37321,-1.003541 l -0.59715,-1.526047 q -0.0995,-0.248811 -0.38151,-0.904016 -0.2737,-0.655205 -0.3981,-0.895723 -0.15758,0.348337 -0.2737,0.638617 -0.10781,0.281987 -0.23222,0.580561 z"
           inkscape:connector-curvature="0" />
      </g>
      <path
         style="opacity:1;fill:#ffffff;fill-opacity:1;stroke:#ffffff;stroke-width:4.4979167;stroke-linecap:butt;stroke-linejoin:round;stroke-miterlimit:4;stroke-dasharray:none;stroke-dashoffset:0;stroke-opacity:1"
         d="m -696.94409,87.37887 -4.95322,19.70248 -9.84406,7.95675 h 87.41314 V 87.37887 Z"
         id="path1276"
         inkscape:connector-curvature="0"
         sodipodi:nodetypes="cccccc" />
      <path
         sodipodi:nodetypes="cccccc"
         inkscape:connector-curvature="0"
         id="path1278"
         d="m -696.94409,87.37887 -4.95322,19.70248 -9.84406,7.95675 h 87.41314 V 87.37887 Z"
         style="opacity:1;fill:#ffffff;fill-opacity:1;stroke:#1a1a1a;stroke-width:1.70502055;stroke-linecap:square;stroke-linejoin:round;stroke-miterlimit:4;stroke-dasharray:none;stroke-dashoffset:0;stroke-opacity:1" />
      <path
         transform="scale(0.26458333)"
         id="path2110"
         d="m -2598.5039,350.75195 c -1.0209,0 -2.6672,0.7502 -4.9395,2.25196 -2.1405,1.39051 -3.7213,2.66986 -4.7421,3.83789 l 0.049,1.41797 0.4453,0.25195 c -0.5928,4.22716 -1.6135,8.95331 -3.0625,14.18164 -0.066,-0.11124 -1.0707,-3.61477 -3.0137,-10.51172 -1.6466,-5.78454 -2.6514,-8.67578 -3.0136,-8.67578 -1.0868,0 -2.4034,0.47242 -3.9512,1.41797 -1.4161,0.88993 -2.6354,1.89149 -3.6563,3.0039 -0.3622,0.44497 -0.674,1.38981 -0.9375,2.83594 -0.2964,1.72424 -0.5446,2.80894 -0.7422,3.25391 -0.7245,1.72424 -1.4652,4.19979 -2.2226,7.42578 -0.6587,3.00351 -1.6138,6.45226 -2.8652,10.3457 l -3.2598,10.00977 c -0.7574,2.39168 -1.2022,3.69938 -1.334,3.92187 l -0.4434,-0.25 c 0.066,0.61183 -0.033,1.41875 -0.2968,2.41992 -0.2635,1.00118 -0.3946,1.723 -0.3946,2.16797 0,0.5562 0.1629,1.22523 0.4922,2.00391 0.033,0.0556 0.4281,1.72425 1.1856,5.00586 0.4939,2.22481 1.2029,3.33594 2.125,3.33594 0.6586,0 1.6634,-0.94484 3.0136,-2.83594 1.6137,-2.22481 2.6841,-3.53251 3.211,-3.92188 0.099,-0.11111 0.4106,-0.16601 0.9375,-0.16601 0.3952,-0.0556 0.6931,-0.27863 0.8906,-0.66797 0.2305,-0.61183 0.7727,-2.8644 1.6289,-6.75781 0.8892,-3.94908 1.6954,-6.8139 2.4199,-8.59375 2.1077,5.95139 3.6407,13.46119 4.5957,22.52734 0.1977,2.05795 0.7398,3.08594 1.6289,3.08594 0.066,0 0.1654,-0.0264 0.2969,-0.082 2.404,-1.11239 4.1337,-3.00402 5.1875,-5.67383 1.7783,-4.61649 3.0791,-8.17676 3.9024,-10.67969 0.6915,-2.39168 1.2019,-4.19824 1.5312,-5.42187 0.1319,-0.38934 0.263,-0.58399 0.3945,-0.58399 0.099,0 0.1801,0.0549 0.2461,0.16602 0.5269,0.88993 1.2518,3.6149 2.1739,8.17578 0.9879,5.1171 1.6631,8.17656 2.0254,9.17773 0.5269,0.88993 0.9558,1.52863 1.2851,1.91797 l 0.3457,0.084 c 1.2843,0 3.1272,-1.66862 5.5313,-5.00586 2.4369,-3.39283 3.6562,-6.17258 3.6562,-8.3418 v -0.002 c 0,-1.00115 -0.1311,-2.27855 -0.3945,-3.83594 -0.2963,-1.8911 -0.4612,-3.14403 -0.4942,-3.75586 -0.099,-1.27927 -0.4443,-2.72491 -1.0371,-4.33789 -0.7247,-2.00234 -1.1536,-3.39319 -1.2851,-4.17188 -0.2964,-1.39051 -1.1364,-6.09024 -2.5196,-14.0996 -0.9879,-5.78454 -1.9431,-10.40114 -2.8652,-13.84961 -0.3622,-1.3349 -0.9382,-2.00196 -1.7285,-2.00196 z m 211.0723,0 -1.334,1.08399 c -1.0538,0.77868 -2.1064,1.55724 -3.1602,2.33594 -1.2185,1.00116 -2.1081,2.19737 -2.668,3.58789 -3.0626,8.06497 -5.2848,14.18392 -6.6679,18.35546 -1.8113,4.95022 -2.8816,8.06446 -3.211,9.34375 -0.8891,3.50408 -1.6973,7.67662 -2.4218,12.51563 -0.5928,4.28276 -1.1846,8.56487 -1.7774,12.84766 -0.099,0.44485 -0.1484,0.61111 -0.1484,0.5 0,0.66743 0.8241,1.64065 2.4707,2.91992 1.5149,1.16805 2.5356,1.75195 3.0625,1.75195 0.1318,0 0.2469,-0.22104 0.3457,-0.66602 l 1.0859,0.66602 c 0.494,-1.44615 1.1851,-4.28262 2.0743,-8.50976 0.7903,-3.61535 1.5985,-6.34032 2.4218,-8.17579 0.3623,-0.11124 1.7444,-0.47215 4.1485,-1.08398 1.6466,-0.38934 3.0128,-0.94685 4.0996,-1.66992 1.8442,-1.22366 2.9145,-1.83399 3.2109,-1.83399 0.8562,0 2.0259,2.36404 3.5078,7.0918 0.8892,3.11473 1.7788,6.22899 2.668,9.34375 0.2305,0.66744 0.6257,1.27972 1.1855,1.83594 0.5599,0.61183 1.0703,0.91601 1.5313,0.91601 0.2634,0 1.2841,-1.86325 3.0625,-5.58984 1.7783,-3.72656 2.7653,-6.0339 2.9629,-6.92383 0,-0.16688 0.018,-0.41629 0.051,-0.75 0.066,-0.33378 0.098,-0.58515 0.098,-0.75195 0,-0.16686 -0.016,-0.3615 -0.049,-0.58399 -3.1615,-11.23535 -5.336,-18.74319 -6.5215,-22.52539 -2.5687,-8.34307 -5.1364,-15.49196 -7.7051,-21.44336 l -1.0859,-2.66992 c -0.5598,-1.27927 -0.9729,-1.91797 -1.2363,-1.91797 z m -90.4688,1.58594 c -1.449,0.44496 -3.0953,1.47294 -4.9394,3.08594 -0.4611,0.44496 -1.9763,1.97568 -4.545,4.58984 -0.4941,0.50059 -0.8237,1.47379 -0.9882,2.91992 -0.066,1.22366 -0.1474,2.44627 -0.2461,3.66993 -0.9221,10.846 -1.3829,19.74469 -1.3829,26.69726 0,8.28745 0.1311,13.71097 0.3946,16.26953 0.1317,1.50176 0.6103,2.4202 1.4336,2.75391 0.3473,0.67038 0.6744,1.10382 0.9843,1.30078 0.2182,-0.0323 0.8192,-0.0488 1.8301,-0.0488 0.2636,0 0.4781,0.0547 0.6426,0.16602 l 0.4453,-0.66797 c 2.3711,0.22249 4.1484,0.33398 5.334,0.33398 6.9157,0.4449 10.242,0.69627 9.9785,0.75196 l 2.3223,-0.084 c 1.0538,0 2.6663,-1.50234 4.8398,-4.50586 1.482,-2.22483 2.9475,-4.42064 4.3965,-6.58984 1.251,-1.7793 1.8766,-3.72702 1.877,-5.83985 0,0 0,-0.002 0,-0.002 -4e-4,-2.3903 -0.6419,-3.58594 -1.9258,-3.58594 l -12.9414,-0.084 c -2.5687,0 -4.8743,0.16629 -6.916,0.5 -0.033,-0.50059 -0.051,-1.05616 -0.051,-1.66797 0,-2.28044 0.1151,-5.72919 0.3457,-10.3457 0.2635,-4.67213 0.3965,-8.14925 0.3965,-10.42969 0,-4.95023 0.05,-7.86984 0.1484,-8.75977 0.2635,-2.4473 0.3945,-4.0592 0.3945,-4.83789 0,-2.33606 -0.6096,-4.19933 -1.8281,-5.58984 z m -9.2891,61.28711 c -0.1868,0.0277 -0.096,0.0658 0.2989,0.11719 -0.097,-0.0137 -0.1974,-0.0527 -0.2989,-0.11719 z m 51.6133,-61.28711 c -1.449,0.44496 -3.0952,1.47294 -4.9394,3.08594 -0.4611,0.44496 -1.9763,1.97568 -4.5449,4.58984 -0.4941,0.50059 -0.8238,1.47379 -0.9883,2.91992 -0.066,1.22366 -0.1474,2.44627 -0.2461,3.66993 -0.9221,10.846 -1.3828,19.74469 -1.3828,26.69726 0,8.28745 0.131,13.71097 0.3945,16.26953 0.1317,1.50176 0.6103,2.4202 1.4336,2.75391 0.3473,0.67038 0.6744,1.10382 0.9844,1.30078 0.2181,-0.0323 0.8191,-0.0488 1.83,-0.0488 0.2637,0 0.4781,0.0547 0.6426,0.16602 l 0.4453,-0.66797 c 2.3711,0.22249 4.1485,0.33398 5.334,0.33398 6.9157,0.4449 10.242,0.69627 9.9785,0.75196 l 2.3223,-0.084 c 1.0538,0 2.6663,-1.50234 4.8398,-4.50586 1.482,-2.22483 2.9475,-4.42064 4.3965,-6.58984 1.251,-1.7793 1.8766,-3.72702 1.877,-5.83985 0,0 0,-0.002 0,-0.002 -4e-4,-2.3903 -0.6418,-3.58594 -1.9258,-3.58594 l -12.9434,-0.084 c -2.5687,0 -4.8722,0.16629 -6.914,0.5 -0.033,-0.50059 -0.051,-1.05616 -0.051,-1.66797 0,-2.28044 0.1151,-5.72919 0.3457,-10.3457 0.2635,-4.67213 0.3965,-8.14925 0.3965,-10.42969 0,-4.95023 0.05,-7.86984 0.1484,-8.75977 0.2635,-2.4473 0.3946,-4.0592 0.3946,-4.83789 0,-2.33606 -0.6097,-4.19933 -1.8282,-5.58984 z m -9.289,61.28711 c -0.1869,0.0277 -0.096,0.0658 0.2988,0.11719 -0.097,-0.0137 -0.1974,-0.0527 -0.2988,-0.11719 z m -113.2246,-57.36719 c -4.7422,0 -10.4218,3.44876 -17.0411,10.34571 0.066,0 -0.1982,-0.0548 -0.791,-0.16602 -1.2514,0.88993 -2.1907,2.61333 -2.8164,5.17188 l -1.2832,7.00781 -0.3965,-0.41602 c 0.2965,1.00117 0.4295,2.44679 0.3965,4.33789 0,2.11359 0.065,3.55921 0.1973,4.33789 0.3293,1.94671 0.6411,3.89311 0.9375,5.83985 0.4939,3.00349 0.8732,4.6457 1.1367,4.92382 l -0.1973,0.75 c 0.7245,1.22364 1.2011,2.25358 1.4317,3.0879 l -0.1973,0.66601 c 1.0868,2.94788 2.8323,5.45181 5.2363,7.50977 2.3053,2.00234 4.5294,3.0039 6.67,3.0039 1.416,0 2.9471,-0.52915 4.5937,-1.58593 1.6466,-1.11242 3.0446,-2.47489 4.1973,-4.08789 1.8442,-2.11359 3.689,-4.19986 5.5332,-6.25782 2.1406,-2.55854 3.5902,-5.31188 4.3476,-8.25976 1.5808,-6.17389 2.3711,-11.4859 2.3711,-15.93555 0,-5.00585 -0.6593,-9.06494 -1.9765,-12.17969 -1.0868,-2.55854 -2.9634,-4.61645 -5.6309,-6.17383 -2.2723,-1.27927 -4.5123,-1.91992 -6.7187,-1.91992 z m 44.6386,0 c -4.7421,0 -10.4217,3.44876 -17.041,10.34571 0.066,0 -0.1982,-0.0548 -0.791,-0.16602 -1.2514,0.88993 -2.1888,2.61333 -2.8145,5.17188 -0.4281,2.33606 -0.857,4.67174 -1.2851,7.00781 l -0.3945,-0.41602 c 0.2964,1.00117 0.4275,2.44679 0.3945,4.33789 0,2.11359 0.066,3.55921 0.1973,4.33789 0.3293,1.94671 0.6411,3.89311 0.9375,5.83985 0.4939,3.00349 0.8732,4.6457 1.1367,4.92382 l -0.1973,0.75 c 0.7245,1.22364 1.203,2.25358 1.4336,3.0879 l -0.1973,0.66601 c 1.0868,2.94788 2.8323,5.45181 5.2364,7.50977 2.3052,2.00234 4.5274,3.0039 6.6679,3.0039 1.4161,0 2.9472,-0.52915 4.5938,-1.58593 1.6466,-1.11242 3.0466,-2.47489 4.1992,-4.08789 1.8442,-2.11359 3.689,-4.19986 5.5332,-6.25782 2.1406,-2.55854 3.5883,-5.31188 4.3457,-8.25976 1.5807,-6.17389 2.3711,-11.4859 2.3711,-15.93555 0,-5.00585 -0.6593,-9.06494 -1.9766,-12.17969 -1.0867,-2.55854 -2.9634,-4.61645 -5.6308,-6.17383 -2.2723,-1.27927 -4.5123,-1.91992 -6.7188,-1.91992 z m -48.2441,18.27149 c 1.449,0 2.9463,0.91843 4.4941,2.7539 1.6466,2.00233 2.4707,4.17174 2.4707,6.50782 0,2.05795 -0.5759,3.92123 -1.7285,5.58984 -1.1197,1.66864 -2.2893,2.50195 -3.5078,2.50195 -1.91,0 -3.8522,-1.36247 -5.8281,-4.08789 -1.976,-2.78102 -2.9649,-5.72899 -2.9649,-8.84375 0,-1.55737 0.9889,-2.72522 2.9649,-3.5039 1.416,-0.61183 2.7823,-0.91797 4.0996,-0.91797 z m 44.6387,0 c 1.449,0 2.9482,0.91843 4.4961,2.7539 1.6465,2.00233 2.4687,4.17174 2.4687,6.50782 0,2.05795 -0.5759,3.92123 -1.7285,5.58984 -1.1197,1.66864 -2.2874,2.50195 -3.5059,2.50195 -1.91,0 -3.8541,-1.36247 -5.83,-4.08789 -1.976,-2.78102 -2.9629,-5.72899 -2.9629,-8.84375 0,-1.55737 0.9869,-2.72522 2.9629,-3.5039 1.416,-0.61183 2.7823,-0.91797 4.0996,-0.91797 z m 126.748,3.52539 c 0.038,0.0206 0.062,0.0624 0.062,0.14648 l -0.049,-0.084 c 0.3952,1.66861 0.8718,2.83646 1.4316,3.5039 l 0.2481,0.75196 c -0.033,0.33373 0.033,0.69464 0.1972,1.08398 0.1976,0.33361 0.295,0.5566 0.295,0.66797 v 0 c 0,0.38934 -0.5938,0.69548 -1.7793,0.91797 -1.4489,0.2781 -2.1896,0.41601 -2.2226,0.41601 l -0.8887,-0.66796 c 0.1646,-0.83432 0.5102,-1.94543 1.0371,-3.33594 0.56,-1.39052 0.9214,-2.47522 1.0859,-3.25391 0.3547,-0.075 0.5388,-0.12199 0.5801,-0.14648 z"
         style="font-style:normal;font-variant:normal;font-weight:normal;font-stretch:normal;font-size:16.9855442px;line-height:1.25;font-family:'Yard Sale';-inkscape-font-specification:'Yard Sale, Normal';font-variant-ligatures:normal;font-variant-caps:normal;font-variant-numeric:normal;font-feature-settings:normal;text-align:center;letter-spacing:3.4395833px;word-spacing:0px;writing-mode:lr-tb;text-anchor:middle;opacity:1;fill:#1a1a1a;fill-opacity:1;stroke:none;stroke-width:5;stroke-miterlimit:4;stroke-dasharray:none;stroke-opacity:1"
         inkscape:connector-curvature="0" />
    </g>
  </g>
</svg>
