<?xml version="1.0" encoding="UTF-8" standalone="no"?>
<!-- Svg Vector Icons : http://www.onlinewebfonts.com/icon -->

<svg
   xmlns:dc="http://purl.org/dc/elements/1.1/"
   xmlns:cc="http://creativecommons.org/ns#"
   xmlns:rdf="http://www.w3.org/1999/02/22-rdf-syntax-ns#"
   xmlns:svg="http://www.w3.org/2000/svg"
   xmlns="http://www.w3.org/2000/svg"
   xmlns:sodipodi="http://sodipodi.sourceforge.net/DTD/sodipodi-0.dtd"
   xmlns:inkscape="http://www.inkscape.org/namespaces/inkscape"
   version="1.1"
   x="0px"
   y="0px"
   viewBox="0 0 1000 1000"
   enable-background="new 0 0 1000 1000"
   xml:space="preserve"
   id="svg893"
   sodipodi:docname="8c351a93dd2df48e70cc8dacaffab392.svg"
   inkscape:version="0.92.2 (5c3e80d, 2017-08-06)"><defs
     id="defs897" /><sodipodi:namedview
     pagecolor="#ffffff"
     bordercolor="#666666"
     borderopacity="1"
     objecttolerance="10"
     gridtolerance="10"
     guidetolerance="10"
     inkscape:pageopacity="0"
     inkscape:pageshadow="2"
     inkscape:window-width="1366"
     inkscape:window-height="705"
     id="namedview895"
     showgrid="false"
     inkscape:zoom="0.476"
     inkscape:cx="500"
     inkscape:cy="500"
     inkscape:window-x="-8"
     inkscape:window-y="-8"
     inkscape:window-maximized="1"
     inkscape:current-layer="g891" /><metadata
     id="metadata857"> Svg Vector Icons : http://www.onlinewebfonts.com/icon <rdf:RDF><cc:Work
     rdf:about=""><dc:format>image/svg+xml</dc:format><dc:type
       rdf:resource="http://purl.org/dc/dcmitype/StillImage" /></cc:Work></rdf:RDF></metadata><g
     id="g891"
     transform="rotate(90,499.95023,500)"><path
       d="M 877.4,200.3 627.4,25.4 C 613,15.3 596.3,10 579,10 c -46.8,0 -84.8,38 -84.8,84.7 0,27.6 13.5,53.5 36.1,69.3 l 25.3,17.7 H 325 C 189.3,181.7 78.8,292.1 78.8,427.9 v 459.4 c 0,56.6 46.1,102.7 102.7,102.7 56.6,0 102.7,-46.1 102.7,-102.7 V 477 c 0,-49.6 40.3,-89.9 89.9,-89.9 h 181.5 l -25.3,17.7 c -22.6,15.8 -36.1,41.7 -36.1,69.3 0,46.7 38,84.7 84.8,84.7 0,0 0,0 0,0 17.3,0 34,-5.3 48.3,-15.4 l 250,-174.9 c 27.4,-19.2 43.8,-50.6 43.8,-84.1 0.1,-33.4 -16.3,-64.9 -43.7,-84.1 z"
       id="path859"
       inkscape:connector-curvature="0"
       style="fill:#2a55b0;fill-opacity:1" /><g
       id="g861" /><g
       id="g863" /><g
       id="g865" /><g
       id="g867" /><g
       id="g869" /><g
       id="g871" /><g
       id="g873" /><g
       id="g875" /><g
       id="g877" /><g
       id="g879" /><g
       id="g881" /><g
       id="g883" /><g
       id="g885" /><g
       id="g887" /><g
       id="g889" /></g></svg>