<?xml version="1.0" encoding="UTF-8" standalone="no"?>
<!-- Generator: Adobe Illustrator 21.0.0, SVG Export Plug-In . SVG Version: 6.00 Build 0)  -->

<svg
   xmlns:dc="http://purl.org/dc/elements/1.1/"
   xmlns:cc="http://creativecommons.org/ns#"
   xmlns:rdf="http://www.w3.org/1999/02/22-rdf-syntax-ns#"
   xmlns:svg="http://www.w3.org/2000/svg"
   xmlns="http://www.w3.org/2000/svg"
   xmlns:sodipodi="http://sodipodi.sourceforge.net/DTD/sodipodi-0.dtd"
   xmlns:inkscape="http://www.inkscape.org/namespaces/inkscape"
   version="1.1"
   x="0px"
   y="0px"
   viewBox="0 0 210 210"
   xml:space="preserve"
   id="svg3749"
   sodipodi:docname="Alarm Clock.svg"
   inkscape:version="0.92.2 (5c3e80d, 2017-08-06)"
   width="210"
   height="210"><metadata
     id="metadata3755"><rdf:RDF><cc:Work
         rdf:about=""><dc:format>image/svg+xml</dc:format><dc:type
           rdf:resource="http://purl.org/dc/dcmitype/StillImage" /><dc:title></dc:title></cc:Work></rdf:RDF></metadata><defs
     id="defs3753" /><sodipodi:namedview
     pagecolor="#ffffff"
     bordercolor="#666666"
     borderopacity="1"
     objecttolerance="10"
     gridtolerance="10"
     guidetolerance="10"
     inkscape:pageopacity="0"
     inkscape:pageshadow="2"
     inkscape:window-width="1366"
     inkscape:window-height="745"
     id="namedview3751"
     showgrid="false"
     inkscape:snap-nodes="false"
     inkscape:zoom="1.2922078"
     inkscape:cx="166"
     inkscape:cy="124"
     inkscape:window-x="-8"
     inkscape:window-y="-8"
     inkscape:window-maximized="1"
     inkscape:current-layer="svg3749" /><style
     type="text/css"
     id="style3243">
	.st0{opacity:0.25;fill:#F1F0ED;}
	.st1{opacity:0.25;fill:#D4D4D4;}
	.st2{opacity:0.25;fill:#FF817E;}
	.st3{opacity:0.25;fill:#231F20;}
	.st4{fill:#64C0F2;}
	.st5{fill:#D4D4D4;}
	.st6{fill:#FFFFFF;}
	.st7{fill:none;stroke:#231F20;stroke-width:2;stroke-miterlimit:10;}
	.st8{fill:none;stroke:#231F20;stroke-linecap:round;stroke-miterlimit:10;stroke-dasharray:1,5.7;}
	.st9{fill:none;stroke:#231F20;stroke-miterlimit:10;}
	.st10{fill:none;stroke:#231F20;stroke-width:4;stroke-miterlimit:10;}
	.st11{fill:none;stroke:#231F20;stroke-linecap:round;stroke-linejoin:round;stroke-miterlimit:10;}
	.st12{fill:none;stroke:#231F20;stroke-width:2;stroke-linecap:round;stroke-miterlimit:10;}
	.st13{fill:none;stroke:#231F20;stroke-linejoin:round;stroke-miterlimit:10;}
	.st14{fill:none;stroke:#231F20;stroke-width:2;stroke-linecap:round;stroke-linejoin:round;stroke-miterlimit:10;}
	.st15{opacity:0.25;}
	.st16{fill:none;}
	.st17{fill:none;stroke:#1F4D59;stroke-width:2;stroke-miterlimit:10;}
	.st18{fill:none;stroke:#1F4D59;stroke-linecap:round;stroke-miterlimit:10;stroke-dasharray:1,5.7;}
	.st19{fill:none;stroke:#1F4D59;stroke-miterlimit:10;}
	.st20{fill:none;stroke:#1F4D59;stroke-width:4;stroke-miterlimit:10;}
	.st21{fill:none;stroke:#1F4D59;stroke-linecap:round;stroke-linejoin:round;stroke-miterlimit:10;}
	.st22{fill:none;stroke:#1F4D59;stroke-width:2;stroke-linecap:round;stroke-miterlimit:10;}
	.st23{fill:none;stroke:#1F4D59;stroke-linejoin:round;stroke-miterlimit:10;}
	.st24{fill:none;stroke:#1F4D59;stroke-width:2;stroke-linecap:round;stroke-linejoin:round;stroke-miterlimit:10;}
</style><path
     style="opacity:1;fill:#f1f0ed;stroke-width:1"
     inkscape:connector-curvature="0"
     id="path3261"
     d="m 24.127695,204.611 c -8.284473,0 -15.188203,-6.70647 -15.188203,-15.18821 v -3.74774 c 0,8.28449 6.706477,15.18822 15.188203,15.18822 H 185.87229 c 8.28449,0 15.18822,-6.90373 15.18822,-15.18822 v 3.74774 c 0,8.28448 -6.70648,15.18821 -15.18822,15.18821 z"
     class="st0" /><polygon
     style="opacity:1;fill:#f1f0ed;stroke-width:0.50697213"
     id="polygon3263"
     points="658,329.5 668,329.5 673.9,329.5 673.9,335.5 576.5,335.5 576.5,329.5 578,329.5 588,329.5 598,329.5 608,329.5 618,329.5 628,329.5 638,329.5 648,329.5 "
     class="st0"
     transform="matrix(1.9724951,0,0,1.9724951,-1128.204,-578.07506)" /><path
     style="opacity:1;fill:#f1f0ed;stroke-width:1"
     inkscape:connector-curvature="0"
     id="path3265"
     d="M 201.06051,83.697051 V 185.67505 c 0,8.28449 -6.70648,15.18822 -15.18822,15.18822 H 24.127695 c -8.284473,0 -15.188203,-6.90373 -15.188203,-15.18822 V 83.697051 Z"
     class="st0" /><path
     style="opacity:1;fill:#999999;stroke-width:1"
     inkscape:connector-curvature="0"
     id="path3267"
     d="m 36.751676,37.935164 v 4.733988 c 0,2.169742 -1.775249,3.94499 -3.94499,3.94499 h -1.972502 c -2.169741,0 -3.94499,-1.775248 -3.94499,-3.94499 V 37.935164 37.343419 21.168965 10.122993 c 0,-2.1697547 1.775249,-3.9450035 3.94499,-3.9450035 h 1.972502 c 2.169741,0 3.94499,1.7752488 3.94499,3.9450035 v 11.045972 5.917479 z"
     class="st0" /><path
     style="opacity:1;fill:#999999;stroke-width:1"
     inkscape:connector-curvature="0"
     id="path3269"
     d="m 183.30806,37.935164 v 4.733988 c 0,2.169742 -1.77525,3.94499 -3.94499,3.94499 h -1.9725 c -2.16974,0 -3.94499,-1.775248 -3.94499,-3.94499 V 37.935164 28.861693 21.366205 10.320232 c 0,-2.169741 1.77525,-3.9449898 3.94499,-3.9449898 h 1.9725 c 2.16974,0 3.94499,1.7752488 3.94499,3.9449898 v 11.045973 z"
     class="st0" /><path
     style="opacity:1;fill:#2b56b2;fill-opacity:1;stroke-width:1"
     inkscape:connector-curvature="0"
     id="path3271"
     d="m 200.46876,21.366205 -16.76621,16.766212 c -0.19724,0 -0.19724,-0.197253 -0.39449,-0.197253 V 21.366205 Z"
     class="st2" /><path
     style="opacity:1;fill:#2b56b2;fill-opacity:1;stroke-width:1"
     inkscape:connector-curvature="0"
     id="path3273"
     d="m 188.43654,46.614142 c 0,-3.550484 -1.77524,-6.706477 -4.73399,-8.481725 l 16.76621,-16.766212 h 0.59175 c 1.38076,0 2.56425,1.183504 2.56425,2.564247 v 14.004712 l -16.96346,16.963464 -1.1835,-1.183503 c 1.77525,-1.775236 2.95874,-4.339483 2.95874,-7.100983 z"
     class="st2" /><polygon
     style="opacity:1;fill:#2b56b2;fill-opacity:1;stroke-width:0.50697213"
     id="polygon3275"
     points="590.6,303.9 593.6,303.9 590.6,306.9 "
     class="st2"
     transform="matrix(1.9724951,0,0,1.9724951,-1128.204,-578.07506)" /><path
     style="opacity:1;fill:#2b56b2;fill-opacity:1;stroke-width:1"
     inkscape:connector-curvature="0"
     id="path3277"
     d="m 62.394106,21.366205 -21.5002,21.5002 C 40.104908,40.893903 38.526912,39.118667 36.554424,37.935164 V 27.283697 l 5.917478,-5.917492 z"
     class="st2" /><path
     style="opacity:1;fill:#2b56b2;fill-opacity:1;stroke-width:1"
     inkscape:connector-curvature="0"
     id="path3279"
     d="m 178.37682,56.673877 c 2.76149,0 5.32573,-1.183503 7.10098,-2.958752 l 1.1835,1.183503 -16.96346,16.963452 h -19.72495 l 19.9222,-19.922191 c 1.77525,2.958739 4.93124,4.733988 8.48173,4.733988 z"
     class="st2" /><path
     style="opacity:1;fill:#2b56b2;fill-opacity:1;stroke-width:1"
     inkscape:connector-curvature="0"
     id="path3281"
     d="m 173.24833,28.861693 v 9.073471 c -2.95874,1.775249 -5.12849,4.931241 -5.12849,8.678978 0,1.972502 0.59175,3.944991 1.578,5.522987 L 149.97289,71.86208 h -19.72495 z"
     class="st2" /><path
     style="opacity:1;fill:#2b56b2;fill-opacity:1;stroke-width:1"
     inkscape:connector-curvature="0"
     id="path3283"
     d="m 26.691942,21.366205 v 16.174466 l -1.577997,1.577996 c -0.394492,0.19724 -0.591745,0.591746 -0.98625,0.986238 L 6.3752451,57.857368 V 38.132417 L 22.944204,21.563458 h 3.747738 z"
     class="st2" /><path
     style="opacity:1;fill:#2b56b2;fill-opacity:1;stroke-width:1"
     inkscape:connector-curvature="0"
     id="path3285"
     d="M 6.3752451,57.660115 24.127695,39.907665 c -1.577996,1.775249 -2.564234,4.142243 -2.564234,6.706477 0,4.142243 2.564234,7.889981 6.311984,9.270724 L 11.898231,71.86208 H 8.939492 v 0 c -1.3807562,0 -2.5642469,-1.183491 -2.5642469,-2.564234 z"
     class="st2" /><polygon
     style="opacity:1;fill:#2b56b2;fill-opacity:1;stroke-width:0.50697213"
     id="polygon3287"
     points="658,329.5 666.6,320.9 675.2,312.3 675.2,322.3 668,329.5 "
     class="st2"
     transform="matrix(1.9724951,0,0,1.9724951,-1128.204,-578.07506)" /><path
     style="opacity:1;fill:#2b56b2;fill-opacity:1;stroke-width:1"
     inkscape:connector-curvature="0"
     id="path3289"
     d="m 203.62476,57.660115 v 11.637731 c 0,1.380743 -1.18351,2.564234 -2.56425,2.564234 h -11.63772 z"
     class="st2" /><polygon
     style="opacity:1;fill:#2b56b2;fill-opacity:1;stroke-width:0.50697213"
     id="polygon3291"
     points="613.6,303.9 623.6,303.9 598,329.5 588,329.5 "
     class="st2"
     transform="matrix(1.9724951,0,0,1.9724951,-1128.204,-578.07506)" /><path
     style="opacity:1;fill:#2b56b2;fill-opacity:1;stroke-width:1"
     inkscape:connector-curvature="0"
     id="path3293"
     d="M 82.119057,21.366205 31.623183,71.86208 H 11.898231 L 27.875445,55.884866 c 1.183491,0.394506 2.564247,0.788998 3.94499,0.788998 5.522987,0 10.059722,-4.536735 10.059722,-10.059722 0,-1.380743 -0.197253,-2.761486 -0.788998,-3.94499 l 21.5002,-21.5002 h 19.527698 z"
     class="st2" /><polygon
     style="opacity:1;fill:#2b56b2;fill-opacity:1;stroke-width:0.50697213"
     id="polygon3295"
     points="623.6,303.9 633.6,303.9 608,329.5 598,329.5 "
     class="st2"
     transform="matrix(1.9724951,0,0,1.9724951,-1128.204,-578.07506)" /><polygon
     style="opacity:1;fill:#2b56b2;fill-opacity:1;stroke-width:0.50697213"
     id="polygon3297"
     points="633.6,303.9 643.6,303.9 618,329.5 608,329.5 "
     class="st2"
     transform="matrix(1.9724951,0,0,1.9724951,-1128.204,-578.07506)" /><polygon
     style="opacity:1;fill:#2b56b2;fill-opacity:1;stroke-width:0.50697213"
     id="polygon3299"
     points="643.6,303.9 653.6,303.9 628,329.5 618,329.5 "
     class="st2"
     transform="matrix(1.9724951,0,0,1.9724951,-1128.204,-578.07506)" /><path
     style="opacity:1;fill:#2b56b2;fill-opacity:1;stroke-width:1"
     inkscape:connector-curvature="0"
     id="path3301"
     d="M 22.944204,21.366205 6.3752451,37.935164 V 23.930452 c 0,-1.380743 1.1835035,-2.564247 2.5642469,-2.564247 z"
     class="st2" /><polygon
     style="opacity:1;fill:#2b56b2;fill-opacity:1;stroke-width:0.50697213"
     id="polygon3303"
     points="628,329.5 653.6,303.9 659.8,303.9 659.8,307.7 638,329.5 "
     class="st2"
     transform="matrix(1.9724951,0,0,1.9724951,-1128.204,-578.07506)" /><path
     style="opacity:1;fill:#231f20;stroke-width:1"
     inkscape:connector-curvature="0"
     id="path3305"
     d="M 201.06051,73.440076 H 8.939492 c -2.1697543,0 -3.9449903,-1.775236 -3.9449903,-3.94499 V 23.930452 c 0,-2.169742 1.775236,-3.94499 3.9449903,-3.94499 h 17.75245 c 0.788998,0 1.577996,0.591745 1.577996,1.577996 0,0.986251 -0.591746,1.577996 -1.577996,1.577996 H 8.939492 c -0.5917582,0 -0.9862508,0.394505 -0.9862508,0.986251 v 45.564633 c 0,0.591746 0.3944926,0.986251 0.9862508,0.986251 H 201.06051 c 0.59176,0 0.98625,-0.394505 0.98625,-0.986251 V 24.127705 c 0,-0.591746 -0.39449,-0.986251 -0.98625,-0.986251 h -17.75245 c -0.789,0 -1.578,-0.591745 -1.578,-1.577996 0,-0.986251 0.59175,-1.577996 1.578,-1.577996 h 17.75245 c 2.16975,0 3.94499,1.775248 3.94499,3.94499 v 45.564634 c 0,2.169754 -1.77524,3.94499 -3.94499,3.94499 z"
     class="st3" /><path
     style="opacity:1;fill:#231f20;stroke-width:1"
     inkscape:connector-curvature="0"
     id="path3307"
     d="M 173.24833,22.746948 H 36.751676 c -0.788998,0 -1.577996,-0.591745 -1.577996,-1.577983 0,-0.986251 0.591745,-1.577996 1.577996,-1.577996 H 173.24833 c 0.78901,0 1.578,0.591745 1.578,1.577996 0,0.986238 -0.78899,1.577983 -1.578,1.577983 z"
     class="st3" /><path
     style="opacity:1;fill:#231f20;stroke-width:1"
     inkscape:connector-curvature="0"
     id="path3309"
     d="M 185.87229,202.44126 H 23.930455 c -9.270724,0 -16.5689591,-7.49549 -16.5689591,-16.56896 V 72.059333 c 0,-0.788998 0.5917453,-1.577997 1.5779961,-1.577997 0.9862507,0 1.577996,0.591746 1.577996,1.577997 V 185.8723 c 0,7.49548 6.114732,13.61022 13.61022,13.61022 H 186.06955 c 7.49548,0 13.61022,-6.11474 13.61022,-13.61022 V 72.059333 c 0,-0.788998 0.59174,-1.577997 1.57799,-1.577997 0.98625,0 1.578,0.591746 1.578,1.577997 V 185.8723 c -0.19725,9.07347 -7.69273,16.56896 -16.96347,16.56896 z"
     class="st3" /><path
     style="opacity:1;fill:#231f20;stroke-width:1"
     inkscape:connector-curvature="0"
     id="path3311"
     d="m 31.623183,58.251873 c -1.577997,0 -2.95874,-0.394505 -4.339483,-0.788998 -4.339496,-1.775249 -7.100983,-5.917492 -7.100983,-10.65148 0,-2.761487 0.986238,-5.522986 2.761487,-7.495475 0.394493,-0.394505 0.591745,-0.788998 1.183491,-1.183503 0.591758,-0.394493 1.183503,-0.986251 1.775249,-1.380744 0.788998,-0.394505 1.577996,-0.197252 1.972501,0.591746 0.394493,0.788998 0.19724,1.577996 -0.591758,1.972501 -0.591745,0.394493 -0.986238,0.591745 -1.380743,0.986238 -0.394493,0.197253 -0.591746,0.591758 -0.788999,0.788998 -1.380743,1.577996 -2.169741,3.550498 -2.169741,5.720239 0,3.550485 2.169741,6.706477 5.325734,7.889981 0.98625,0.394505 2.169741,0.591745 3.353245,0.591745 4.733988,0 8.678978,-3.94499 8.678978,-8.678979 0,-1.18349 -0.197253,-2.169741 -0.591745,-3.353232 -0.788998,-1.775248 -1.972502,-3.155992 -3.550498,-4.142243 -0.788998,-0.394505 -0.986251,-1.380743 -0.591745,-1.972501 0.394492,-0.788998 1.380743,-0.986238 1.972488,-0.591745 2.169755,1.183503 3.944991,3.155992 4.931241,5.522986 0.591746,1.380743 0.788998,2.958739 0.788998,4.339496 0,6.509224 -5.12848,11.83497 -11.637717,11.83497 z"
     class="st3" /><path
     style="opacity:1;fill:#231f20;stroke-width:1"
     inkscape:connector-curvature="0"
     id="path3313"
     d="m 178.37682,58.251873 c -3.94499,0 -7.69273,-1.972501 -9.86247,-5.325746 -1.1835,-1.775236 -1.77525,-3.94499 -1.77525,-6.311985 0,-4.14223 2.16974,-7.88998 5.72023,-10.059721 0.789,-0.394493 1.57801,-0.197253 1.9725,0.591745 0.39449,0.788998 0.19725,1.577996 -0.59175,1.972501 -2.7615,1.577997 -4.33949,4.339483 -4.33949,7.495475 0,1.577997 0.3945,3.353245 1.38074,4.536749 1.578,2.564234 4.3395,3.94499 7.29824,3.94499 2.36699,0 4.53674,-0.986251 6.11473,-2.564247 1.57799,-1.577996 2.56424,-3.747737 2.56424,-6.114731 0,-2.958753 -1.57799,-5.720239 -3.94499,-7.298236 0,0 -0.19724,0 -0.19724,-0.197252 -0.78901,-0.394493 -0.98625,-1.380744 -0.59175,-1.972489 0.3945,-0.788998 1.1835,-0.986251 1.9725,-0.591758 0.19724,0 0.19724,0.197253 0.39449,0.197253 3.35325,1.972501 5.52299,5.720239 5.52299,9.862482 0,3.155992 -1.18349,6.114731 -3.35325,8.284473 -2.36699,2.366994 -5.12848,3.550497 -8.28447,3.550497 z"
     class="st3" /><path
     style="opacity:1;fill:#231f20;stroke-width:1"
     inkscape:connector-curvature="0"
     id="path3315"
     d="m 32.609433,47.994886 h -1.972501 c -2.95874,0 -5.522987,-2.564234 -5.522987,-5.522986 V 10.122993 c 0,-2.9587527 2.564247,-5.5229868 5.522987,-5.5229868 h 1.972501 c 2.95874,0 5.522987,2.5642341 5.522987,5.5229868 V 42.4719 c 0,3.156005 -2.366995,5.522986 -5.522987,5.522986 z M 30.636932,7.5587457 c -1.380744,0 -2.564247,1.1834906 -2.564247,2.5642473 V 42.4719 c 0,1.380756 1.183503,2.564246 2.564247,2.564246 h 1.972501 c 1.380744,0 2.564247,-1.18349 2.564247,-2.564246 V 10.122993 c 0,-1.3807567 -1.183503,-2.5642473 -2.564247,-2.5642473 z"
     class="st3" /><path
     style="opacity:1;fill:#231f20;stroke-width:1"
     inkscape:connector-curvature="0"
     id="path3317"
     d="m 179.36307,47.994886 h -1.9725 c -2.95874,0 -5.52299,-2.564234 -5.52299,-5.522986 V 10.122993 c 0,-2.9587527 2.56425,-5.5229868 5.52299,-5.5229868 h 1.9725 c 2.95874,0 5.52299,2.5642341 5.52299,5.5229868 V 42.4719 c 0,3.156005 -2.56425,5.522986 -5.52299,5.522986 z m -1.9725,-40.4361403 c -1.38075,0 -2.56425,1.1834906 -2.56425,2.5642473 V 42.4719 c 0,1.380756 1.1835,2.564246 2.56425,2.564246 h 1.9725 c 1.38074,0 2.56423,-1.18349 2.56423,-2.564246 V 10.122993 c 0,-1.3807567 -1.18349,-2.5642473 -2.56423,-2.5642473 z"
     class="st3" /><path
     style="opacity:1;fill:#231f20;stroke-width:1"
     inkscape:connector-curvature="0"
     id="path3323"
     d="M 185.87229,205.4 H 23.930455 c -8.678979,0 -15.9772138,-7.10098 -15.9772138,-15.97721 v -3.74774 h 1.5779961 v 3.74774 c 0,7.88998 6.5092367,14.39922 14.3992177,14.39922 H 185.87231 c 7.88998,0 14.3992,-6.50924 14.3992,-14.39922 v -3.74774 h 1.578 v 3.74774 c 0,8.87623 -7.10099,15.97721 -15.97722,15.97721 z"
     class="st3" /><path
     style="opacity:1;fill:#231f20;stroke-width:1"
     inkscape:connector-curvature="0"
     id="path3325"
     d="m 201.06051,79.363599 h -2.76149 c -0.3945,0 -0.789,-0.394492 -0.789,-0.788998 0,-0.394492 0.3945,-0.788998 0.789,-0.788998 h 2.76149 c 0.3945,0 0.789,0.394506 0.789,0.788998 0,0.394506 -0.3945,0.788998 -0.789,0.788998 z m -8.67898,0 h -5.91748 c -0.3945,0 -0.789,-0.394492 -0.789,-0.788998 0,-0.394492 0.3945,-0.788998 0.789,-0.788998 h 5.91748 c 0.39451,0 0.789,0.394506 0.789,0.788998 0,0.394506 -0.39449,0.788998 -0.789,0.788998 z m -11.83497,0 h -5.91748 c -0.3945,0 -0.789,-0.394492 -0.789,-0.788998 0,-0.394492 0.3945,-0.788998 0.789,-0.788998 h 5.91748 c 0.39451,0 0.789,0.394506 0.789,0.788998 0,0.394506 -0.39449,0.788998 -0.789,0.788998 z m -11.83497,0 h -5.91748 c -0.3945,0 -0.789,-0.394492 -0.789,-0.788998 0,-0.394492 0.3945,-0.788998 0.789,-0.788998 h 5.91748 c 0.3945,0 0.789,0.394506 0.789,0.788998 0,0.394506 -0.3945,0.788998 -0.789,0.788998 z m -11.83497,0 h -5.91748 c -0.39451,0 -0.789,-0.394492 -0.789,-0.788998 0,-0.394492 0.39449,-0.788998 0.789,-0.788998 h 5.91748 c 0.3945,0 0.789,0.394506 0.789,0.788998 0,0.394506 -0.3945,0.788998 -0.789,0.788998 z m -11.83497,0 h -5.91748 c -0.39451,0 -0.789,-0.394492 -0.789,-0.788998 0,-0.394492 0.39449,-0.788998 0.789,-0.788998 h 5.91748 c 0.3945,0 0.789,0.394506 0.789,0.788998 0,0.394506 -0.3945,0.788998 -0.789,0.788998 z m -11.83497,0 h -5.91748 c -0.39451,0 -0.789,-0.394492 -0.789,-0.788998 0,-0.394492 0.39449,-0.788998 0.789,-0.788998 h 5.91748 c 0.3945,0 0.789,0.394506 0.789,0.788998 0,0.394506 -0.3945,0.788998 -0.789,0.788998 z m -11.83497,0 h -5.91748 c -0.39451,0 -0.789,-0.394492 -0.789,-0.788998 0,-0.394492 0.39449,-0.788998 0.789,-0.788998 h 5.91748 c 0.3945,0 0.78899,0.394506 0.78899,0.788998 0,0.394506 -0.39449,0.788998 -0.78899,0.788998 z m -11.83497,0 h -5.91748 c -0.39451,0 -0.789,-0.394492 -0.789,-0.788998 0,-0.394492 0.39449,-0.788998 0.789,-0.788998 h 5.91748 c 0.3945,0 0.78899,0.394506 0.78899,0.788998 0,0.394506 -0.39449,0.788998 -0.78899,0.788998 z m -11.834974,0 h -5.917479 c -0.394506,0 -0.788998,-0.394492 -0.788998,-0.788998 0,-0.394492 0.394492,-0.788998 0.788998,-0.788998 h 5.917479 c 0.394505,0 0.788998,0.394506 0.788998,0.788998 0,0.394506 -0.394493,0.788998 -0.788998,0.788998 z m -11.834971,0 h -5.917479 c -0.394505,0 -0.788998,-0.394492 -0.788998,-0.788998 0,-0.394492 0.394493,-0.788998 0.788998,-0.788998 h 5.917479 c 0.394505,0 0.788998,0.394506 0.788998,0.788998 0,0.394506 -0.394493,0.788998 -0.788998,0.788998 z m -11.834971,0 h -5.917479 c -0.394505,0 -0.788998,-0.394492 -0.788998,-0.788998 0,-0.394492 0.394493,-0.788998 0.788998,-0.788998 h 5.917479 c 0.394506,0 0.788998,0.394506 0.788998,0.788998 0,0.394506 -0.394492,0.788998 -0.788998,0.788998 z m -11.83497,0 h -5.917479 c -0.394506,0 -0.788998,-0.394492 -0.788998,-0.788998 0,-0.394492 0.394492,-0.788998 0.788998,-0.788998 h 5.917479 c 0.394505,0 0.788998,0.394506 0.788998,0.788998 0,0.394506 -0.394493,0.788998 -0.788998,0.788998 z m -11.834971,0 h -5.917479 c -0.394505,0 -0.788998,-0.394492 -0.788998,-0.788998 0,-0.394492 0.394493,-0.788998 0.788998,-0.788998 h 5.917479 c 0.394505,0 0.788998,0.394506 0.788998,0.788998 0,0.394506 -0.394493,0.788998 -0.788998,0.788998 z m -11.834971,0 h -5.917479 c -0.394505,0 -0.788998,-0.394492 -0.788998,-0.788998 0,-0.394492 0.394493,-0.788998 0.788998,-0.788998 h 5.917479 c 0.394506,0 0.788998,0.394506 0.788998,0.788998 0,0.394506 -0.394492,0.788998 -0.788998,0.788998 z m -11.83497,0 h -5.917479 c -0.394506,0 -0.788998,-0.394492 -0.788998,-0.788998 0,-0.394492 0.394492,-0.788998 0.788998,-0.788998 h 5.917479 c 0.394505,0 0.788998,0.394506 0.788998,0.788998 0,0.394506 -0.394493,0.788998 -0.788998,0.788998 z m -11.834971,0 H 8.939492 c -0.3945055,0 -0.7889981,-0.394492 -0.7889981,-0.788998 0,-0.394492 0.3944926,-0.788998 0.7889981,-0.788998 h 5.917479 c 0.394505,0 0.788998,0.394506 0.788998,0.788998 0,0.394506 -0.394493,0.788998 -0.788998,0.788998 z"
     class="st3" /><polygon
     style="opacity:1;fill:#231f20;stroke-width:0.50697213"
     id="polygon3327"
     points="633.9,304.1 608.2,329.8 607.7,329.3 633.4,303.6 "
     class="st3"
     transform="matrix(1.9724951,0,0,1.9724951,-1128.204,-578.07506)" /><polygon
     style="opacity:1;fill:#231f20;stroke-width:0.50697213"
     id="polygon3329"
     points="623.9,304.1 598.2,329.8 597.7,329.3 623.4,303.6 "
     class="st3"
     transform="matrix(1.9724951,0,0,1.9724951,-1128.204,-578.07506)" /><polygon
     style="opacity:1;fill:#231f20;stroke-width:0.50697213"
     id="polygon3331"
     points="613.9,304.1 588.2,329.8 587.7,329.3 613.4,303.6 "
     class="st3"
     transform="matrix(1.9724951,0,0,1.9724951,-1128.204,-578.07506)" /><polygon
     style="opacity:1;fill:#231f20;stroke-width:0.50697213"
     id="polygon3333"
     points="643.9,304.1 618.2,329.8 617.7,329.3 643.4,303.6 "
     class="st3"
     transform="matrix(1.9724951,0,0,1.9724951,-1128.204,-578.07506)" /><polygon
     style="opacity:1;fill:#231f20;stroke-width:0.50697213"
     id="polygon3335"
     points="653.9,304.1 628.2,329.8 627.7,329.3 653.4,303.6 "
     class="st3"
     transform="matrix(1.9724951,0,0,1.9724951,-1128.204,-578.07506)" /><polygon
     style="opacity:1;fill:#231f20;stroke-width:0.50697213"
     id="polygon3337"
     points="660.1,307.9 638.2,329.8 637.7,329.3 659.6,307.4 "
     class="st3"
     transform="matrix(1.9724951,0,0,1.9724951,-1128.204,-578.07506)" /><polygon
     style="opacity:1;fill:#231f20;stroke-width:0.50697213"
     id="polygon3339"
     points="658.3,319.7 648.2,329.8 647.7,329.3 657.8,319.2 "
     class="st3"
     transform="matrix(1.9724951,0,0,1.9724951,-1128.204,-578.07506)" /><rect
     style="opacity:1;fill:#231f20;stroke-width:0.9999904"
     id="rect3341"
     height="1.5779809"
     width="23.669714"
     class="st3"
     transform="rotate(-45)"
     y="156.20273"
     x="103.05836" /><polygon
     style="opacity:1;fill:#231f20;stroke-width:0.50697213"
     id="polygon3343"
     points="675.5,312.6 658.2,329.8 657.7,329.3 674.9,312 "
     class="st3"
     transform="matrix(1.9724951,0,0,1.9724951,-1128.204,-578.07506)" /><polygon
     style="opacity:1;fill:#231f20;stroke-width:0.50697213"
     id="polygon3345"
     points="675.5,322.6 668.2,329.8 667.7,329.3 674.9,322 "
     class="st3"
     transform="matrix(1.9724951,0,0,1.9724951,-1128.204,-578.07506)" /><polygon
     style="opacity:1;fill:#231f20;stroke-width:0.50697213"
     id="polygon3347"
     points="586.3,321.7 578.2,329.8 577.7,329.3 585.8,321.2 "
     class="st3"
     transform="matrix(1.9724951,0,0,1.9724951,-1128.204,-578.07506)" /><rect
     style="opacity:1;fill:#231f20;stroke-width:0.9999904"
     id="rect3349"
     height="1.5779809"
     width="30.376133"
     class="st3"
     transform="rotate(-45)"
     y="58.410976"
     x="-1.2584823" /><rect
     style="opacity:1;fill:#231f20;stroke-width:0.9999904"
     id="rect3351"
     height="1.5779809"
     width="8.4816484"
     class="st3"
     transform="rotate(-45)"
     y="44.493225"
     x="6.7314243" /><rect
     style="opacity:1;fill:#231f20;stroke-width:0.9999904"
     id="rect3353"
     height="1.5779809"
     width="28.600904"
     class="st3"
     transform="rotate(-45)"
     y="44.542469"
     x="-36.22401" /><rect
     style="opacity:1;fill:#231f20;stroke-width:0.9999904"
     id="rect3355"
     height="1.5779809"
     width="23.472466"
     class="st3"
     transform="rotate(-45)"
     y="30.555624"
     x="-22.238966" /><g
     id="g989"
     style="fill:#1e2437;fill-opacity:1"><rect
       style="opacity:1;fill:#1e2437;stroke-width:1;fill-opacity:1"
       id="rect14715"
       height="4.6884494"
       width="155.61504"
       class="st3"
       y="91.671799"
       x="26.330614" /><rect
       style="opacity:1;fill:#1e2437;stroke-width:0.99999994;fill-opacity:1"
       id="rect14717"
       height="9.1705923"
       width="107.59206"
       class="st3"
       y="149.93965"
       x="20.56786" /><rect
       x="41.057655"
       y="128.16925"
       class="st3"
       width="112.0742"
       height="5.3287563"
       id="rect3319"
       style="opacity:1;fill:#1e2437;stroke-width:1;fill-opacity:1" /><rect
       style="opacity:1;fill:#1e2437;stroke-width:1;fill-opacity:1"
       id="rect14719"
       height="3.9449902"
       width="53.339134"
       class="st3"
       y="107.54892"
       x="63.92355" /><rect
       x="50.477119"
       y="179.90352"
       class="st3"
       width="121.85189"
       height="3.9449902"
       id="rect3321"
       style="opacity:1;fill:#1e2437;stroke-width:1;fill-opacity:1" /><rect
       x="147.98878"
       y="149.93965"
       class="st3"
       width="27.553789"
       height="9.1705923"
       id="rect14721"
       style="opacity:1;fill:#1e2437;stroke-width:0.99999994;fill-opacity:1" /></g></svg>