<?xml version="1.0" encoding="UTF-8" standalone="no"?>
<!-- Generator: Adobe Illustrator 21.0.0, SVG Export Plug-In . SVG Version: 6.00 Build 0)  -->

<svg
   xmlns:dc="http://purl.org/dc/elements/1.1/"
   xmlns:cc="http://creativecommons.org/ns#"
   xmlns:rdf="http://www.w3.org/1999/02/22-rdf-syntax-ns#"
   xmlns:svg="http://www.w3.org/2000/svg"
   xmlns="http://www.w3.org/2000/svg"
   xmlns:sodipodi="http://sodipodi.sourceforge.net/DTD/sodipodi-0.dtd"
   xmlns:inkscape="http://www.inkscape.org/namespaces/inkscape"
   version="1.1"
   x="0px"
   y="0px"
   viewBox="0 0 330 146"
   xml:space="preserve"
   id="svg1467"
   sodipodi:docname="Macbook.svg"
   width="330"
   height="146"
   inkscape:version="0.92.2 (5c3e80d, 2017-08-06)"><metadata
     id="metadata1473"><rdf:RDF><cc:Work
         rdf:about=""><dc:format>image/svg+xml</dc:format><dc:type
           rdf:resource="http://purl.org/dc/dcmitype/StillImage" /><dc:title></dc:title></cc:Work></rdf:RDF></metadata><defs
     id="defs1471" /><sodipodi:namedview
     pagecolor="#ffffff"
     bordercolor="#666666"
     borderopacity="1"
     objecttolerance="10"
     gridtolerance="10"
     guidetolerance="10"
     inkscape:pageopacity="0"
     inkscape:pageshadow="2"
     inkscape:window-width="1366"
     inkscape:window-height="745"
     id="namedview1469"
     showgrid="false"
     inkscape:zoom="0.86"
     inkscape:cx="405.81395"
     inkscape:cy="300"
     inkscape:window-x="-8"
     inkscape:window-y="-8"
     inkscape:window-maximized="1"
     inkscape:current-layer="svg1467" /><style
     type="text/css"
     id="style1145">
	.st0{fill:#FFE095;}
	.st1{fill:#F1F0ED;}
	.st2{fill:#64C0F2;}
	.st3{fill:#DCDCDC;}
	.st4{fill:#E27872;}
	.st5{fill:#FF817E;}
	.st6{fill:#B9F264;}
	.st7{fill:#A9A9A9;}
	.st8{fill:#777777;}
	.st9{fill:none;}
	.st10{opacity:0.15;}
	.st11{opacity:0.15;fill:#FFFFFF;}
	.st12{opacity:0.5;fill:#FFFFFF;}
	.st13{fill:none;stroke:#3C3C3C;stroke-width:1.5;stroke-linecap:round;stroke-linejoin:round;stroke-miterlimit:10;}
	.st14{fill:none;stroke:#3C3C3C;stroke-width:2;stroke-linecap:round;stroke-linejoin:round;stroke-miterlimit:10;}
	.st15{fill:none;stroke:#3C3C3C;stroke-width:0.75;stroke-linecap:round;stroke-linejoin:round;stroke-miterlimit:10;}
	.st16{fill:none;stroke:#3C3C3C;stroke-width:0.75;stroke-linejoin:round;stroke-miterlimit:10;}
	.st17{fill:none;stroke:#3C3C3C;stroke-linecap:round;stroke-linejoin:round;stroke-miterlimit:10;}
	.st18{fill:none;stroke:#3C3C3C;stroke-linejoin:round;stroke-miterlimit:10;}
	.st19{fill:#59AAD7;}
	.st20{opacity:0.1;}
	.st21{fill:none;stroke:#3C3C3C;stroke-width:1.5;stroke-linejoin:round;stroke-miterlimit:10;}
	.st22{fill:#E5F9FF;}
	.st23{fill:#9BD5E4;}
	.st24{fill:#FFFFFF;}
	.st25{fill:none;stroke:#9BD5E4;stroke-miterlimit:10;}
	.st26{fill:none;stroke:#A7E0F3;stroke-miterlimit:10;}
	.st27{fill:none;stroke:#3C3C3C;stroke-width:2;stroke-miterlimit:10;}
	.st28{fill:none;stroke:#3C3C3C;stroke-miterlimit:10;}
	.st29{fill:none;stroke:#3C3C3C;stroke-width:2;stroke-linejoin:round;stroke-miterlimit:10;}
	.st30{fill:none;stroke:#FFFFFF;stroke-miterlimit:10;}
	.st31{fill:none;stroke:#9BD5E4;stroke-width:2;stroke-miterlimit:10;}
	.st32{fill:none;stroke:#FFFFFF;stroke-width:2;stroke-miterlimit:10;}
</style><g
     id="g1811"
     transform="translate(-249.00002,-400.5)"><g
       id="folder"><g
         id="color_2_"><g
           id="XMLID_38_"><g
             id="g1189"><path
               id="path1147"
               d="m 489,524.3 c -1.3,-0.1 -2.4,-0.4 -3.5,-1 -2.5,-1.4 -4.1,-4 -4.1,-7 h -10 -20 -10 -9.4 -10.1 -7.5 v 21 c 0,1.7 1.3,3 3,3 h 144 c 1.7,0 3,-1.3 3,-3 v -21 h -6 -10 -22 -20 -6.1 -2.9 c 0,4.4 -3.6,8 -8,8 -0.2,0 -0.3,0 -0.4,0 z m -71.6,12 c 0,-0.5 0.5,-1 1,-1 0.5,0 1,0.5 1,1 0,0.6 -0.5,1 -1,1 -0.5,0 -1,-0.4 -1,-1 z m 14.5,-6.6 3.8,-10.3 20.7,7.5 -3.8,10.3 z m 127.5,6.6 c 0,-0.5 0.5,-1 1,-1 0.5,0 1,0.5 1,1 0,0.6 -0.5,1 -1,1 -0.5,0 -1,-0.4 -1,-1 z"
               class="st0"
               inkscape:connector-curvature="0"
               style="fill:#ffe095" /><circle
               id="circle1149"
               r="1"
               cy="536.29999"
               cx="418.39999"
               class="st1"
               style="fill:#f1f0ed" /><polygon
               id="polygon1151"
               points="440,450.9 430.3,449.7 430.1,449.6 421.9,516.3 431.9,516.3 "
               class="st2"
               style="fill:#64c0f2" /><polygon
               id="polygon1153"
               points="440,450.9 441.2,441.2 431.3,440 430.1,449.6 430.3,449.7 "
               class="st2"
               style="fill:#64c0f2" /><polygon
               id="polygon1155"
               points="435.7,519.4 431.9,529.7 452.6,537.2 456.4,526.9 "
               class="st1"
               style="fill:#f1f0ed" /><polygon
               id="polygon1157"
               points="441.4,516.3 451.4,516.3 451.4,485.3 451.4,467.3 451.4,456.3 451.4,448.9 441.4,448.9 "
               class="st3"
               style="fill:#dcdcdc" /><polygon
               id="polygon1159"
               points="451.4,436.3 441.4,436.3 441.4,441.2 441.4,448.9 451.4,448.9 "
               class="st3"
               style="fill:#dcdcdc" /><rect
               id="rect1161"
               height="31"
               width="20"
               class="st4"
               y="485.29999"
               x="451.39999"
               style="fill:#e27872" /><path
               id="path1163"
               d="m 451.4,467.3 v 18 h 20 v -18 h -19.9 z m 5,9 c 0,-2.8 2.2,-5 5,-5 2.8,0 5,2.2 5,5 0,2.8 -2.2,5 -5,5 -2.8,0 -5,-2.2 -5,-5 z"
               class="st5"
               inkscape:connector-curvature="0"
               style="fill:#ff817e" /><polygon
               id="polygon1165"
               points="471.4,467.3 471.4,456.3 451.4,456.3 451.4,467.3 451.5,467.3 "
               class="st4"
               style="fill:#e27872" /><circle
               id="circle1167"
               r="5"
               cy="476.29999"
               cx="461.39999"
               class="st4"
               style="fill:#e27872" /><path
               id="path1169"
               d="m 492.4,455.2 -6.9,68.1 c 1,0.6 2.2,0.9 3.5,1 l 6.9,-68 0.1,-0.8 z"
               class="st6"
               inkscape:connector-curvature="0"
               style="fill:#b9f264" /><path
               id="path1171"
               d="m 495.9,456.3 -6.9,68 c 0.1,0 0.3,0 0.4,0 4.4,0 8,-3.6 8,-8 h 2.9 l 6.1,-59.7 -10.4,-1.1 z"
               class="st6"
               inkscape:connector-curvature="0"
               style="fill:#b9f264" /><rect
               id="rect1173"
               height="6"
               width="20"
               class="st7"
               y="510.29999"
               x="506.39999"
               style="fill:#a9a9a9" /><polygon
               id="polygon1175"
               points="526.4,486.3 526.4,470.3 506.4,470.3 506.4,510.3 526.4,510.3 "
               class="st8"
               style="fill:#777777" /><polygon
               id="polygon1177"
               points="506.4,470.3 526.4,470.3 526.4,460.3 526.4,456.3 526.4,450.3 506.4,450.3 506.4,456.6 "
               class="st7"
               style="fill:#a9a9a9" /><polygon
               id="polygon1179"
               points="548.4,486.3 526.4,486.3 526.4,510.3 526.4,516.3 548.4,516.3 "
               class="st2"
               style="fill:#64c0f2" /><rect
               id="rect1181"
               height="4"
               width="22"
               class="st2"
               y="456.29999"
               x="526.40002"
               style="fill:#64c0f2" /><polygon
               id="polygon1183"
               points="548.4,516.3 558.4,516.3 558.4,446.3 548.4,446.3 548.4,456.3 548.4,460.3 548.4,486.3 "
               class="st5"
               style="fill:#ff817e" /><rect
               id="rect1185"
               height="10"
               width="10"
               class="st5"
               y="436.29999"
               x="548.40002"
               style="fill:#ff817e" /><circle
               id="circle1187"
               r="1"
               cy="536.29999"
               cx="560.40002"
               class="st1"
               style="fill:#f1f0ed" /></g><g
             id="g1191" /></g><rect
           id="rect1194"
           height="11"
           width="22"
           class="st1"
           transform="rotate(-19.998771,534.17773,528.33689)"
           y="522.79999"
           x="523.09998"
           style="fill:#f1f0ed" /><line
           id="line1196"
           y2="524.5"
           x2="540.20001"
           y1="529.29999"
           x1="527"
           class="st9"
           style="fill:none" /><line
           id="line1198"
           y2="527.70001"
           x2="540.29999"
           y1="531.79999"
           x1="529"
           class="st9"
           style="fill:none" /></g><g
         id="shadows_1_"><rect
           id="rect1201"
           height="60"
           width="5"
           class="st10"
           y="455.29999"
           x="526.29999"
           style="opacity:0.15" /><rect
           id="rect1203"
           height="2"
           width="20"
           class="st11"
           y="470.29999"
           x="506.39999"
           style="opacity:0.15;fill:#ffffff" /><polygon
           id="polygon1205"
           points="561.4,537.3 561.4,517 564.4,517 564.4,538.5 562,540.3 416.5,540.3 414.4,537.3 "
           class="st10"
           style="opacity:0.15" /><path
           id="path1207"
           d="m 493.2,523.3 c 3.1,-1 6.1,-2.4 6.6,-3.9 h 64.5 v -3.1 h -67 c 0.1,0 -0.2,6 -4.1,7 z"
           class="st12"
           inkscape:connector-curvature="0"
           style="opacity:0.5;fill:#ffffff" /><polygon
           id="polygon1209"
           points="481.6,518.7 414.4,518.7 414.4,516.9 481.4,516.9 "
           class="st12"
           style="opacity:0.5;fill:#ffffff" /></g><g
         id="lines_2_"><path
           id="path1212"
           d="m 414.4,516.3 v 21 c 0,1.7 1.3,3 3,3 h 144 c 1.7,0 3,-1.3 3,-3 v -21 h -67 c 0,4.4 -3.6,8 -8,8 -4.4,0 -8,-3.6 -8,-8 z"
           class="st13"
           inkscape:connector-curvature="0"
           style="fill:none;stroke:#3c3c3c;stroke-width:1.5;stroke-linecap:round;stroke-linejoin:round;stroke-miterlimit:10" /><polyline
           id="polyline1214"
           points="558.4,516.3 558.4,436.3 548.4,436.3 548.4,516.3   "
           class="st13"
           style="fill:none;stroke:#3c3c3c;stroke-width:1.5;stroke-linecap:round;stroke-linejoin:round;stroke-miterlimit:10" /><polyline
           id="polyline1216"
           points="548.4,456.3 526.4,456.3 526.4,516.3   "
           class="st13"
           style="fill:none;stroke:#3c3c3c;stroke-width:1.5;stroke-linecap:round;stroke-linejoin:round;stroke-miterlimit:10" /><polyline
           id="polyline1218"
           points="526.4,456.3 526.4,450.3 506.4,450.3 506.4,516.3   "
           class="st13"
           style="fill:none;stroke:#3c3c3c;stroke-width:1.5;stroke-linecap:round;stroke-linejoin:round;stroke-miterlimit:10" /><polyline
           id="polyline1220"
           points="471.4,516.3 471.4,456.3 451.4,456.3 451.4,516.3   "
           class="st14"
           style="fill:none;stroke:#3c3c3c;stroke-width:2;stroke-linecap:round;stroke-linejoin:round;stroke-miterlimit:10" /><polyline
           id="polyline1222"
           points="485.5,523.3 492.4,455.2 506.4,456.6 500.3,516.3   "
           class="st13"
           style="fill:none;stroke:#3c3c3c;stroke-width:1.5;stroke-linecap:round;stroke-linejoin:round;stroke-miterlimit:10" /><polyline
           id="polyline1224"
           points="451.4,456.3 451.4,436.3 441.4,436.3 441.4,516.3   "
           class="st14"
           style="fill:none;stroke:#3c3c3c;stroke-width:2;stroke-linecap:round;stroke-linejoin:round;stroke-miterlimit:10" /><polyline
           id="polyline1226"
           points="431.9,516.3 441.2,441.2 431.3,440 421.9,516.3   "
           class="st14"
           style="fill:none;stroke:#3c3c3c;stroke-width:2;stroke-linecap:round;stroke-linejoin:round;stroke-miterlimit:10" /><line
           id="line1228"
           y2="486.29999"
           x2="526.40002"
           y1="486.29999"
           x1="548.40002"
           class="st15"
           style="fill:none;stroke:#3c3c3c;stroke-width:0.75;stroke-linecap:round;stroke-linejoin:round;stroke-miterlimit:10" /><line
           id="line1230"
           y2="460.29999"
           x2="526.40002"
           y1="460.29999"
           x1="548.40002"
           class="st15"
           style="fill:none;stroke:#3c3c3c;stroke-width:0.75;stroke-linecap:round;stroke-linejoin:round;stroke-miterlimit:10" /><line
           id="line1232"
           y2="470.29999"
           x2="530.40002"
           y1="470.29999"
           x1="544.40002"
           class="st16"
           style="fill:none;stroke:#3c3c3c;stroke-width:0.75;stroke-linejoin:round;stroke-miterlimit:10" /><line
           id="line1234"
           y2="473.29999"
           x2="531.40002"
           y1="473.29999"
           x1="543.40002"
           class="st16"
           style="fill:none;stroke:#3c3c3c;stroke-width:0.75;stroke-linejoin:round;stroke-miterlimit:10" /><line
           id="line1236"
           y2="476.29999"
           x2="530.40002"
           y1="476.29999"
           x1="544.40002"
           class="st16"
           style="fill:none;stroke:#3c3c3c;stroke-width:0.75;stroke-linejoin:round;stroke-miterlimit:10" /><line
           id="line1238"
           y2="446.29999"
           x2="548.40002"
           y1="446.29999"
           x1="558.40002"
           class="st17"
           style="fill:none;stroke:#3c3c3c;stroke-linecap:round;stroke-linejoin:round;stroke-miterlimit:10" /><line
           id="line1240"
           y2="470.29999"
           x2="506.39999"
           y1="470.29999"
           x1="526.40002"
           class="st15"
           style="fill:none;stroke:#3c3c3c;stroke-width:0.75;stroke-linecap:round;stroke-linejoin:round;stroke-miterlimit:10" /><line
           id="line1242"
           y2="510.29999"
           x2="506.39999"
           y1="510.29999"
           x1="526.40002"
           class="st15"
           style="fill:none;stroke:#3c3c3c;stroke-width:0.75;stroke-linecap:round;stroke-linejoin:round;stroke-miterlimit:10" /><line
           id="line1244"
           y2="455.29999"
           x2="523.40002"
           y1="453.29999"
           x1="523.40002"
           class="st15"
           style="fill:none;stroke:#3c3c3c;stroke-width:0.75;stroke-linecap:round;stroke-linejoin:round;stroke-miterlimit:10" /><line
           id="line1246"
           y2="461.29999"
           x2="523.40002"
           y1="459.29999"
           x1="523.40002"
           class="st15"
           style="fill:none;stroke:#3c3c3c;stroke-width:0.75;stroke-linecap:round;stroke-linejoin:round;stroke-miterlimit:10" /><line
           id="line1248"
           y2="467.29999"
           x2="523.40002"
           y1="465.29999"
           x1="523.40002"
           class="st15"
           style="fill:none;stroke:#3c3c3c;stroke-width:0.75;stroke-linecap:round;stroke-linejoin:round;stroke-miterlimit:10" /><line
           id="line1250"
           y2="455.29999"
           x2="509.39999"
           y1="453.29999"
           x1="509.39999"
           class="st15"
           style="fill:none;stroke:#3c3c3c;stroke-width:0.75;stroke-linecap:round;stroke-linejoin:round;stroke-miterlimit:10" /><line
           id="line1252"
           y2="461.29999"
           x2="509.39999"
           y1="459.29999"
           x1="509.39999"
           class="st15"
           style="fill:none;stroke:#3c3c3c;stroke-width:0.75;stroke-linecap:round;stroke-linejoin:round;stroke-miterlimit:10" /><line
           id="line1254"
           y2="467.29999"
           x2="509.39999"
           y1="465.29999"
           x1="509.39999"
           class="st15"
           style="fill:none;stroke:#3c3c3c;stroke-width:0.75;stroke-linecap:round;stroke-linejoin:round;stroke-miterlimit:10" /><line
           id="line1256"
           y2="514.29999"
           x2="523.40002"
           y1="512.29999"
           x1="523.40002"
           class="st15"
           style="fill:none;stroke:#3c3c3c;stroke-width:0.75;stroke-linecap:round;stroke-linejoin:round;stroke-miterlimit:10" /><line
           id="line1258"
           y2="514.29999"
           x2="509.39999"
           y1="512.29999"
           x1="509.39999"
           class="st15"
           style="fill:none;stroke:#3c3c3c;stroke-width:0.75;stroke-linecap:round;stroke-linejoin:round;stroke-miterlimit:10" /><line
           id="line1260"
           y2="456.29999"
           x2="495.89999"
           y1="524.40002"
           x1="489"
           class="st15"
           style="fill:none;stroke:#3c3c3c;stroke-width:0.75;stroke-linecap:round;stroke-linejoin:round;stroke-miterlimit:10" /><line
           id="line1262"
           y2="467.29999"
           x2="451.5"
           y1="467.29999"
           x1="471.5"
           class="st17"
           style="fill:none;stroke:#3c3c3c;stroke-linecap:round;stroke-linejoin:round;stroke-miterlimit:10" /><line
           id="line1264"
           y2="485.29999"
           x2="451.39999"
           y1="485.29999"
           x1="471.39999"
           class="st17"
           style="fill:none;stroke:#3c3c3c;stroke-linecap:round;stroke-linejoin:round;stroke-miterlimit:10" /><circle
           id="circle1266"
           r="5"
           cy="476.29999"
           cx="461.39999"
           class="st17"
           style="fill:none;stroke:#3c3c3c;stroke-linecap:round;stroke-linejoin:round;stroke-miterlimit:10" /><line
           id="line1268"
           y2="448.89999"
           x2="441.39999"
           y1="448.89999"
           x1="451.39999"
           class="st17"
           style="fill:none;stroke:#3c3c3c;stroke-linecap:round;stroke-linejoin:round;stroke-miterlimit:10" /><line
           id="line1270"
           y2="449.60001"
           x2="430.29999"
           y1="450.89999"
           x1="440.20001"
           class="st17"
           style="fill:none;stroke:#3c3c3c;stroke-linecap:round;stroke-linejoin:round;stroke-miterlimit:10" /><circle
           id="circle1272"
           r="1"
           cy="536.29999"
           cx="560.40002"
           class="st15"
           style="fill:none;stroke:#3c3c3c;stroke-width:0.75;stroke-linecap:round;stroke-linejoin:round;stroke-miterlimit:10" /><circle
           id="circle1274"
           r="1"
           cy="536.29999"
           cx="418.39999"
           class="st17"
           style="fill:none;stroke:#3c3c3c;stroke-linecap:round;stroke-linejoin:round;stroke-miterlimit:10" /><line
           id="line1276"
           y2="474.29999"
           x2="510.39999"
           y1="474.29999"
           x1="522.40002"
           class="st16"
           style="fill:none;stroke:#3c3c3c;stroke-width:0.75;stroke-linejoin:round;stroke-miterlimit:10" /><line
           id="line1278"
           y2="506.29999"
           x2="510.39999"
           y1="506.29999"
           x1="522.40002"
           class="st16"
           style="fill:none;stroke:#3c3c3c;stroke-width:0.75;stroke-linejoin:round;stroke-miterlimit:10" /><rect
           id="rect1280"
           height="22"
           width="11"
           class="st18"
           transform="rotate(-70.001229,444.12714,528.30718)"
           y="517.29999"
           x="438.60001"
           style="fill:none;stroke:#3c3c3c;stroke-linejoin:round;stroke-miterlimit:10" /><line
           id="line1282"
           y2="524.5"
           x2="438.10001"
           y1="529.29999"
           x1="451.20001"
           class="st18"
           style="fill:none;stroke:#3c3c3c;stroke-linejoin:round;stroke-miterlimit:10" /><line
           id="line1284"
           y2="527.70001"
           x2="438"
           y1="531.79999"
           x1="449.29999"
           class="st18"
           style="fill:none;stroke:#3c3c3c;stroke-linejoin:round;stroke-miterlimit:10" /><line
           id="line1286"
           y2="540.29999"
           x2="405.39999"
           y1="540.29999"
           x1="417.39999"
           class="st14"
           style="fill:none;stroke:#3c3c3c;stroke-width:2;stroke-linecap:round;stroke-linejoin:round;stroke-miterlimit:10" /><line
           id="line1288"
           y2="540.29999"
           x2="569.40002"
           y1="540.29999"
           x1="561.40002"
           class="st13"
           style="fill:none;stroke:#3c3c3c;stroke-width:1.5;stroke-linecap:round;stroke-linejoin:round;stroke-miterlimit:10" /><line
           id="line1290"
           y2="540.29999"
           x2="575.40002"
           y1="540.29999"
           x1="573.40002"
           class="st13"
           style="fill:none;stroke:#3c3c3c;stroke-width:1.5;stroke-linecap:round;stroke-linejoin:round;stroke-miterlimit:10" /><rect
           id="rect1292"
           height="11"
           width="22"
           class="st16"
           transform="rotate(-19.998771,534.17773,528.33689)"
           y="522.79999"
           x="523.09998"
           style="fill:none;stroke:#3c3c3c;stroke-width:0.75;stroke-linejoin:round;stroke-miterlimit:10" /><line
           id="line1294"
           y2="524.5"
           x2="540.20001"
           y1="529.29999"
           x1="527"
           class="st16"
           style="fill:none;stroke:#3c3c3c;stroke-width:0.75;stroke-linejoin:round;stroke-miterlimit:10" /><line
           id="line1296"
           y2="527.70001"
           x2="540.29999"
           y1="531.79999"
           x1="529"
           class="st16"
           style="fill:none;stroke:#3c3c3c;stroke-width:0.75;stroke-linejoin:round;stroke-miterlimit:10" /></g></g><g
       id="pencils"><g
         id="color_1_"><g
           id="XMLID_3_"><g
             id="g1326"><path
               id="path1300"
               d="M 278.8,501.7 V 532 c 0,4.4 -3.6,8 -8,8 h -6.2 c -4.4,0 -8,-3.6 -8,-8 v -30.3 z"
               class="st6"
               inkscape:connector-curvature="0"
               style="fill:#b9f264" /><polygon
               id="polygon1302"
               points="271.8,498.6 276.7,498.6 278.8,498.6 278.8,501.7 256.6,501.7 256.6,498.6 259,498.6 263,498.6 265,498.6 269.9,498.6 "
               class="st1"
               style="fill:#f1f0ed" /><polygon
               id="polygon1304"
               points="272.9,482 273.2,476.2 274.2,476.2 277.1,476.4 278.1,476.5 277.7,482.3 "
               class="st2"
               style="fill:#64c0f2" /><polygon
               id="polygon1306"
               points="272.9,482 277.7,482.3 277.3,488.2 272.5,487.9 272.5,486.9 272.8,483 "
               class="st19"
               style="fill:#59aad7" /><polygon
               id="polygon1308"
               points="274.5,472.3 277.4,472.5 277.1,476.4 274.2,476.2 "
               class="st19"
               style="fill:#59aad7" /><polygon
               id="polygon1310"
               points="277.3,488.2 276.7,498.6 271.8,498.6 272.5,487.9 "
               class="st2"
               style="fill:#64c0f2" /><rect
               id="rect1312"
               height="1.8"
               width="3.9000001"
               class="st19"
               transform="matrix(0.06612005,-0.9978,0.9978,0.06612005,-230.0243,723.9703)"
               y="484"
               x="269.79999"
               style="fill:#59aad7" /><polygon
               id="polygon1314"
               points="263,498.6 260.7,488.7 260.1,485.8 259.3,476.6 263.2,476.3 265,498.6 "
               class="st0"
               style="fill:#ffe095" /><path
               id="path1316"
               d="m 263.2,476.3 -3.9,0.3 c -0.1,-1.1 0.7,-2 1.8,-2.1 1.1,0 2.1,0.8 2.1,1.8 z"
               class="st3"
               inkscape:connector-curvature="0"
               style="fill:#dcdcdc" /><polygon
               id="polygon1318"
               points="260.7,488.7 263,498.6 259,498.6 256.9,489.5 "
               class="st5"
               style="fill:#ff817e" /><polygon
               id="polygon1320"
               points="256.9,489.5 255.2,481.9 259,481.1 260.1,485.8 260.7,488.7 "
               class="st5"
               style="fill:#ff817e" /><polygon
               id="polygon1322"
               points="258.5,479.2 259,481.1 255.2,481.9 254.7,480 "
               class="st3"
               style="fill:#dcdcdc" /><polygon
               id="polygon1324"
               points="253.8,476.2 257.7,475.3 258.5,479.2 254.7,480 "
               class="st5"
               style="fill:#ff817e" /></g><g
             id="g1328" /></g></g><g
         id="shadows"><path
           id="path1332"
           d="m 259,502 v 31.2 c 0,1.1 0.9,2 2,2 v 0 c 1.1,0 2,-0.9 2,-2 V 502 Z"
           class="st12"
           inkscape:connector-curvature="0"
           style="opacity:0.5;fill:#ffffff" /><path
           id="path1334"
           d="m 258.2,537.9 c 3.5,0 6.4,0 10.8,0 7.7,0 6.9,-3.5 6.3,-35.8 l 3.5,-0.3 c 0,0 -0.1,32.6 0,33.5 0.1,0.9 -1.8,4.5 -4.9,4.6 -3,0.2 -13.2,0.2 -13.2,0.2 z"
           class="st20"
           inkscape:connector-curvature="0"
           style="opacity:0.1" /><polygon
           id="polygon1336"
           points="256.6,498.8 278.8,498.8 278.8,500.5 256.9,500.5 "
           class="st12"
           style="opacity:0.5;fill:#ffffff" /></g><g
         id="lines_1_"><path
           id="path1339"
           d="m 270.8,540 h -6.2 c -4.4,0 -8,-3.6 -8,-8 v -33.4 h 22.2 V 532 c 0,4.4 -3.6,8 -8,8 z"
           class="st21"
           inkscape:connector-curvature="0"
           style="fill:none;stroke:#3c3c3c;stroke-width:1.5;stroke-linejoin:round;stroke-miterlimit:10" /><line
           id="line1341"
           y2="540"
           x2="283.5"
           y1="540"
           x1="252.60001"
           class="st13"
           style="fill:none;stroke:#3c3c3c;stroke-width:1.5;stroke-linecap:round;stroke-linejoin:round;stroke-miterlimit:10" /><g
           id="g1347"><polyline
             id="polyline1343"
             points="265,498.6 263.2,476.3 259.3,476.6 260.1,485.8    "
             class="st15"
             style="fill:none;stroke:#3c3c3c;stroke-width:0.75;stroke-linecap:round;stroke-linejoin:round;stroke-miterlimit:10" /><path
             id="path1345"
             d="m 259.3,476.6 3.9,-0.3 c -0.1,-1.1 -1,-1.9 -2.1,-1.8 -1,0.1 -1.8,1.1 -1.8,2.1 z"
             class="st15"
             inkscape:connector-curvature="0"
             style="fill:none;stroke:#3c3c3c;stroke-width:0.75;stroke-linecap:round;stroke-linejoin:round;stroke-miterlimit:10" /></g><g
           id="g1357"><polyline
             id="polyline1349"
             points="259,498.6 253.9,476.2 257.7,475.3 263,498.6    "
             class="st15"
             style="fill:none;stroke:#3c3c3c;stroke-width:0.75;stroke-linecap:round;stroke-linejoin:round;stroke-miterlimit:10" /><line
             id="line1351"
             y2="479.20001"
             x2="258.5"
             y1="480"
             x1="254.7"
             class="st15"
             style="fill:none;stroke:#3c3c3c;stroke-width:0.75;stroke-linecap:round;stroke-linejoin:round;stroke-miterlimit:10" /><line
             id="line1353"
             y2="481.10001"
             x2="259"
             y1="481.89999"
             x1="255.2"
             class="st15"
             style="fill:none;stroke:#3c3c3c;stroke-width:0.75;stroke-linecap:round;stroke-linejoin:round;stroke-miterlimit:10" /><line
             id="line1355"
             y2="488.70001"
             x2="260.70001"
             y1="489.5"
             x1="256.89999"
             class="st15"
             style="fill:none;stroke:#3c3c3c;stroke-width:0.75;stroke-linecap:round;stroke-linejoin:round;stroke-miterlimit:10" /></g><g
           id="g1373"><polyline
             id="polyline1359"
             points="276.7,498.6 278.1,476.5 273.2,476.2 271.8,498.6    "
             class="st15"
             style="fill:none;stroke:#3c3c3c;stroke-width:0.75;stroke-linecap:round;stroke-linejoin:round;stroke-miterlimit:10" /><line
             id="line1361"
             y2="482"
             x2="272.89999"
             y1="482.29999"
             x1="277.70001"
             class="st15"
             style="fill:none;stroke:#3c3c3c;stroke-width:0.75;stroke-linecap:round;stroke-linejoin:round;stroke-miterlimit:10" /><line
             id="line1363"
             y2="487.89999"
             x2="272.5"
             y1="488.20001"
             x1="277.29999"
             class="st15"
             style="fill:none;stroke:#3c3c3c;stroke-width:0.75;stroke-linecap:round;stroke-linejoin:round;stroke-miterlimit:10" /><polyline
             id="polyline1365"
             points="272.7,486.9 270.7,486.8 271,482.9 272.9,483    "
             class="st16"
             style="fill:none;stroke:#3c3c3c;stroke-width:0.75;stroke-linejoin:round;stroke-miterlimit:10" /><line
             id="line1367"
             y2="481.89999"
             x2="271"
             y1="482.89999"
             x1="271"
             class="st15"
             style="fill:none;stroke:#3c3c3c;stroke-width:0.75;stroke-linecap:round;stroke-linejoin:round;stroke-miterlimit:10" /><line
             id="line1369"
             y2="498.60001"
             x2="269.89999"
             y1="486.79999"
             x1="270.70001"
             class="st15"
             style="fill:none;stroke:#3c3c3c;stroke-width:0.75;stroke-linecap:round;stroke-linejoin:round;stroke-miterlimit:10" /><polyline
             id="polyline1371"
             points="274.2,476.2 274.5,472.3 277.4,472.5 277.1,476.4    "
             class="st15"
             style="fill:none;stroke:#3c3c3c;stroke-width:0.75;stroke-linecap:round;stroke-linejoin:round;stroke-miterlimit:10" /></g><line
           id="line1375"
           y2="501.70001"
           x2="278.79999"
           y1="501.70001"
           x1="256.60001"
           class="st18"
           style="fill:none;stroke:#3c3c3c;stroke-linejoin:round;stroke-miterlimit:10" /></g></g><g
       id="macbook_blue"><g
         id="color"><g
           id="XMLID_37_"><g
             id="g1419"><polygon
               id="polygon1379"
               points="409,535 481.7,535 504,535 504,538 409,538 "
               class="st2"
               style="fill:#64c0f2" /><path
               id="path1381"
               d="m 409,538 h 95 c 0,0 -2.2,4 -22,4 h -95.7 v -3 c 22.3,0 22.7,-0.9 22.7,-1 z"
               class="st19"
               inkscape:connector-curvature="0"
               style="fill:#59aad7" /><path
               id="path1383"
               d="m 380,532 v -2 h 102 v 3 c 0,0.7 -0.1,1.4 -0.4,2 H 409 380 Z"
               class="st19"
               inkscape:connector-curvature="0"
               style="fill:#59aad7" /><path
               id="path1385"
               d="M 482,411 V 530 H 380 290 V 411 c 0,-3.3 2.7,-6 6,-6 h 180 c 3.3,0 6,2.7 6,6 z m -7,115 V 415 H 297 v 111 z"
               class="st2"
               inkscape:connector-curvature="0"
               style="fill:#64c0f2" /><path
               id="path1387"
               d="m 392,436.5 c 0,-3.3 -2.7,-6 -6,-6 -3.3,0 -6,2.7 -6,6 0,3.3 2.7,6 6,6 3.3,0 6,-2.7 6,-6 z M 475,415 V 526 H 297 V 415 Z m -4,11.5 v -8 H 301 v 8 z m -8,93 v -26 h -35 v 26 z m 0,-31 v -26 h -35 v 26 z m -40,31 v -26 h -35 v 26 z m 0,-31 v -26 h -35 v 26 z m -40,31 v -26 h -35 v 26 z m 0,-31 v -26 h -35 v 26 z m -40,31 v -26 h -35 v 26 z m 0,-31 v -26 h -35 v 26 z"
               class="st22"
               inkscape:connector-curvature="0"
               style="fill:#e5f9ff" /><rect
               id="rect1389"
               height="8"
               width="170"
               class="st23"
               y="418.5"
               x="301"
               style="fill:#9bd5e4" /><rect
               id="rect1391"
               height="26"
               width="35"
               class="st24"
               y="493.5"
               x="428"
               style="fill:#ffffff" /><rect
               id="rect1393"
               height="26"
               width="35"
               class="st24"
               y="462.5"
               x="428"
               style="fill:#ffffff" /><rect
               id="rect1395"
               height="26"
               width="35"
               class="st24"
               y="493.5"
               x="388"
               style="fill:#ffffff" /><rect
               id="rect1397"
               height="26"
               width="35"
               class="st24"
               y="462.5"
               x="388"
               style="fill:#ffffff" /><path
               id="path1399"
               d="m 409,535 v 3 c 0,0.1 -0.5,1 -22.7,1 -23.2,0 -23.3,-1 -23.3,-1 v -3 h 17 z"
               class="st2"
               inkscape:connector-curvature="0"
               style="fill:#64c0f2" /><path
               id="path1401"
               d="m 392,436.5 h -12 c 0,-3.3 2.7,-6 6,-6 3.3,0 6,2.7 6,6 z"
               class="st23"
               inkscape:connector-curvature="0"
               style="fill:#9bd5e4" /><path
               id="path1403"
               d="m 380,436.5 h 12 c 0,3.3 -2.7,6 -6,6 -3.3,0 -6,-2.7 -6,-6 z"
               class="st23"
               inkscape:connector-curvature="0"
               style="fill:#9bd5e4" /><path
               id="path1405"
               d="m 386.3,539 v 3 H 290 c -19.8,0 -22,-4 -22,-4 h 95 c 0,0 0.2,1 23.3,1 z"
               class="st19"
               inkscape:connector-curvature="0"
               style="fill:#59aad7" /><rect
               id="rect1407"
               height="26"
               width="35"
               class="st24"
               y="493.5"
               x="348"
               style="fill:#ffffff" /><rect
               id="rect1409"
               height="26"
               width="35"
               class="st24"
               y="462.5"
               x="348"
               style="fill:#ffffff" /><path
               id="path1411"
               d="m 380,532 v 3 h -17 -72.6 c -0.2,-0.6 -0.4,-1.3 -0.4,-2 v -3 h 90 z"
               class="st19"
               inkscape:connector-curvature="0"
               style="fill:#59aad7" /><polygon
               id="polygon1413"
               points="268,535 290.4,535 363,535 363,538 268,538 "
               class="st2"
               style="fill:#64c0f2" /><rect
               id="rect1415"
               height="26"
               width="35"
               class="st24"
               y="493.5"
               x="308"
               style="fill:#ffffff" /><rect
               id="rect1417"
               height="26"
               width="35"
               class="st24"
               y="462.5"
               x="308"
               style="fill:#ffffff" /></g><g
             id="g1421" /></g></g><g
         id="lines"><line
           id="line1425"
           y2="436.5"
           x2="471"
           y1="436.5"
           x1="301"
           class="st25"
           style="fill:none;stroke:#9bd5e4;stroke-miterlimit:10" /><line
           id="line1427"
           y2="456.5"
           x2="471"
           y1="456.5"
           x1="301"
           class="st26"
           style="fill:none;stroke:#a7e0f3;stroke-miterlimit:10" /><path
           id="path1429"
           d="m 290.4,535 c -0.2,-0.6 -0.4,-1.3 -0.4,-2 V 411 c 0,-3.3 2.7,-6 6,-6 h 180 c 3.3,0 6,2.7 6,6 v 122 c 0,0.7 -0.1,1.4 -0.4,2"
           class="st27"
           inkscape:connector-curvature="0"
           style="fill:none;stroke:#3c3c3c;stroke-width:2;stroke-miterlimit:10" /><rect
           id="rect1431"
           height="111"
           width="178"
           class="st27"
           y="415"
           x="297"
           style="fill:none;stroke:#3c3c3c;stroke-width:2;stroke-miterlimit:10" /><line
           id="line1433"
           y2="530"
           x2="482"
           y1="530"
           x1="290"
           class="st28"
           style="fill:none;stroke:#3c3c3c;stroke-miterlimit:10" /><path
           id="path1435"
           d="m 290,542 c -19.8,0 -22,-4 -22,-4 v -3 h 236 v 3 c 0,0 -2.2,4 -22,4 H 290"
           class="st29"
           inkscape:connector-curvature="0"
           style="fill:none;stroke:#3c3c3c;stroke-width:2;stroke-linejoin:round;stroke-miterlimit:10" /><polyline
           id="polyline1437"
           points="409,535 409,538 504,538   "
           class="st28"
           style="fill:none;stroke:#3c3c3c;stroke-miterlimit:10" /><polyline
           id="polyline1439"
           points="268,538 363,538 363,535   "
           class="st28"
           style="fill:none;stroke:#3c3c3c;stroke-miterlimit:10" /><path
           id="path1441"
           d="m 363,538 c 0,0 0.1,1 23.3,1 23.2,0 22.7,-1 22.7,-1"
           class="st28"
           inkscape:connector-curvature="0"
           style="fill:none;stroke:#3c3c3c;stroke-miterlimit:10" /><line
           id="line1443"
           y2="532"
           x2="392"
           y1="532"
           x1="380"
           class="st30"
           style="fill:none;stroke:#ffffff;stroke-miterlimit:10" /><line
           id="line1445"
           y2="446.5"
           x2="384"
           y1="446.5"
           x1="366"
           class="st31"
           style="fill:none;stroke:#9bd5e4;stroke-width:2;stroke-miterlimit:10" /><line
           id="line1447"
           y2="450.5"
           x2="412"
           y1="450.5"
           x1="360"
           class="st31"
           style="fill:none;stroke:#9bd5e4;stroke-width:2;stroke-miterlimit:10" /><line
           id="line1449"
           y2="446.5"
           x2="406"
           y1="446.5"
           x1="386"
           class="st31"
           style="fill:none;stroke:#9bd5e4;stroke-width:2;stroke-miterlimit:10" /><line
           id="line1451"
           y2="431.5"
           x2="467"
           y1="431.5"
           x1="463"
           class="st31"
           style="fill:none;stroke:#9bd5e4;stroke-width:2;stroke-miterlimit:10" /><line
           id="line1453"
           y2="422.5"
           x2="467"
           y1="422.5"
           x1="445"
           class="st32"
           style="fill:none;stroke:#ffffff;stroke-width:2;stroke-miterlimit:10" /><line
           id="line1455"
           y2="422.5"
           x2="319"
           y1="422.5"
           x1="305"
           class="st32"
           style="fill:none;stroke:#ffffff;stroke-width:2;stroke-miterlimit:10" /><line
           id="line1457"
           y2="431.5"
           x2="309"
           y1="431.5"
           x1="305"
           class="st31"
           style="fill:none;stroke:#9bd5e4;stroke-width:2;stroke-miterlimit:10" /><line
           id="line1459"
           y2="431.5"
           x2="315"
           y1="431.5"
           x1="311"
           class="st31"
           style="fill:none;stroke:#9bd5e4;stroke-width:2;stroke-miterlimit:10" /><line
           id="line1461"
           y2="431.5"
           x2="321"
           y1="431.5"
           x1="317"
           class="st31"
           style="fill:none;stroke:#9bd5e4;stroke-width:2;stroke-miterlimit:10" /><line
           id="line1463"
           y2="431.5"
           x2="327"
           y1="431.5"
           x1="323"
           class="st31"
           style="fill:none;stroke:#9bd5e4;stroke-width:2;stroke-miterlimit:10" /></g></g></g></svg>