<?xml version="1.0" encoding="UTF-8" standalone="no"?>
<!-- Generator: Adobe Illustrator 21.0.0, SVG Export Plug-In . SVG Version: 6.00 Build 0)  -->

<svg
   xmlns:dc="http://purl.org/dc/elements/1.1/"
   xmlns:cc="http://creativecommons.org/ns#"
   xmlns:rdf="http://www.w3.org/1999/02/22-rdf-syntax-ns#"
   xmlns:svg="http://www.w3.org/2000/svg"
   xmlns="http://www.w3.org/2000/svg"
   xmlns:xlink="http://www.w3.org/1999/xlink"
   xmlns:sodipodi="http://sodipodi.sourceforge.net/DTD/sodipodi-0.dtd"
   xmlns:inkscape="http://www.inkscape.org/namespaces/inkscape"
   version="1.1"
   x="0px"
   y="0px"
   viewBox="0 0 495 300"
   xml:space="preserve"
   id="svg484"
   sodipodi:docname="My-work.svg"
   width="495"
   height="300"
   inkscape:version="0.92.2 (5c3e80d, 2017-08-06)"><metadata
     id="metadata490"><rdf:RDF><cc:Work
         rdf:about=""><dc:format>image/svg+xml</dc:format><dc:type
           rdf:resource="http://purl.org/dc/dcmitype/StillImage" /><dc:title></dc:title></cc:Work></rdf:RDF></metadata><defs
     id="defs488"><linearGradient
       inkscape:collect="always"
       id="linearGradient1856"><stop
         style="stop-color:#1488cc;stop-opacity:1;"
         offset="0"
         id="stop1852" /><stop
         style="stop-color:#2b56b2;stop-opacity:1"
         offset="1"
         id="stop1854" /></linearGradient><linearGradient
       inkscape:collect="always"
       xlink:href="#linearGradient1856"
       id="linearGradient1858"
       x1="240.5262"
       y1="439.72046"
       x2="568.57269"
       y2="439.72046"
       gradientUnits="userSpaceOnUse"
       gradientTransform="translate(-10.983952,-75.911441)" /></defs><sodipodi:namedview
     pagecolor="#ffffff"
     bordercolor="#666666"
     borderopacity="1"
     objecttolerance="10"
     gridtolerance="10"
     guidetolerance="10"
     inkscape:pageopacity="0"
     inkscape:pageshadow="2"
     inkscape:window-width="1366"
     inkscape:window-height="745"
     id="namedview486"
     showgrid="false"
     inkscape:pagecheckerboard="true"
     inkscape:zoom="3.1466667"
     inkscape:cx="126.40839"
     inkscape:cy="41.130641"
     inkscape:window-x="-8"
     inkscape:window-y="-8"
     inkscape:window-maximized="1"
     inkscape:current-layer="svg484" /><style
     type="text/css"
     id="style2">
	.st0{fill:#FCFCFC;}
	.st1{fill:#F7F7F7;}
	.st2{fill:#F9F9F9;}
	.st3{fill:none;stroke:#E7E7E7;stroke-width:3;stroke-linecap:round;stroke-linejoin:round;stroke-miterlimit:10;}
	.st4{fill:none;stroke:#E7E7E7;stroke-width:1.5;stroke-linecap:round;stroke-linejoin:round;stroke-miterlimit:10;}
	.st5{fill:none;stroke:#E7E7E7;stroke-width:1.5;stroke-linejoin:round;stroke-miterlimit:10;}
	.st6{fill:#B67DBC;}
	.st7{fill:#AA7D5E;}
	.st8{fill:#E7E7E7;}
	.st9{fill:#E26969;}
	.st10{fill:#777777;}
	.st11{fill:#555555;}
	.st12{fill:#78D8D3;}
	.st13{opacity:0.25;}
	.st14{opacity:0.25;fill:#FFFFFF;}
	.st15{fill:#FFFFFF;}
	.st16{fill:none;stroke:#333333;stroke-width:4;stroke-linecap:round;stroke-linejoin:round;stroke-miterlimit:10;}
	.st17{fill:none;stroke:#333333;stroke-width:2;stroke-linecap:round;stroke-linejoin:round;stroke-miterlimit:10;}
	.st18{opacity:0.5;fill:none;stroke:#333333;stroke-width:2;stroke-linecap:round;stroke-linejoin:round;stroke-miterlimit:10;}
	.st19{fill:none;stroke:#333333;stroke-width:2;stroke-linejoin:round;stroke-miterlimit:10;}
</style><path
     style="fill:none;stroke:#e7e7e7;stroke-width:1.5;stroke-linecap:round;stroke-linejoin:round;stroke-miterlimit:10"
     d="m 250.69077,213.91144 v 0"
     id="line201" /><path
     style="fill:none;stroke:#e7e7e7;stroke-width:1.5;stroke-linecap:round;stroke-linejoin:round;stroke-miterlimit:10"
     d="m 254.69077,213.91144 v 0"
     id="line203" /><path
     style="fill:#aa7d5e"
     inkscape:connector-curvature="0"
     id="path221"
     d="m 473.09076,144.91144 v 4 c 0,2.2 -1.8,4 -4,4 h -4 -424.000005 -4 c -2.2,0 -4,-1.8 -4,-4 v -4 c 0,-2.2 1.8,-4 4,-4 h 25 34 30.000005 80 20 54 20 24 42 8 41 14 14 16 10 c 2.2,0 4,1.7 4,4 z"
     class="st7" /><path
     style="fill:#aa7d5e"
     inkscape:connector-curvature="0"
     id="path227"
     d="m 465.09076,152.91144 v 6 c 0,1.1 -0.9,2 -2,2 h -28 -12 -340.000005 -12 -28 c -1.1,0 -2,-0.9 -2,-2 v -6 z"
     class="st7" /><path
     transform="translate(-151.00924,-229.88856)"
     style="fill:#aa7d5e"
     d="m 574.1,523 v -2.2 -123.2 h 12 v 123.2 2.2 h -5 z"
     id="polygon231" /><path
     style="fill:#aa7d5e"
     d="m 423.09073,160.91144 h 12 v 6.9 h -12 z"
     id="rect233" /><path
     style="fill:#e26969"
     d="m 415.09073,114.91144 h 14 v 26 h -14 z"
     id="rect235" /><path
     transform="translate(-151.00924,-229.88856)"
     style="fill:#e26969"
     d="m 566.1,338.8 h 3.3 6.7 4 v 6 h -14 z"
     id="polygon237" /><path
     style="fill:#e7e7e7"
     inkscape:connector-curvature="0"
     id="path243"
     d="m 382.09076,131.91144 v 1 c 0,4.4 -3.6,8 -8,8 h -8 c -4.4,0 -8,-3.6 -8,-8 v -16 h 24 z"
     class="st8" /><path
     transform="translate(-151.00924,-229.88856)"
     style="fill:#e7e7e7"
     d="m 533.1,346.8 h -24 v -6 h 24 v 5 z"
     id="polygon245" /><path
     style="fill:#e7e7e7"
     inkscape:connector-curvature="0"
     id="path247"
     d="m 334.09076,107.91144 v 9 c 0,3.3 -2.7,6 -6,6 h -55.7 -38.6 -55.7 c -3.3,0 -6,-2.7 -6,-6 v -9 z m -78,7 c 0,-1.7 -1.3,-3 -3,-3 -1.7,0 -3,1.3 -3,3 0,1.7 1.3,3 3,3 1.7,0 3,-1.4 3,-3 z"
     class="st8" /><path
     style="fill:#777777"
     inkscape:connector-curvature="0"
     id="path249"
     d="m 334.09076,16.91144 v 91 h -162 v -91 c 0,-3.3 2.7,-6 6,-6 h 150 c 3.3,0 6,2.6 6,6 z m -7,84 v -83 h -148 v 83 z"
     class="st10" /><path
     style="fill:#555555"
     d="m 179.09076,17.911438 h 148 v 83.000002 h -148 z"
     id="rect251" /><path
     style="fill:#777777"
     inkscape:connector-curvature="0"
     id="path253"
     d="m 324.09076,140.91144 h -24 c 1.1,-5.6 6.1,-9.8 12,-9.8 5.9,0 10.9,4.2 12,9.8 z"
     class="st10" /><path
     style="fill:#777777"
     d="m 226.09076,132.91144 h 54 v 8 h -54 z"
     id="rect255" /><path
     style="fill:#777777"
     inkscape:connector-curvature="0"
     id="path257"
     d="m 280.09076,132.91144 h -54 c 5.2,0 7.7,-6 7.7,-10 h 38.6 c 0,3.9 2.5,10 7.7,10 z"
     class="st10" /><path
     style="fill:#777777"
     d="m 256.09076,114.91144 a 3,3 0 0 1 -3,3 3,3 0 0 1 -3,-3 3,3 0 0 1 3,-3 3,3 0 0 1 3,3 z"
     id="circle259" /><path
     style="fill:#777777"
     inkscape:connector-curvature="0"
     id="path261"
     d="m 206.09076,136.91144 v 4 h -80 v -4 c 0,-2.2 1.8,-4 4,-4 h 72 c 2.2,0 4,1.7 4,4 z"
     class="st10" /><path
     transform="translate(-151.00924,-229.88856)"
     style="fill:#aa7d5e"
     d="m 222.1,523 v -2.2 -123.2 h 12 v 123.2 2.2 h -7 z"
     id="polygon275" /><path
     style="fill:#aa7d5e"
     d="m 71.090759,160.91144 h 12 v 6.9 h -12 z"
     id="rect277" /><path
     style="opacity:0.25"
     d="M 41.090763,152.91144 H 463.49076 v 7.9 H 41.090763 Z"
     id="rect289" /><path
     style="opacity:0.25"
     d="m 71.090759,160.81146 h 12 v 14.1 h -12 z"
     id="rect291" /><path
     style="opacity:0.25"
     d="m 423.09073,160.81146 h 12 v 14.1 h -12 z"
     id="rect293" /><path
     style="opacity:0.25;fill:#ffffff"
     d="M 33.390751,141.91144 H 473.39075 v 4 H 33.390751 Z"
     id="rect295" /><path
     style="opacity:0.25;fill:#ffffff"
     d="m 126.09076,132.91144 h 80 v 4 h -80 z"
     id="rect299" /><path
     class="st14"
     d="m 303.89076,141.71144 c 1.8,-4.6 6.2,-7.8 11.4,-7.8 2.9,0 5.5,1 7.6,2.6 -2.2,-2.8 -5.7,-4.6 -9.6,-4.6 -5.9,0 -10.9,4.2 -12,9.8 h 2.6 v 0"
     id="path301"
     inkscape:connector-curvature="0"
     style="opacity:0.25;fill:#ffffff" /><path
     class="st14"
     d="m 334.09076,20.91144 c 0,-3.3 -2.7,-6 -6,-6 h -150 c -3.3,0 -6,2.7 -6,6 v -3 c 0,-3.3 2.7,-6 6,-6 h 150 c 3.3,0 6,2.7 6,6 z"
     id="path303"
     inkscape:connector-curvature="0"
     style="opacity:0.25;fill:#ffffff" /><path
     style="opacity:0.25"
     d="m 233.69077,123.21146 h 39.4 v 4.2 h -39.4 z"
     id="rect305" /><path
     style="opacity:0.25;fill:#ffffff"
     d="m 226.09076,132.91144 h 54 v 4 h -54 z"
     id="rect307" /><path
     style="fill:#ffffff"
     d="m 358.09076,110.91144 h 23.3 v 6 h -23.3 z"
     id="rect309" /><path
     style="opacity:0.25;fill:#ffffff"
     d="m 415.09073,108.91144 h 13.4 v 6 h -13.4 z"
     id="rect311" /><path
     transform="translate(-151.00924,-229.88856)"
     style="opacity:0.25;fill:#ffffff"
     d="m 371.7,247.7 -9.2,0.1 -32.4,32.4 v 9 z"
     id="polygon313" /><path
     transform="translate(-151.00924,-229.88856)"
     style="opacity:0.25;fill:#ffffff"
     d="m 330.1,296.8 49,-49 h 44.3 L 340.2,331 h -10.1 z"
     id="polygon315" /><path
     class="st16"
     d="m 328.09076,122.91144 h -150 c -3.3,0 -6,-2.7 -6,-6 v -100 c 0,-3.3 2.7,-6 6,-6 h 150 c 3.3,0 6,2.7 6,6 v 100 c 0,3.3 -2.7,6 -6,6 z"
     id="path334"
     inkscape:connector-curvature="0"
     style="fill:none;stroke:#333333;stroke-width:4;stroke-linecap:round;stroke-linejoin:round;stroke-miterlimit:10" /><path
     style="fill:none;stroke:#333333;stroke-width:2;stroke-linecap:round;stroke-linejoin:round;stroke-miterlimit:10"
     d="m 172.09076,107.91144 h 162"
     id="line336" /><path
     style="fill:none;stroke:#333333;stroke-width:4;stroke-linecap:round;stroke-linejoin:round;stroke-miterlimit:10"
     d="m 179.09076,17.911438 h 148 v 83.000002 h -148 z"
     id="rect338" /><path
     style="fill:none;stroke:#333333;stroke-width:2;stroke-linecap:round;stroke-linejoin:round;stroke-miterlimit:10"
     d="m 256.09076,114.91144 a 3,3 0 0 1 -3,3 3,3 0 0 1 -3,-3 3,3 0 0 1 3,-3 3,3 0 0 1 3,3 z"
     id="circle340" /><path
     style="fill:none;stroke:#333333;stroke-width:4;stroke-linecap:round;stroke-linejoin:round;stroke-miterlimit:10"
     d="m 226.09076,132.91144 h 54 v 8 h -54 z"
     id="rect342" /><path
     class="st16"
     d="m 226.09076,132.91144 c 5.2,0 7.7,-6 7.7,-10"
     id="path344"
     inkscape:connector-curvature="0"
     style="fill:none;stroke:#333333;stroke-width:4;stroke-linecap:round;stroke-linejoin:round;stroke-miterlimit:10" /><path
     class="st16"
     d="m 280.09076,132.91144 c -5.2,0 -7.7,-6 -7.7,-10"
     id="path346"
     inkscape:connector-curvature="0"
     style="fill:none;stroke:#333333;stroke-width:4;stroke-linecap:round;stroke-linejoin:round;stroke-miterlimit:10" /><path
     class="st16"
     d="M 469.09076,152.91144 H 37.090755 c -2.2,0 -4,-1.8 -4,-4 v -4 c 0,-2.2 1.8,-4 4,-4 H 469.09076 c 2.2,0 4,1.8 4,4 v 4 c 0,2.2 -1.8,4 -4,4 z"
     id="path348"
     inkscape:connector-curvature="0"
     style="fill:none;stroke:#333333;stroke-width:4;stroke-linecap:round;stroke-linejoin:round;stroke-miterlimit:10" /><path
     class="st16"
     d="m 465.09076,152.91144 v 6 c 0,1.1 -0.9,2 -2,2 H 43.090755 c -1.1,0 -2,-0.9 -2,-2 v -6"
     id="path350"
     inkscape:connector-curvature="0"
     style="fill:none;stroke:#333333;stroke-width:4;stroke-linecap:round;stroke-linejoin:round;stroke-miterlimit:10" /><path
     style="fill:none;stroke:#333333;stroke-width:4;stroke-linecap:round;stroke-linejoin:round;stroke-miterlimit:10"
     d="m 71.090759,290.91144 v -130"
     id="line352" /><path
     style="fill:none;stroke:#333333;stroke-width:4;stroke-linecap:round;stroke-linejoin:round;stroke-miterlimit:10"
     d="M 435.05302,293.11145 H 423.29961"
     id="line356"
     inkscape:connector-curvature="0" /><path
     style="fill:none;stroke:#333333;stroke-width:4;stroke-linecap:round;stroke-linejoin:round;stroke-miterlimit:10"
     d="m 83.090759,167.71146 h -12"
     id="line360" /><path
     transform="translate(-151.00924,-229.88856)"
     style="fill:#e7e7e7;fill-opacity:1;stroke:#333333;stroke-width:4;stroke-linecap:round;stroke-linejoin:round;stroke-miterlimit:10"
     d="m 566.1,370.8 v -32 h 14 v 32"
     id="polyline362" /><path
     style="fill:none;stroke:#333333;stroke-width:4;stroke-linecap:round;stroke-linejoin:round;stroke-miterlimit:10"
     d="m 415.09073,114.91144 h 14"
     id="line364" /><path
     style="fill:none;stroke:#333333;stroke-width:4;stroke-linecap:round;stroke-linejoin:round;stroke-miterlimit:10"
     d="M 425.09073,108.91144 V 99.311462"
     id="line366" /><path
     style="fill:none;stroke:#333333;stroke-width:4;stroke-linecap:round;stroke-linejoin:round;stroke-miterlimit:10"
     d="M 418.39078,108.91144 416.49075,97.911438"
     id="line368" /><g
     id="g388"
     transform="translate(-151.00924,-229.88856)"><path
       class="st16"
       d="m 525.1,370.8 h -8 c -4.4,0 -8,-3.6 -8,-8 v -22 h 24 v 22 c 0,4.4 -3.6,8 -8,8 z"
       id="path372"
       inkscape:connector-curvature="0"
       style="fill:none;stroke:#333333;stroke-width:4;stroke-linecap:round;stroke-linejoin:round;stroke-miterlimit:10" /><path
       class="st16"
       d="m 533.1,345.8 c 4.4,0 8,3.6 8,8 v 0 c 0,4.4 -3.6,8 -8,8"
       id="path374"
       inkscape:connector-curvature="0"
       style="fill:none;stroke:#333333;stroke-width:4;stroke-linecap:round;stroke-linejoin:round;stroke-miterlimit:10" /><path
       style="fill:none;stroke:#333333;stroke-width:2;stroke-linecap:round;stroke-linejoin:round;stroke-miterlimit:10"
       d="m 509.10001,346.79999 h 23.99997"
       id="line376" /><path
       class="st18"
       d="m 531.5,301.1 c 0,0.2 0,0.5 0,0.7 0,4.7 -3.2,8.6 -7.5,9.7"
       id="path378"
       inkscape:connector-curvature="0"
       style="opacity:0.5;fill:none;stroke:#333333;stroke-width:2;stroke-linecap:round;stroke-linejoin:round;stroke-miterlimit:10" /><path
       class="st18"
       d="m 525.9,292.8 c -1.3,-0.7 -2.8,-1 -4.4,-1"
       id="path380"
       inkscape:connector-curvature="0"
       style="opacity:0.5;fill:none;stroke:#333333;stroke-width:2;stroke-linecap:round;stroke-linejoin:round;stroke-miterlimit:10" /><path
       class="st18"
       d="m 530,296.5 c -0.2,-0.3 -0.4,-0.5 -0.6,-0.8"
       id="path382"
       inkscape:connector-curvature="0"
       style="opacity:0.5;fill:none;stroke:#333333;stroke-width:2;stroke-linecap:round;stroke-linejoin:round;stroke-miterlimit:10" /><path
       class="st18"
       d="m 515.9,314.6 c -0.9,1.2 -1.4,2.6 -1.4,4.2 0,2.8 1.6,5.2 3.9,6.3"
       id="path384"
       inkscape:connector-curvature="0"
       style="opacity:0.5;fill:none;stroke:#333333;stroke-width:2;stroke-linecap:round;stroke-linejoin:round;stroke-miterlimit:10" /><path
       class="st18"
       d="m 523.5,326.3 c 1.2,0.7 2,2 2,3.5 0,2.2 -1.8,4 -4,4"
       id="path386"
       inkscape:connector-curvature="0"
       style="opacity:0.5;fill:none;stroke:#333333;stroke-width:2;stroke-linecap:round;stroke-linejoin:round;stroke-miterlimit:10" /></g><path
     class="st16"
     d="m 300.09076,140.91144 c 1.1,-5.6 6.1,-9.8 12,-9.8 5.9,0 10.9,4.2 12,9.8"
     id="path390"
     inkscape:connector-curvature="0"
     style="fill:none;stroke:#333333;stroke-width:4;stroke-linecap:round;stroke-linejoin:round;stroke-miterlimit:10" /><path
     class="st16"
     d="m 126.09076,140.91144 v -4 c 0,-2.2 1.8,-4 4,-4 h 72 c 2.2,0 4,1.8 4,4 v 4"
     id="path392"
     inkscape:connector-curvature="0"
     style="fill:none;stroke:#333333;stroke-width:4;stroke-linecap:round;stroke-linejoin:round;stroke-miterlimit:10" /><path
     style="fill:none;stroke:#333333;stroke-width:4;stroke-linecap:round;stroke-linejoin:round;stroke-miterlimit:10"
     d="m 83.090759,290.91144 v -130"
     id="line404" /><path
     style="fill:none;stroke:#333333;stroke-width:4;stroke-linecap:round;stroke-linejoin:round;stroke-miterlimit:10"
     d="m 423.09073,290.91144 v -130"
     id="line406" /><path
     style="fill:none;stroke:#333333;stroke-width:4;stroke-linecap:round;stroke-linejoin:round;stroke-miterlimit:10"
     d="m 435.09073,167.71146 h -12"
     id="line408" /><path
     style="fill:none;stroke:#333333;stroke-width:4;stroke-linecap:round;stroke-linejoin:round;stroke-miterlimit:10"
     d="m 435.09073,290.91144 v -130"
     id="line410" /><path
     style="fill:none;stroke:#333333;stroke-width:2;stroke-linecap:round;stroke-linejoin:round;stroke-miterlimit:10"
     d="m 76.090759,279.11145 v 14"
     id="line412" /><path
     style="fill:none;stroke:#333333;stroke-width:2;stroke-linejoin:round;stroke-miterlimit:10"
     d="m 364.09073,121.91144 h 12"
     id="line454" /><path
     style="fill:none;stroke:#333333;stroke-width:2;stroke-linejoin:round;stroke-miterlimit:10"
     d="m 366.09073,125.91144 h 8"
     id="line456" /><g
     id="g1867"
     transform="translate(5.3931873,67.414841)"><g
       id="g1872"
       transform="translate(5.5907582,8.496602)"><path
         style="fill:url(#linearGradient1858);fill-opacity:1;stroke:#333333;stroke-width:3.99999976;stroke-linecap:round;stroke-linejoin:round;stroke-miterlimit:10"
         inkscape:connector-curvature="0"
         id="path1850"
         d="M 401.18418,190.17555 H 83.029453 c -1.62024,0 -2.94588,-12.05266 -2.94588,-26.78371 v -26.7837 c 0,-14.73104 1.32564,-26.78371 2.94588,-26.78371 H 401.18418 c 1.62022,0 2.94587,12.05267 2.94587,26.78371 v 26.7837 c 0,14.73105 -1.32565,26.78371 -2.94587,26.78371 z"
         class="st16" /><path
         style="font-style:normal;font-variant:normal;font-weight:500;font-stretch:normal;font-size:46.10325623px;line-height:1.25;font-family:Raleway;-inkscape-font-specification:'Raleway, Medium';font-variant-ligatures:normal;font-variant-caps:normal;font-variant-numeric:normal;font-feature-settings:normal;text-align:center;letter-spacing:0px;word-spacing:0px;writing-mode:lr-tb;text-anchor:middle;fill:#ffffff;fill-opacity:1;stroke:none;stroke-width:0.99999994"
         d="M 323.99219 203.89648 L 323.99219 237.55273 L 328.04883 237.55273 L 328.04883 230.13086 L 332.6582 225.79688 L 340.95703 237.55273 L 345.33789 237.55273 L 335.28711 223.49023 L 344.87695 213.5332 L 340.4043 213.5332 L 328.04883 226.02734 L 328.04883 203.89648 L 323.99219 203.89648 z M 160.84375 204.81836 L 160.84375 237.55273 L 164.99414 237.55273 L 164.99414 212.24219 L 175.91992 231.65039 L 178.27148 231.65039 L 189.15234 212.24219 L 189.15234 237.55273 L 193.30078 237.55273 L 193.30078 204.81836 L 188.9668 204.81836 L 177.07227 226.07227 L 165.22461 204.81836 L 160.84375 204.81836 z M 231.53711 204.81836 L 245.18359 237.55273 L 248.78125 237.55273 L 255.32617 222.10742 L 261.82812 237.55273 L 265.42383 237.55273 L 279.11719 204.81836 L 274.59766 204.81836 L 263.5332 232.75781 L 257.9082 219.25 L 263.58008 205.00391 L 259.66016 205.00391 L 255.28125 216.39062 L 250.94727 205.00391 L 247.0293 205.00391 L 252.69922 219.25 L 247.12109 232.75781 L 236.00977 204.81836 L 231.53711 204.81836 z M 290.11133 213.07227 C 288.32867 213.07227 286.68377 213.40976 285.17773 214.08594 C 283.70243 214.76212 282.4273 215.66943 281.35156 216.80664 C 280.30655 217.94385 279.47603 219.26544 278.86133 220.77148 C 278.27735 222.27752 277.98633 223.87595 277.98633 225.56641 C 277.98633 227.22613 278.27735 228.80841 278.86133 230.31445 C 279.4453 231.82049 280.25968 233.14208 281.30469 234.2793 C 282.38043 235.41651 283.65556 236.32382 285.13086 237 C 286.6369 237.67618 288.29793 238.01367 290.11133 238.01367 C 291.92473 238.01367 293.56767 237.67618 295.04297 237 C 296.54901 236.32382 297.84027 235.41651 298.91602 234.2793 C 299.99176 233.14208 300.82228 231.82049 301.40625 230.31445 C 301.99022 228.80841 302.28125 227.22613 302.28125 225.56641 C 302.28125 223.87595 301.97408 222.27752 301.35938 220.77148 C 300.7754 219.26544 299.94684 217.94385 298.87109 216.80664 C 297.82609 215.66943 296.54901 214.76212 295.04297 214.08594 C 293.53693 213.40976 291.89399 213.07227 290.11133 213.07227 z M 318.63086 213.30273 C 317.09409 213.42568 315.64924 214.00968 314.29688 215.05469 C 312.94452 216.06896 311.8533 217.40474 311.02344 219.06445 L 311.02344 213.48633 L 307.24219 213.48633 L 307.24219 237.55273 L 311.30078 237.55273 L 311.30078 222.70703 C 311.94623 220.9551 313.03745 219.58705 314.57422 218.60352 C 316.14173 217.61998 317.93826 217.09858 319.9668 217.03711 L 319.9668 213.34766 C 319.81312 213.31692 319.62922 213.30273 319.41406 213.30273 L 318.63086 213.30273 z M 197.72852 213.48633 L 207.91797 237.55273 C 207.36474 238.96657 206.90398 240.10425 206.53516 240.96484 C 206.16633 241.85617 205.82689 242.5473 205.51953 243.03906 C 205.24292 243.53084 204.95189 243.85414 204.64453 244.00781 C 204.36791 244.19223 204.04461 244.2832 203.67578 244.2832 C 203.46063 244.2832 203.15347 244.26901 202.75391 244.23828 C 202.35435 244.20754 201.95425 244.16108 201.55469 244.09961 L 201.55469 247.69531 C 201.98499 247.78753 202.33861 247.84817 202.61523 247.87891 C 202.92259 247.90964 203.21557 247.92578 203.49219 247.92578 C 205.24411 247.92578 206.61217 247.5115 207.5957 246.68164 C 208.60998 245.88252 209.33143 244.94489 209.76172 243.86914 L 221.47266 213.48633 L 217.59961 213.48633 L 210.13086 233.91016 L 201.92383 213.48633 L 197.72852 213.48633 z M 290.11133 216.57617 C 291.21781 216.57617 292.24642 216.80655 293.19922 217.26758 C 294.18276 217.72861 295.0436 218.37326 295.78125 219.20312 C 296.5189 220.00225 297.08677 220.95603 297.48633 222.0625 C 297.91663 223.13825 298.13281 224.29011 298.13281 225.51953 C 298.13281 226.77968 297.91663 227.96383 297.48633 229.07031 C 297.08677 230.14605 296.5189 231.09787 295.78125 231.92773 C 295.0436 232.72685 294.18276 233.35733 293.19922 233.81836 C 292.24642 234.27939 291.21781 234.50977 290.11133 234.50977 C 289.00485 234.50977 287.95815 234.27939 286.97461 233.81836 C 286.02181 233.35733 285.17711 232.72685 284.43945 231.92773 C 283.73254 231.12861 283.16467 230.19098 282.73438 229.11523 C 282.33481 228.03949 282.13477 226.87149 282.13477 225.61133 C 282.13477 224.35117 282.33481 223.18316 282.73438 222.10742 C 283.16468 221.00094 283.73254 220.04913 284.43945 219.25 C 285.17711 218.42015 286.02181 217.77353 286.97461 217.3125 C 287.95815 216.82073 289.00485 216.57617 290.11133 216.57617 z "
         transform="translate(-10.983946,-75.911443)"
         id="path1890" /></g></g><path
     inkscape:connector-curvature="0"
     id="path1955"
     d="M 83.05302,293.11145 H 71.29961"
     style="fill:none;stroke:#333333;stroke-width:4;stroke-linecap:round;stroke-linejoin:round;stroke-miterlimit:10" /></svg>