<?xml version="1.0" encoding="UTF-8" standalone="no"?>
<svg
   xmlns:dc="http://purl.org/dc/elements/1.1/"
   xmlns:cc="http://creativecommons.org/ns#"
   xmlns:rdf="http://www.w3.org/1999/02/22-rdf-syntax-ns#"
   xmlns:svg="http://www.w3.org/2000/svg"
   xmlns="http://www.w3.org/2000/svg"
   xmlns:sodipodi="http://sodipodi.sourceforge.net/DTD/sodipodi-0.dtd"
   xmlns:inkscape="http://www.inkscape.org/namespaces/inkscape"
   data-name="Ebene 1"
   viewBox="0 0 800 800"
   version="1.1"
   id="svg15"
   sodipodi:docname="tv-2223047.svg"
   inkscape:version="0.92.2 (5c3e80d, 2017-08-06)">
  <metadata
     id="metadata19">
    <rdf:RDF>
      <cc:Work
         rdf:about="">
        <dc:format>image/svg+xml</dc:format>
        <dc:type
           rdf:resource="http://purl.org/dc/dcmitype/StillImage" />
      </cc:Work>
    </rdf:RDF>
  </metadata>
  <sodipodi:namedview
     pagecolor="#ffffff"
     bordercolor="#666666"
     borderopacity="1"
     objecttolerance="10"
     gridtolerance="10"
     guidetolerance="10"
     inkscape:pageopacity="0"
     inkscape:pageshadow="2"
     inkscape:window-width="1366"
     inkscape:window-height="745"
     id="namedview17"
     showgrid="false"
     inkscape:snap-nodes="true"
     inkscape:zoom="0.59"
     inkscape:cx="334.09287"
     inkscape:cy="424.05239"
     inkscape:window-x="-8"
     inkscape:window-y="-8"
     inkscape:window-maximized="1"
     inkscape:current-layer="svg15" />
  <defs
     id="defs7">
    <linearGradient
       id="a"
       x1="387.26"
       x2="152.36"
       y1="376.95"
       y2="611.86"
       gradientUnits="userSpaceOnUse">
      <stop
         offset="0"
         id="stop2" />
      <stop
         stop-opacity="0"
         offset="1"
         id="stop4" />
    </linearGradient>
  </defs>
  <circle
     cx="400"
     cy="400"
     r="400"
     id="circle9"
     style="fill:#2b56cc;fill-opacity:1"
     fill="#1c8adb" />
  <path
     d="m300.44 793.53l306.93-306.93v-244.76h-414.75l-191.93 191.93c20.276 188.65 126.54 303.09 299.74 359.76z"
     id="path11"
     fill="url(#a)"
     opacity=".42" />
  <path
     d="m607.38 486.59v-244.76h-414.75v244.76h184.48v53.573h-43.438v18h132.67v-18h-43.438v-53.573zm-395.15-228h375v210.94h-375z"
     fill="#fff"
     id="path13" />
  <path
     id="path836"
     d="m 472.32371,324.42388 c -19.78459,0.12464 -38.85026,5.95491 -58.26958,8.28609 -8.10493,0.97303 -16.4585,1.21174 -24.57714,0.30689 -10.79427,-1.20299 -21.24485,-4.39885 -32.03208,-5.83103 -9.63992,-1.27994 -19.40146,-2.61617 -29.1024,-2.66999 -16.95247,-0.0941 -33.34914,4.90968 -49.96787,7.61123 0,4.58364 -0.98737,10.46648 1.49741,13.68753 2.5629,3.32256 6.88626,6.36133 8.00781,10.86419 2.65966,10.67817 6.43547,21.14589 11.26331,31.18068 2.34616,4.87653 6.7746,8.27656 11.71909,10.6185 11.90711,5.63966 26.00007,6.46906 39.0636,4.69551 18.60243,-2.52564 28.69438,-15.6848 36.39421,-30.72041 2.88209,-6.11194 3.20353,-13.16554 6.99873,-18.75133 2.25428,-3.31775 7.48937,-1.92128 11.23053,-1.93343 3.74141,-0.0122 6.91198,5.85426 8.07297,9.75929 4.10923,13.8197 10.96073,28.48162 24.57759,35.72289 20.33414,10.81324 52.36705,8.7907 65.56259,-10.71047 5.16324,-7.63195 6.58947,-16.89285 9.18001,-25.53399 1.57707,-5.26059 2.98562,-11.53202 8.5939,-14.42414 2.26338,-1.1672 0.67506,-5.82483 1.00911,-8.53176 0.36399,-2.94991 1.06586,-5.55844 -3.38551,-6.13803 -7.76457,-1.01072 -15.29628,-4.0848 -23.24265,-5.1251 -7.53047,-0.98592 -14.90901,-2.41151 -22.59181,-2.36312 z m -130.79728,4.9105 c 5.61609,-0.0336 11.2081,0.35385 16.66689,1.44242 32.52352,6.48561 33.18143,19.11837 19.79205,45.23567 -10.91008,21.28219 -33.5106,26.61444 -56.28545,21.51337 -10.49791,-2.35144 -17.67597,-9.26009 -21.06181,-18.72069 -3.57313,-9.98505 -6.27609,-20.59404 -5.66425,-31.0887 0.81938,-14.05376 17.68053,-16.02864 29.75326,-17.30878 5.53971,-0.58746 11.18113,-1.04048 16.79723,-1.07416 z m 118.75152,0 c 5.61609,0.0337 11.2575,0.48669 16.79723,1.07416 12.07273,1.28013 28.93387,3.25523 29.75325,17.30878 0.61188,10.49465 -2.09098,21.10364 -5.66425,31.08872 -3.38555,9.46059 -10.56389,16.36919 -21.0618,18.72066 -22.77318,5.10108 -45.37289,-0.23124 -56.28546,-21.51336 -13.38938,-26.11812 -12.73147,-38.75088 19.79207,-45.23567 5.45878,-1.08857 11.05121,-1.47605 16.66689,-1.44242 z"
     inkscape:connector-curvature="0"
     style="fill:#ffffff;stroke:none;stroke-width:0.69999999;stroke-miterlimit:4;stroke-dasharray:none" />
</svg>
