<?xml version="1.0" encoding="UTF-8" standalone="no"?>
<!-- Generator: Adobe Illustrator 21.0.0, SVG Export Plug-In . SVG Version: 6.00 Build 0)  -->

<svg
   xmlns:dc="http://purl.org/dc/elements/1.1/"
   xmlns:cc="http://creativecommons.org/ns#"
   xmlns:rdf="http://www.w3.org/1999/02/22-rdf-syntax-ns#"
   xmlns:svg="http://www.w3.org/2000/svg"
   xmlns="http://www.w3.org/2000/svg"
   xmlns:sodipodi="http://sodipodi.sourceforge.net/DTD/sodipodi-0.dtd"
   xmlns:inkscape="http://www.inkscape.org/namespaces/inkscape"
   version="1.1"
   x="0px"
   y="0px"
   viewBox="0 0 800 500"
   xml:space="preserve"
   id="svg1657"
   sodipodi:docname="workspace-2.svg"
   inkscape:version="0.92.2 (5c3e80d, 2017-08-06)"
   width="800"
   height="500"><metadata
     id="metadata1663"><rdf:RDF><cc:Work
         rdf:about=""><dc:format>image/svg+xml</dc:format><dc:type
           rdf:resource="http://purl.org/dc/dcmitype/StillImage" /><dc:title></dc:title></cc:Work></rdf:RDF></metadata><defs
     id="defs1661" /><sodipodi:namedview
     pagecolor="#ffffff"
     bordercolor="#666666"
     borderopacity="1"
     objecttolerance="10"
     gridtolerance="10"
     guidetolerance="10"
     inkscape:pageopacity="0"
     inkscape:pageshadow="2"
     inkscape:window-width="1366"
     inkscape:window-height="745"
     id="namedview1659"
     showgrid="false"
     inkscape:zoom="0.86"
     inkscape:cx="429.06975"
     inkscape:cy="300"
     inkscape:window-x="-8"
     inkscape:window-y="-8"
     inkscape:window-maximized="1"
     inkscape:current-layer="g1492"
     inkscape:snap-nodes="false" /><style
     type="text/css"
     id="style1240">
	.st0{fill:#FCFCFC;}
	.st1{fill:none;stroke:#EFEFEF;stroke-width:3;stroke-linecap:round;stroke-linejoin:round;stroke-miterlimit:10;}
	.st2{fill:#F7F7F7;}
	.st3{fill:#EFEFEF;}
	.st4{fill:#FFFFFF;}
	.st5{fill:none;stroke:#E8E8E8;stroke-width:1.5;stroke-linecap:round;stroke-linejoin:round;stroke-miterlimit:10;}
	.st6{fill:none;stroke:#E8E8E8;stroke-width:3;stroke-linecap:round;stroke-linejoin:round;stroke-miterlimit:10;}
	.st7{fill:#775B44;}
	.st8{fill:#DE5B5D;}
	.st9{fill:#DDDDDD;}
	.st10{fill:#444444;}
	.st11{opacity:0.5;fill:#FFFFFF;}
	.st12{opacity:0.25;}
	.st13{opacity:0.25;fill:#FFFFFF;}
	.st14{opacity:0.15;fill:#FFFFFF;}
	.st15{fill:none;stroke:#333333;stroke-width:4;stroke-linecap:round;stroke-linejoin:round;stroke-miterlimit:10;}
	.st16{opacity:0.5;fill:none;stroke:#333333;stroke-width:2;stroke-linecap:round;stroke-linejoin:round;stroke-miterlimit:10;}
	.st17{fill:none;stroke:#333333;stroke-width:2;stroke-linecap:round;stroke-linejoin:round;stroke-miterlimit:10;}
	.st18{fill:#8DBF75;}
	.st19{opacity:0.1;}
</style><g
     id="table_1_"
     transform="translate(0,-100)"><g
       id="g1492"
       transform="translate(-58.810579,40.698071)"><g
         id="g1414"><g
           id="window_1_"><g
             id="color_1_"><g
               id="XMLID_3_"><g
                 id="g1258"><polygon
                   class="st0"
                   points="426.2,324.4 529.8,324.4 534.1,324.4 534.1,335.2 314.1,335.2 314.1,324.4 318.4,324.4 421.9,324.4 "
                   id="polygon1242"
                   style="fill:#fcfcfc" /><path
                   class="st0"
                   d="M 529.8,108.7 V 324.4 H 426.2 V 108.7 Z m -8.7,207.1 v -96 -102.5 h -86.3 v 102.5 96 z"
                   id="path1244"
                   inkscape:connector-curvature="0"
                   style="fill:#fcfcfc" /><polygon
                   class="st0"
                   points="474.8,309.3 474.8,219.8 481.2,219.8 481.2,309.3 514.7,309.3 514.7,219.8 521.1,219.8 521.1,315.8 434.9,315.8 434.9,219.8 441.3,219.8 441.3,309.3 "
                   id="polygon1246"
                   style="fill:#fcfcfc" /><path
                   class="st0"
                   d="m 521.1,117.3 v 102.5 h -6.5 -33.4 -6.5 -33.4 -6.5 V 117.3 Z m -6.4,96 v -89.5 h -33.4 v 89.5 z m -39.9,0 v -89.5 h -33.4 v 89.5 z"
                   id="path1248"
                   inkscape:connector-curvature="0"
                   style="fill:#fcfcfc" /><polygon
                   class="st0"
                   points="421.9,324.4 421.9,108.7 426.2,108.7 426.2,324.4 "
                   id="polygon1250"
                   style="fill:#fcfcfc" /><path
                   class="st0"
                   d="M 421.9,108.7 V 324.4 H 318.4 V 108.7 Z m -8.6,207.1 v -96 -102.5 H 327 v 102.5 96 z"
                   id="path1252"
                   inkscape:connector-curvature="0"
                   style="fill:#fcfcfc" /><polygon
                   class="st0"
                   points="366.9,309.3 366.9,219.8 373.4,219.8 373.4,309.3 406.8,309.3 406.8,219.8 413.3,219.8 413.3,315.8 327,315.8 327,219.8 333.5,219.8 333.5,309.3 "
                   id="polygon1254"
                   style="fill:#fcfcfc" /><path
                   class="st0"
                   d="m 413.3,117.3 v 102.5 h -6.5 -33.4 -6.5 -33.4 -6.5 V 117.3 Z m -6.5,96 v -89.5 h -33.4 v 89.5 z m -39.9,0 v -89.5 h -33.4 v 89.5 z"
                   id="path1256"
                   inkscape:connector-curvature="0"
                   style="fill:#fcfcfc" /></g><g
                 id="g1260" /></g></g><g
             id="lines_1_"><rect
               x="314.10001"
               y="324.39999"
               class="st1"
               width="220"
               height="10.8"
               id="rect1264"
               style="fill:none;stroke:#efefef;stroke-width:3;stroke-linecap:round;stroke-linejoin:round;stroke-miterlimit:10" /><polyline
               class="st1"
               points="529.8,108.7 529.8,324.4 318.4,324.4 318.4,108.7 529.8,108.7   "
               id="polyline1266"
               style="fill:none;stroke:#efefef;stroke-width:3;stroke-linecap:round;stroke-linejoin:round;stroke-miterlimit:10" /><line
               class="st1"
               x1="427.20001"
               y1="108.7"
               x2="427.20001"
               y2="324.39999"
               id="line1268"
               style="fill:none;stroke:#efefef;stroke-width:3;stroke-linecap:round;stroke-linejoin:round;stroke-miterlimit:10" /><line
               class="st1"
               x1="420.89999"
               y1="324.39999"
               x2="420.89999"
               y2="108.7"
               id="line1270"
               style="fill:none;stroke:#efefef;stroke-width:3;stroke-linecap:round;stroke-linejoin:round;stroke-miterlimit:10" /><rect
               x="327"
               y="117.3"
               class="st1"
               width="86.300003"
               height="198.39999"
               id="rect1272"
               style="fill:none;stroke:#efefef;stroke-width:3;stroke-linecap:round;stroke-linejoin:round;stroke-miterlimit:10" /><line
               class="st1"
               x1="406.79999"
               y1="213.3"
               x2="373.39999"
               y2="213.3"
               id="line1274"
               style="fill:none;stroke:#efefef;stroke-width:3;stroke-linecap:round;stroke-linejoin:round;stroke-miterlimit:10" /><line
               class="st1"
               x1="366.89999"
               y1="213.3"
               x2="333.5"
               y2="213.3"
               id="line1276"
               style="fill:none;stroke:#efefef;stroke-width:3;stroke-linecap:round;stroke-linejoin:round;stroke-miterlimit:10" /><line
               class="st1"
               x1="327"
               y1="219.8"
               x2="413.29999"
               y2="219.8"
               id="line1278"
               style="fill:none;stroke:#efefef;stroke-width:3;stroke-linecap:round;stroke-linejoin:round;stroke-miterlimit:10" /><line
               class="st1"
               x1="366.89999"
               y1="309.29999"
               x2="366.89999"
               y2="219.8"
               id="line1280"
               style="fill:none;stroke:#efefef;stroke-width:3;stroke-linecap:round;stroke-linejoin:round;stroke-miterlimit:10" /><line
               class="st1"
               x1="366.89999"
               y1="213.3"
               x2="366.89999"
               y2="123.8"
               id="line1282"
               style="fill:none;stroke:#efefef;stroke-width:3;stroke-linecap:round;stroke-linejoin:round;stroke-miterlimit:10" /><line
               class="st1"
               x1="373.39999"
               y1="309.29999"
               x2="373.39999"
               y2="219.8"
               id="line1284"
               style="fill:none;stroke:#efefef;stroke-width:3;stroke-linecap:round;stroke-linejoin:round;stroke-miterlimit:10" /><line
               class="st1"
               x1="373.39999"
               y1="213.3"
               x2="373.39999"
               y2="123.8"
               id="line1286"
               style="fill:none;stroke:#efefef;stroke-width:3;stroke-linecap:round;stroke-linejoin:round;stroke-miterlimit:10" /><polyline
               class="st1"
               points="373.4,123.8 406.8,123.8 406.8,213.3   "
               id="polyline1288"
               style="fill:none;stroke:#efefef;stroke-width:3;stroke-linecap:round;stroke-linejoin:round;stroke-miterlimit:10" /><polyline
               class="st1"
               points="333.5,213.3 333.5,123.8 366.9,123.8   "
               id="polyline1290"
               style="fill:none;stroke:#efefef;stroke-width:3;stroke-linecap:round;stroke-linejoin:round;stroke-miterlimit:10" /><polyline
               class="st1"
               points="333.5,219.8 333.5,309.3 366.9,309.3   "
               id="polyline1292"
               style="fill:none;stroke:#efefef;stroke-width:3;stroke-linecap:round;stroke-linejoin:round;stroke-miterlimit:10" /><polyline
               class="st1"
               points="406.8,219.8 406.8,309.3 373.4,309.3   "
               id="polyline1294"
               style="fill:none;stroke:#efefef;stroke-width:3;stroke-linecap:round;stroke-linejoin:round;stroke-miterlimit:10" /><rect
               x="434.89999"
               y="117.3"
               class="st1"
               width="86.300003"
               height="198.39999"
               id="rect1296"
               style="fill:none;stroke:#efefef;stroke-width:3;stroke-linecap:round;stroke-linejoin:round;stroke-miterlimit:10" /><line
               class="st1"
               x1="514.70001"
               y1="213.3"
               x2="481.20001"
               y2="213.3"
               id="line1298"
               style="fill:none;stroke:#efefef;stroke-width:3;stroke-linecap:round;stroke-linejoin:round;stroke-miterlimit:10" /><line
               class="st1"
               x1="474.79999"
               y1="213.3"
               x2="441.29999"
               y2="213.3"
               id="line1300"
               style="fill:none;stroke:#efefef;stroke-width:3;stroke-linecap:round;stroke-linejoin:round;stroke-miterlimit:10" /><line
               class="st1"
               x1="434.89999"
               y1="219.8"
               x2="521.09998"
               y2="219.8"
               id="line1302"
               style="fill:none;stroke:#efefef;stroke-width:3;stroke-linecap:round;stroke-linejoin:round;stroke-miterlimit:10" /><line
               class="st1"
               x1="474.79999"
               y1="309.29999"
               x2="474.79999"
               y2="219.8"
               id="line1304"
               style="fill:none;stroke:#efefef;stroke-width:3;stroke-linecap:round;stroke-linejoin:round;stroke-miterlimit:10" /><line
               class="st1"
               x1="474.79999"
               y1="213.3"
               x2="474.79999"
               y2="123.8"
               id="line1306"
               style="fill:none;stroke:#efefef;stroke-width:3;stroke-linecap:round;stroke-linejoin:round;stroke-miterlimit:10" /><line
               class="st1"
               x1="481.20001"
               y1="309.29999"
               x2="481.20001"
               y2="219.8"
               id="line1308"
               style="fill:none;stroke:#efefef;stroke-width:3;stroke-linecap:round;stroke-linejoin:round;stroke-miterlimit:10" /><line
               class="st1"
               x1="481.20001"
               y1="213.3"
               x2="481.20001"
               y2="123.8"
               id="line1310"
               style="fill:none;stroke:#efefef;stroke-width:3;stroke-linecap:round;stroke-linejoin:round;stroke-miterlimit:10" /><polyline
               class="st1"
               points="481.2,123.8 514.7,123.8 514.7,213.3   "
               id="polyline1312"
               style="fill:none;stroke:#efefef;stroke-width:3;stroke-linecap:round;stroke-linejoin:round;stroke-miterlimit:10" /><polyline
               class="st1"
               points="441.3,213.3 441.3,123.8 474.8,123.8   "
               id="polyline1314"
               style="fill:none;stroke:#efefef;stroke-width:3;stroke-linecap:round;stroke-linejoin:round;stroke-miterlimit:10" /><polyline
               class="st1"
               points="441.3,219.8 441.3,309.3 474.8,309.3   "
               id="polyline1316"
               style="fill:none;stroke:#efefef;stroke-width:3;stroke-linecap:round;stroke-linejoin:round;stroke-miterlimit:10" /><polyline
               class="st1"
               points="514.7,219.8 514.7,309.3 481.2,309.3   "
               id="polyline1318"
               style="fill:none;stroke:#efefef;stroke-width:3;stroke-linecap:round;stroke-linejoin:round;stroke-miterlimit:10" /></g></g><g
           id="bush"><g
             id="color_4_"><g
               id="XMLID_31_"><g
                 id="g1338"><path
                   class="st2"
                   d="m 644.5,402.9 v 0.1 c -21.1,4.5 -30.8,38 -40.3,52.3 h -4.3 c 2.9,-6 4.6,-13 5.7,-20.7 1.5,-4.1 3.3,-7.7 5.4,-10.9 8.7,-13.5 21.8,-19.5 33.5,-20.8 z"
                   id="path1322"
                   inkscape:connector-curvature="0"
                   style="fill:#f7f7f7" /><polygon
                   class="st2"
                   points="587.2,455.4 591.9,455.4 595,455.4 599.9,455.4 604.2,455.4 630.9,455.4 630.9,464.3 627.9,464.3 562.2,464.3 559.2,464.3 559.2,455.4 "
                   id="polygon1324"
                   style="fill:#f7f7f7" /><path
                   class="st2"
                   d="m 630.8,353.9 0.1,0.1 c -9.2,13.2 -21.8,46.7 -19.9,69.8 v 0 c -2.1,3.2 -3.9,6.8 -5.4,10.9 1,-7.4 1.4,-15.4 1.7,-24.1 h 0.2 c 1.5,-24.5 14.9,-46.6 23.3,-56.7 z"
                   id="path1326"
                   inkscape:connector-curvature="0"
                   style="fill:#f7f7f7" /><polygon
                   class="st2"
                   points="568.7,503.8 562.2,464.3 627.9,464.3 621.3,503.8 "
                   id="polygon1328"
                   style="fill:#f7f7f7" /><polygon
                   class="st2"
                   points="569.6,509.2 568.7,503.8 621.3,503.8 620.4,509.2 "
                   id="polygon1330"
                   style="fill:#f7f7f7" /><path
                   class="st2"
                   d="m 595,384.6 c 2.6,-31.8 21,-67.5 29.6,-80.3 -17.1,39.1 -16.4,76.2 -17.3,106.3 -0.3,8.6 -0.7,16.7 -1.7,24.1 -1.1,7.7 -2.8,14.7 -5.7,20.7 H 595 c 1.3,-11.4 2,-39.7 0,-70.8 0,0.1 0,0.1 0,0 z"
                   id="path1332"
                   inkscape:connector-curvature="0"
                   style="fill:#f7f7f7" /><path
                   class="st2"
                   d="m 595,384.7 c 2,31 1.3,59.3 0,70.7 h -3.1 C 586,442 584,418.2 582.7,392.3 c 0,0 0,-0.1 0,-0.1 -2.1,-41.4 -2.1,-88.4 -12.1,-108.2 15.2,19.9 21.9,62.4 24.4,100.7 0,0 0,0 0,0 z"
                   id="path1334"
                   inkscape:connector-curvature="0"
                   style="fill:#f7f7f7" /><path
                   class="st2"
                   d="m 591.9,455.4 h -4.7 c -28,-32.1 -2,-77 -29,-143.9 12.6,17.8 21.8,49.2 24.5,80.6 0,0 0,0.1 0,0.1 1.3,26 3.4,49.8 9.2,63.2 z"
                   id="path1336"
                   inkscape:connector-curvature="0"
                   style="fill:#f7f7f7" /></g><g
                 id="g1340" /></g></g><g
             id="shadow_1_"><g
               id="g1352"><rect
                 x="562.70001"
                 y="464.39999"
                 class="st3"
                 width="64.5"
                 height="4.3000002"
                 id="rect1344"
                 style="fill:#efefef" /><path
                 class="st3"
                 d="m 621.4,372.3 1.3,-5.9 c -6.7,8.2 -14,29.1 -15.3,40 l -0.7,24.9 4.8,-8.3 c -3.8,-15.6 9.9,-50.7 9.9,-50.7 z"
                 id="path1346"
                 inkscape:connector-curvature="0"
                 style="fill:#efefef" /><path
                 class="st3"
                 d="m 591.7,455.5 c -1.4,-3.1 -2.9,-9.3 -4.1,-14.7 1.9,7.8 4.1,14.7 4.1,14.7 h 3.2 c 1.3,-4.5 1.3,-32.2 1.3,-32.2 -2.6,18.6 -10.3,7.2 -11.3,0 -0.1,2.2 0.3,5.1 0.8,8.3 -2.9,13 -10,1.5 -12.5,-18.4 -1.4,26.5 13.9,42.2 13.9,42.2 h 4.6 z"
                 id="path1348"
                 inkscape:connector-curvature="0"
                 style="fill:#efefef" /><path
                 class="st3"
                 d="m 599.3,455.5 4.8,-0.1 9.9,-18.4 c -2.5,4.9 -7.9,6 -9.9,5 v 0 c 1.4,-6.6 1.4,-11.9 1.4,-11.9 -0.8,8.7 -8.4,12.3 -9.2,7.5 l -0.1,17.9 z"
                 id="path1350"
                 inkscape:connector-curvature="0"
                 style="fill:#efefef" /></g><g
               id="g1366"><polygon
                 class="st4"
                 points="630.9,455.4 559.2,455.4 559.2,458.5 567.5,458.5 567.5,464 587.5,464.4 587.4,458.5 630.9,458.5 "
                 id="polygon1354"
                 style="fill:#ffffff" /><polygon
                 class="st4"
                 points="590.3,509.2 589.4,464.4 587.5,464.4 569.6,464.4 576.6,509.2 "
                 id="polygon1356"
                 style="fill:#ffffff" /><path
                 class="st4"
                 d="m 572.1,393.5 0.9,25.7 c 1.7,-4.4 1.5,-24.7 4.6,-25.7 2.8,-0.9 5.5,10.2 5.5,10.2 L 581,378.2 c -5.6,21.1 -9.6,-7.4 -10.7,-16.8 l 1.6,20 z"
                 id="path1358"
                 inkscape:connector-curvature="0"
                 style="fill:#ffffff" /><path
                 class="st4"
                 d="m 591.7,346.9 c -7.8,-48.3 -21.3,-63.3 -21.3,-63.3 11,20.1 12.7,112.3 12.7,112.3 5.4,-30 0.8,-62.9 8.6,-49 z"
                 id="path1360"
                 inkscape:connector-curvature="0"
                 style="fill:#ffffff" /><path
                 class="st4"
                 d="m 619.9,313.2 c -5,5.4 -29,55.5 -24.4,80.4 4.6,24.9 -1.9,-26.8 24.4,-80.4 z"
                 id="path1362"
                 inkscape:connector-curvature="0"
                 style="fill:#ffffff" /><path
                 class="st4"
                 d="m 605.6,439.2 c 2,-5.6 15.6,-30 21.4,-24 l 12.8,-11.5 c 0.1,0 -30.4,6.7 -34.2,35.5 z"
                 id="path1364"
                 inkscape:connector-curvature="0"
                 style="fill:#ffffff" /></g></g><g
             id="lines_8_"><g
               id="g1441"><path
                 class="st5"
                 d="m 558.2,311.5 c 29,52.9 9.7,112.3 31.5,143.9"
                 id="path1369"
                 inkscape:connector-curvature="0"
                 style="fill:none;stroke:#e8e8e8;stroke-width:1.5;stroke-linecap:round;stroke-linejoin:round;stroke-miterlimit:10" /><path
                 class="st5"
                 d="m 644.5,403.1 c -30.9,9.3 -27.3,26.1 -43.5,52.3"
                 id="path1371"
                 inkscape:connector-curvature="0"
                 style="fill:none;stroke:#e8e8e8;stroke-width:1.5;stroke-linecap:round;stroke-linejoin:round;stroke-miterlimit:10" /><path
                 class="st5"
                 d="M 593.5,455.4 C 590.3,439.1 589.6,318.5 572.7,286.9"
                 id="path1373"
                 inkscape:connector-curvature="0"
                 style="fill:none;stroke:#e8e8e8;stroke-width:1.5;stroke-linecap:round;stroke-linejoin:round;stroke-miterlimit:10" /><path
                 class="st5"
                 d="m 597.5,455.4 c 14.7,-46.9 -7,-81.5 25.1,-147.9"
                 id="path1375"
                 inkscape:connector-curvature="0"
                 style="fill:none;stroke:#e8e8e8;stroke-width:1.5;stroke-linecap:round;stroke-linejoin:round;stroke-miterlimit:10" /><path
                 class="st5"
                 d="m 592.2,441.7 c -0.4,-6.7 4.1,-20.8 4.1,-20.8"
                 id="path1377"
                 inkscape:connector-curvature="0"
                 style="fill:none;stroke:#e8e8e8;stroke-width:1.5;stroke-linecap:round;stroke-linejoin:round;stroke-miterlimit:10" /><path
                 class="st5"
                 d="m 591.2,424.7 c -0.5,-9 -7.5,-15.7 -7.5,-15.7"
                 id="path1379"
                 inkscape:connector-curvature="0"
                 style="fill:none;stroke:#e8e8e8;stroke-width:1.5;stroke-linecap:round;stroke-linejoin:round;stroke-miterlimit:10" /><path
                 class="st5"
                 d="m 590.3,409 c -0.3,-5.4 5.1,-16.8 5.1,-16.8"
                 id="path1381"
                 inkscape:connector-curvature="0"
                 style="fill:none;stroke:#e8e8e8;stroke-width:1.5;stroke-linecap:round;stroke-linejoin:round;stroke-miterlimit:10" /><path
                 class="st5"
                 d="m 589.4,393.5 c -0.4,-6.6 -7.3,-15.1 -7.3,-15.1"
                 id="path1383"
                 inkscape:connector-curvature="0"
                 style="fill:none;stroke:#e8e8e8;stroke-width:1.5;stroke-linecap:round;stroke-linejoin:round;stroke-miterlimit:10" /><path
                 class="st5"
                 d="m 588.2,375.8 c -0.5,-6.9 4.7,-15.2 4.7,-15.2"
                 id="path1385"
                 inkscape:connector-curvature="0"
                 style="fill:none;stroke:#e8e8e8;stroke-width:1.5;stroke-linecap:round;stroke-linejoin:round;stroke-miterlimit:10" /><path
                 class="st5"
                 d="m 586.9,360.6 c -0.6,-6.1 -6,-9.6 -6,-9.6"
                 id="path1387"
                 inkscape:connector-curvature="0"
                 style="fill:none;stroke:#e8e8e8;stroke-width:1.5;stroke-linecap:round;stroke-linejoin:round;stroke-miterlimit:10" /><path
                 class="st5"
                 d="m 592.6,447.5 c -0.4,-4.7 -6.1,-12.8 -6.1,-12.8"
                 id="path1389"
                 inkscape:connector-curvature="0"
                 style="fill:none;stroke:#e8e8e8;stroke-width:1.5;stroke-linecap:round;stroke-linejoin:round;stroke-miterlimit:10" /><path
                 class="st5"
                 d="m 585.7,348.3 c -0.8,-5.9 2.7,-16.5 2.7,-16.5"
                 id="path1391"
                 inkscape:connector-curvature="0"
                 style="fill:none;stroke:#e8e8e8;stroke-width:1.5;stroke-linecap:round;stroke-linejoin:round;stroke-miterlimit:10" /><path
                 class="st5"
                 d="m 583.7,330.6 c -0.8,-4.3 -4.9,-9.3 -4.9,-9.3"
                 id="path1393"
                 inkscape:connector-curvature="0"
                 style="fill:none;stroke:#e8e8e8;stroke-width:1.5;stroke-linecap:round;stroke-linejoin:round;stroke-miterlimit:10" /><path
                 class="st5"
                 d="m 582.3,439.2 c -1.6,-6.6 2.6,-17.1 2.6,-17.1"
                 id="path1395"
                 inkscape:connector-curvature="0"
                 style="fill:none;stroke:#e8e8e8;stroke-width:1.5;stroke-linecap:round;stroke-linejoin:round;stroke-miterlimit:10" /><path
                 class="st5"
                 d="m 580,429.2 c -0.9,-6.3 -6.9,-11.8 -6.9,-11.8"
                 id="path1397"
                 inkscape:connector-curvature="0"
                 style="fill:none;stroke:#e8e8e8;stroke-width:1.5;stroke-linecap:round;stroke-linejoin:round;stroke-miterlimit:10" /><path
                 class="st5"
                 d="m 584.9,446.5 c -1.6,-4.3 -6.6,-5.5 -6.6,-5.5"
                 id="path1399"
                 inkscape:connector-curvature="0"
                 style="fill:none;stroke:#e8e8e8;stroke-width:1.5;stroke-linecap:round;stroke-linejoin:round;stroke-miterlimit:10" /><path
                 class="st5"
                 d="m 577.9,411.4 c -0.3,-3.9 4.2,-14.2 5,-15.5"
                 id="path1401"
                 inkscape:connector-curvature="0"
                 style="fill:none;stroke:#e8e8e8;stroke-width:1.5;stroke-linecap:round;stroke-linejoin:round;stroke-miterlimit:10" /><path
                 class="st5"
                 d="m 577,396.7 c -0.3,-5.4 -4.8,-9.4 -4.8,-9.4"
                 id="path1403"
                 inkscape:connector-curvature="0"
                 style="fill:none;stroke:#e8e8e8;stroke-width:1.5;stroke-linecap:round;stroke-linejoin:round;stroke-miterlimit:10" /><path
                 class="st5"
                 d="m 575.9,379.9 c -0.3,-4.1 3.5,-11.7 3.5,-11.7"
                 id="path1405"
                 inkscape:connector-curvature="0"
                 style="fill:none;stroke:#e8e8e8;stroke-width:1.5;stroke-linecap:round;stroke-linejoin:round;stroke-miterlimit:10" /><path
                 class="st5"
                 d="m 574.5,366.4 c -0.5,-4.1 -4.2,-7 -4.2,-7"
                 id="path1407"
                 inkscape:connector-curvature="0"
                 style="fill:none;stroke:#e8e8e8;stroke-width:1.5;stroke-linecap:round;stroke-linejoin:round;stroke-miterlimit:10" /><path
                 class="st5"
                 d="m 573.1,356.5 c -0.7,-4.1 1.4,-8.2 1.4,-8.2"
                 id="path1409"
                 inkscape:connector-curvature="0"
                 style="fill:none;stroke:#e8e8e8;stroke-width:1.5;stroke-linecap:round;stroke-linejoin:round;stroke-miterlimit:10" /><path
                 class="st5"
                 d="m 599.7,447.5 c 1.1,-5.2 -3.5,-14.8 -3.5,-14.8"
                 id="path1411"
                 inkscape:connector-curvature="0"
                 style="fill:none;stroke:#e8e8e8;stroke-width:1.5;stroke-linecap:round;stroke-linejoin:round;stroke-miterlimit:10" /><path
                 class="st5"
                 d="m 601.8,436 c 0.5,-4.1 4.7,-10.2 4.7,-10.2"
                 id="path1413"
                 inkscape:connector-curvature="0"
                 style="fill:none;stroke:#e8e8e8;stroke-width:1.5;stroke-linecap:round;stroke-linejoin:round;stroke-miterlimit:10" /><path
                 class="st5"
                 d="m 603.1,423.4 c 0.2,-4.4 -5,-13.2 -6.9,-14.3"
                 id="path1415"
                 inkscape:connector-curvature="0"
                 style="fill:none;stroke:#e8e8e8;stroke-width:1.5;stroke-linecap:round;stroke-linejoin:round;stroke-miterlimit:10" /><path
                 class="st5"
                 d="m 603.4,411.4 c 0,-3.9 4,-10.8 4,-10.8"
                 id="path1417"
                 inkscape:connector-curvature="0"
                 style="fill:none;stroke:#e8e8e8;stroke-width:1.5;stroke-linecap:round;stroke-linejoin:round;stroke-miterlimit:10" /><path
                 class="st5"
                 d="m 603.4,399.9 c 0.1,-5 -6.4,-15.1 -8.3,-16.4"
                 id="path1419"
                 inkscape:connector-curvature="0"
                 style="fill:none;stroke:#e8e8e8;stroke-width:1.5;stroke-linecap:round;stroke-linejoin:round;stroke-miterlimit:10" /><path
                 class="st5"
                 d="m 603.4,388.1 c 0.3,-5 5,-11.4 5,-11.4"
                 id="path1421"
                 inkscape:connector-curvature="0"
                 style="fill:none;stroke:#e8e8e8;stroke-width:1.5;stroke-linecap:round;stroke-linejoin:round;stroke-miterlimit:10" /><path
                 class="st5"
                 d="m 604,376.7 c 0.4,-5 -2.6,-13.4 -4.7,-15.3"
                 id="path1423"
                 inkscape:connector-curvature="0"
                 style="fill:none;stroke:#e8e8e8;stroke-width:1.5;stroke-linecap:round;stroke-linejoin:round;stroke-miterlimit:10" /><path
                 class="st5"
                 d="m 605.2,364.6 c 0.4,-3 4.2,-8.7 5.4,-8.8"
                 id="path1425"
                 inkscape:connector-curvature="0"
                 style="fill:none;stroke:#e8e8e8;stroke-width:1.5;stroke-linecap:round;stroke-linejoin:round;stroke-miterlimit:10" /><path
                 class="st5"
                 d="m 607.1,352.4 c 0.6,-2.7 0.2,-10.3 -1.2,-11"
                 id="path1427"
                 inkscape:connector-curvature="0"
                 style="fill:none;stroke:#e8e8e8;stroke-width:1.5;stroke-linecap:round;stroke-linejoin:round;stroke-miterlimit:10" /><path
                 class="st5"
                 d="m 610.5,338.6 c 0.5,-1.8 3.8,-3.4 3.8,-3.4"
                 id="path1429"
                 inkscape:connector-curvature="0"
                 style="fill:none;stroke:#e8e8e8;stroke-width:1.5;stroke-linecap:round;stroke-linejoin:round;stroke-miterlimit:10" /><path
                 class="st5"
                 d="m 604.9,448.5 c 0.9,-1.8 5.6,-4.7 5.6,-4.7"
                 id="path1431"
                 inkscape:connector-curvature="0"
                 style="fill:none;stroke:#e8e8e8;stroke-width:1.5;stroke-linecap:round;stroke-linejoin:round;stroke-miterlimit:10" /><path
                 class="st5"
                 d="m 608.6,441.1 c 1,-2.3 1.5,-11.5 0,-13.3"
                 id="path1433"
                 inkscape:connector-curvature="0"
                 style="fill:none;stroke:#e8e8e8;stroke-width:1.5;stroke-linecap:round;stroke-linejoin:round;stroke-miterlimit:10" /><path
                 class="st5"
                 d="m 612.4,432.7 c 1.1,-2.5 5.9,-5.2 6.5,-5.3"
                 id="path1435"
                 inkscape:connector-curvature="0"
                 style="fill:none;stroke:#e8e8e8;stroke-width:1.5;stroke-linecap:round;stroke-linejoin:round;stroke-miterlimit:10" /><path
                 class="st5"
                 d="m 617,423.4 c 0.8,-1.4 1.1,-8.2 1.1,-8.2"
                 id="path1437"
                 inkscape:connector-curvature="0"
                 style="fill:none;stroke:#e8e8e8;stroke-width:1.5;stroke-linecap:round;stroke-linejoin:round;stroke-miterlimit:10" /><path
                 class="st5"
                 d="m 621.4,416.9 c 1.2,-1.3 6.5,-2.7 6.5,-2.7"
                 id="path1439"
                 inkscape:connector-curvature="0"
                 style="fill:none;stroke:#e8e8e8;stroke-width:1.5;stroke-linecap:round;stroke-linejoin:round;stroke-miterlimit:10" /></g><path
               class="st6"
               d="m 595,455.4 c 2.9,-26.1 3.1,-141.2 -26.7,-174.3"
               id="path1443"
               inkscape:connector-curvature="0"
               style="fill:none;stroke:#e8e8e8;stroke-width:3;stroke-linecap:round;stroke-linejoin:round;stroke-miterlimit:10" /><path
               class="st6"
               d="m 570.6,283.9 c 16.3,32.2 6.2,136.6 21.4,171.5"
               id="path1445"
               inkscape:connector-curvature="0"
               style="fill:none;stroke:#e8e8e8;stroke-width:3;stroke-linecap:round;stroke-linejoin:round;stroke-miterlimit:10" /><path
               class="st6"
               d="m 599.9,455.4 c 15.3,-31.7 -2.5,-88.9 24.7,-151.1"
               id="path1447"
               inkscape:connector-curvature="0"
               style="fill:none;stroke:#e8e8e8;stroke-width:3;stroke-linecap:round;stroke-linejoin:round;stroke-miterlimit:10" /><path
               class="st6"
               d="m 558.2,311.5 c 27,66.9 1,111.8 29,143.9"
               id="path1449"
               inkscape:connector-curvature="0"
               style="fill:none;stroke:#e8e8e8;stroke-width:3;stroke-linecap:round;stroke-linejoin:round;stroke-miterlimit:10" /><path
               class="st6"
               d="m 604.2,455.4 c 9.5,-14.3 19.3,-47.8 40.3,-52.3"
               id="path1451"
               inkscape:connector-curvature="0"
               style="fill:none;stroke:#e8e8e8;stroke-width:3;stroke-linecap:round;stroke-linejoin:round;stroke-miterlimit:10" /><path
               class="st6"
               d="m 654.7,403.1 c -15.9,-2.2 -39.2,4.9 -49.1,31.6"
               id="path1453"
               inkscape:connector-curvature="0"
               style="fill:none;stroke:#e8e8e8;stroke-width:3;stroke-linecap:round;stroke-linejoin:round;stroke-miterlimit:10" /><path
               class="st6"
               d="m 630.9,354 c -9.2,13.2 -21.8,46.7 -19.9,69.8"
               id="path1455"
               inkscape:connector-curvature="0"
               style="fill:none;stroke:#e8e8e8;stroke-width:3;stroke-linecap:round;stroke-linejoin:round;stroke-miterlimit:10" /><line
               class="st6"
               x1="560.70001"
               y1="509.20001"
               x2="624.90002"
               y2="509.20001"
               id="line1457"
               style="fill:none;stroke:#e8e8e8;stroke-width:3;stroke-linecap:round;stroke-linejoin:round;stroke-miterlimit:10" /><rect
               x="559.20001"
               y="455.39999"
               class="st6"
               width="71.699997"
               height="9"
               id="rect1459"
               style="fill:none;stroke:#e8e8e8;stroke-width:3;stroke-linecap:round;stroke-linejoin:round;stroke-miterlimit:10" /><line
               class="st6"
               x1="627.90002"
               y1="464.39999"
               x2="620.40002"
               y2="509.20001"
               id="line1461"
               style="fill:none;stroke:#e8e8e8;stroke-width:3;stroke-linecap:round;stroke-linejoin:round;stroke-miterlimit:10" /><line
               class="st6"
               x1="562.20001"
               y1="464.39999"
               x2="569.59998"
               y2="509.20001"
               id="line1463"
               style="fill:none;stroke:#e8e8e8;stroke-width:3;stroke-linecap:round;stroke-linejoin:round;stroke-miterlimit:10" /><path
               class="st6"
               d="m 595,384.7 c 3,-36.9 27.2,-79.1 32.9,-84.7"
               id="path1465"
               inkscape:connector-curvature="0"
               style="fill:none;stroke:#e8e8e8;stroke-width:3;stroke-linecap:round;stroke-linejoin:round;stroke-miterlimit:10" /><path
               class="st6"
               d="m 582.7,392.3 c -3,-34 -13.4,-68 -27.6,-84.8"
               id="path1467"
               inkscape:connector-curvature="0"
               style="fill:none;stroke:#e8e8e8;stroke-width:3;stroke-linecap:round;stroke-linejoin:round;stroke-miterlimit:10" /><path
               class="st6"
               d="m 634.5,349.9 c -7.3,6.9 -25.2,32.1 -27,60.7"
               id="path1469"
               inkscape:connector-curvature="0"
               style="fill:none;stroke:#e8e8e8;stroke-width:3;stroke-linecap:round;stroke-linejoin:round;stroke-miterlimit:10" /><line
               class="st6"
               x1="635.79999"
               y1="509.20001"
               x2="631.40002"
               y2="509.20001"
               id="line1471"
               style="fill:none;stroke:#e8e8e8;stroke-width:3;stroke-linecap:round;stroke-linejoin:round;stroke-miterlimit:10" /><line
               class="st5"
               x1="568.70001"
               y1="503.79999"
               x2="621.29999"
               y2="503.79999"
               id="line1473"
               style="fill:none;stroke:#e8e8e8;stroke-width:1.5;stroke-linecap:round;stroke-linejoin:round;stroke-miterlimit:10" /></g></g><g
           id="color"><g
             id="g1506"><g
               id="XMLID_4_"><g
                 id="g1501"><polygon
                   class="st7"
                   points="263.4,406 263.4,396 583.4,396 583.4,406 515.6,406 500.4,406 346.4,406 331.2,406 "
                   id="polygon1477"
                   style="fill:#775b44" /><path
                   class="st8"
                   d="m 544.7,377 v 2 c 0,0.1 0,0.3 0,0.4 -0.1,4.4 -2.1,8.3 -5.2,10.9 -0.7,0.6 -1.5,1.2 -2.3,1.6 v 2 h -15 v -2 c -4.5,-2.6 -7.5,-7.4 -7.5,-13 v -2 h 30 z"
                   id="path1479"
                   inkscape:connector-curvature="0"
                   style="fill:#de5b5d" /><path
                   class="st7"
                   d="M 521.9,509.4 H 510 c 0,0 -27.1,-47.9 -27.6,-61.7 v -0.6 c 0.2,-8 9.1,-25.4 17.9,-41.1 h 15.2 c -7.7,16.1 -15.8,34.7 -15.8,41.4 0.1,12.2 17.2,52.7 22.2,62 z"
                   id="path1481"
                   inkscape:connector-curvature="0"
                   style="fill:#775b44" /><path
                   class="st9"
                   d="m 503.9,387.9 v 3.4 c 0,0 -1.5,4.6 -14.9,4.6 H 358.8 c -13.4,0 -14.9,-4.6 -14.9,-4.6 v -3.4 h 12.4 136 z"
                   id="path1483"
                   inkscape:connector-curvature="0"
                   style="fill:#dddddd" /><path
                   class="st9"
                   d="M 492.3,302.2 V 388 h -136 v -85.8 c 0,-2.4 1.9,-4.2 4.2,-4.2 H 488 c 2.4,-0.1 4.3,1.8 4.3,4.2 z m -8,77.7 v -74 h -120 v 74 z"
                   id="path1485"
                   inkscape:connector-curvature="0"
                   style="fill:#dddddd" /><rect
                   x="364.29999"
                   y="305.89999"
                   class="st10"
                   width="120"
                   height="74"
                   id="rect1487"
                   style="fill:#444444" /><path
                   class="st7"
                   d="m 482.5,447.7 v 3.6 H 364.3 v -4 -6 h 118.2 v 5.8 c 0,0.1 0,0.2 0,0.3 0,0.1 0,0.2 0,0.3 z"
                   id="path1489"
                   inkscape:connector-curvature="0"
                   style="fill:#775b44" /><polygon
                   class="st9"
                   points="458,441.2 394,441.2 394,436.2 452,436.2 458,436.2 "
                   id="polygon1491"
                   style="fill:#dddddd" /><path
                   class="st9"
                   d="m 455.9,426.3 -0.2,4.7 -3.7,-0.2 -60.2,-3.1 0.2,-4 c 0,0 0.1,0 0.1,0 2.1,0.1 27.8,1.6 46.1,2.3 0.1,0 0.2,0 0.3,0 8.5,0.4 15.4,0.5 17.4,0.3 z"
                   id="path1493"
                   inkscape:connector-curvature="0"
                   style="fill:#dddddd" /><path
                   class="st9"
                   d="m 452,430.9 v 0.3 c 0,0 -8.7,0 -19.6,0 v 0 c 0,0 -26.7,-0.9 -36.9,-1.5 -8.8,-0.5 -7.7,-9.8 -3.3,-9.3 2.3,0.2 2.9,3.4 0,3.4 0,0 -0.1,0 -0.1,0 l -0.2,4 z"
                   id="path1495"
                   inkscape:connector-curvature="0"
                   style="fill:#dddddd" /><path
                   class="st9"
                   d="m 452,431.2 v 5 h -58 -6 v -5.4 c 1.5,0.4 26.1,0.4 44.4,0.4 10.9,0 19.6,0 19.6,0 z"
                   id="path1497"
                   inkscape:connector-curvature="0"
                   style="fill:#dddddd" /><path
                   class="st7"
                   d="m 346.4,406 c 8.9,15.9 17.9,33.4 17.9,41.4 0,13.4 -27.6,62 -27.6,62 H 325 c 4.9,-9.4 22,-49.8 22,-62 0,-6.7 -8.1,-25.3 -15.8,-41.4 z"
                   id="path1499"
                   inkscape:connector-curvature="0"
                   style="fill:#775b44" /></g><g
                 id="g1503" /></g></g></g><g
           id="shadows_1_"><rect
             x="514.70001"
             y="377"
             class="st11"
             width="29.799999"
             height="4.4000001"
             id="rect1509"
             style="opacity:0.5;fill:#ffffff" /><rect
             x="356.29999"
             y="297"
             class="st4"
             width="136"
             height="5.1999998"
             id="rect1511"
             style="fill:#ffffff" /><rect
             x="488.20001"
             y="299.60001"
             class="st4"
             width="4.0999999"
             height="87.400002"
             id="rect1513"
             style="fill:#ffffff" /><polygon
             class="st12"
             points="365.5,309.3 481,309.3 481,379.2 483.8,379.2 483.8,309.3 484.3,309.3 484.3,305.9 483.8,305.9 481,305.9 365.5,305.9 "
             id="polygon1515"
             style="opacity:0.25" /><rect
             x="343.39999"
             y="388.5"
             class="st4"
             width="160"
             height="3.4000001"
             id="rect1517"
             style="fill:#ffffff" /><rect
             x="332.5"
             y="407.20001"
             class="st12"
             width="16"
             height="6"
             id="rect1519"
             style="opacity:0.25" /><rect
             x="498"
             y="406.89999"
             class="st12"
             width="16"
             height="6"
             id="rect1521"
             style="opacity:0.25" /><rect
             x="263.39999"
             y="396.5"
             class="st13"
             width="321.20001"
             height="3.9000001"
             id="rect1523"
             style="opacity:0.25;fill:#ffffff" /><rect
             x="388"
             y="430.79999"
             class="st12"
             width="64"
             height="5.4000001"
             id="rect1525"
             style="opacity:0.25" /><rect
             x="364.29999"
             y="440.5"
             class="st13"
             width="118.2"
             height="5.1999998"
             id="rect1527"
             style="opacity:0.25;fill:#ffffff" /><path
             class="st12"
             d="m 330.8,493.8 c 1.5,8.2 13.7,3.2 21.1,-13.1 -8.6,19.1 -15.1,28.7 -15.1,28.7 H 325 Z"
             id="path1529"
             inkscape:connector-curvature="0"
             style="opacity:0.25" /><path
             class="st12"
             d="m 516.1,493.8 c -1.5,8.2 -13.7,3.2 -21.1,-13.1 8.6,19.1 15.1,28.7 15.1,28.7 h 11.8 z"
             id="path1531"
             inkscape:connector-curvature="0"
             style="opacity:0.25" /><polygon
             class="st14"
             points="363.8,363 417.5,309.3 406.5,309.3 363.8,352 "
             id="polygon1533"
             style="opacity:0.15;fill:#ffffff" /><polygon
             class="st14"
             points="425.9,309.1 471.3,309.1 399.3,381.1 364.3,381.1 364.3,370.7 "
             id="polygon1535"
             style="opacity:0.15;fill:#ffffff" /></g><path
           class="st15"
           d="m 356.3,387.9 v -85.8 c 0,-2.3 1.9,-4.2 4.2,-4.2 H 488 c 2.3,0 4.2,1.9 4.2,4.2 v 85.8"
           id="path1538"
           inkscape:connector-curvature="0"
           style="fill:none;stroke:#333333;stroke-width:4;stroke-linecap:round;stroke-linejoin:round;stroke-miterlimit:10" /><rect
           x="364.29999"
           y="305.89999"
           class="st15"
           width="120"
           height="74"
           id="rect1540"
           style="fill:none;stroke:#333333;stroke-width:4;stroke-linecap:round;stroke-linejoin:round;stroke-miterlimit:10" /><path
           class="st15"
           d="m 358.8,395.9 c -13.4,0 -14.9,-4.6 -14.9,-4.6 v -3.4 h 160 v 3.4 c 0,0 -1.5,4.6 -14.9,4.6 H 358.8"
           id="path1542"
           inkscape:connector-curvature="0"
           style="fill:none;stroke:#333333;stroke-width:4;stroke-linecap:round;stroke-linejoin:round;stroke-miterlimit:10" /><rect
           x="263.39999"
           y="396"
           class="st15"
           width="320"
           height="10"
           id="rect1546"
           style="fill:#1488cc;stroke:#333333;stroke-width:4;stroke-linecap:round;stroke-linejoin:round;stroke-miterlimit:10;fill-opacity:1" /><path
           class="st15"
           d="m 515.6,406 c -7.7,16.1 -15.8,34.7 -15.8,41.4 0,12.2 17.1,52.7 22.1,62"
           id="path1548"
           inkscape:connector-curvature="0"
           style="fill:none;stroke:#333333;stroke-width:4;stroke-linecap:round;stroke-linejoin:round;stroke-miterlimit:10" /><path
           class="st15"
           d="m 500.4,406 c -8.9,15.9 -17.9,33.4 -17.9,41.4 0,13.4 27.6,62 27.6,62"
           id="path1550"
           inkscape:connector-curvature="0"
           style="fill:none;stroke:#333333;stroke-width:4;stroke-linecap:round;stroke-linejoin:round;stroke-miterlimit:10" /><rect
           x="364.29999"
           y="441.39999"
           class="st15"
           width="118.2"
           height="10"
           id="rect1552"
           style="fill:#775b44;stroke:#333333;stroke-width:4;stroke-linecap:round;stroke-linejoin:round;stroke-miterlimit:10;fill-opacity:1" /><path
           class="st15"
           d="m 331.2,406 c 7.7,16.1 15.8,34.7 15.8,41.4 0,12.2 -17.1,52.7 -22,62"
           id="path1554"
           inkscape:connector-curvature="0"
           style="fill:none;stroke:#333333;stroke-width:4;stroke-linecap:round;stroke-linejoin:round;stroke-miterlimit:10" /><path
           class="st15"
           d="m 346.4,406 c 8.9,15.9 17.9,33.4 17.9,41.4 0,13.4 -27.6,62 -27.6,62"
           id="path1556"
           inkscape:connector-curvature="0"
           style="fill:none;stroke:#333333;stroke-width:4;stroke-linecap:round;stroke-linejoin:round;stroke-miterlimit:10" /><line
           class="st15"
           x1="263.89999"
           y1="509.39999"
           x2="602.90002"
           y2="509.39999"
           id="line1558"
           style="fill:none;stroke:#333333;stroke-width:4;stroke-linecap:round;stroke-linejoin:round;stroke-miterlimit:10" /><path
           class="st16"
           d="m 538.2,352.4 c 0,0.2 0,0.4 0,0.6 0,4 -2.8,7.4 -6.5,8.4"
           id="path1562"
           style="opacity:0.5;fill:#f2f2f2;fill-opacity:1;stroke:#333333;stroke-width:2;stroke-linecap:round;stroke-linejoin:round;stroke-miterlimit:10"
           inkscape:connector-curvature="0" /><path
           class="st16"
           d="m 533.3,345.1 c -1.1,-0.6 -2.4,-0.9 -3.8,-0.9"
           id="path1564"
           style="opacity:0.5;fill:#f2f2f2;fill-opacity:1;stroke:#333333;stroke-width:2;stroke-linecap:round;stroke-linejoin:round;stroke-miterlimit:10"
           inkscape:connector-curvature="0" /><path
           class="st16"
           d="m 536.7,348.1 c 0,0 -0.1,-0.1 -0.1,-0.1"
           id="path1566"
           style="opacity:0.5;fill:#f2f2f2;fill-opacity:1;stroke:#333333;stroke-width:2;stroke-linecap:round;stroke-linejoin:round;stroke-miterlimit:10"
           inkscape:connector-curvature="0" /><path
           class="st16"
           d="m 525,365.9 c -0.5,0.7 -0.8,1.5 -0.8,2.4 0,1.6 0.9,3 2.3,3.6"
           id="path1568"
           style="opacity:0.5;fill:#f2f2f2;fill-opacity:1;stroke:#333333;stroke-width:2;stroke-linecap:round;stroke-linejoin:round;stroke-miterlimit:10"
           inkscape:connector-curvature="0" /><path
           class="st15"
           d="m 544.7,379 c 0,5.6 -3,10.4 -7.5,13 v 2 h -15 v -2 c -4.5,-2.6 -7.5,-7.4 -7.5,-13 v 0 -2 h 30 z"
           id="path1570"
           style="fill:#cccccc;fill-opacity:1;stroke:#333333;stroke-width:4;stroke-linecap:round;stroke-linejoin:round;stroke-miterlimit:10"
           inkscape:connector-curvature="0" /><path
           class="st15"
           d="m 539.5,390.3 c 5.2,0 10,-3 10,-6.8 0,-2.3 -1.8,-4.1 -4.1,-4.1 -0.2,0 -0.5,0 -0.7,0.1"
           id="path1572"
           style="fill:#f2f2f2;fill-opacity:1;stroke:#333333;stroke-width:4;stroke-linecap:round;stroke-linejoin:round;stroke-miterlimit:10"
           inkscape:connector-curvature="0" /><rect
           x="394"
           y="436.20001"
           class="st17"
           width="64"
           height="5"
           id="rect1576"
           style="fill:none;stroke:#333333;stroke-width:2;stroke-linecap:round;stroke-linejoin:round;stroke-miterlimit:10" /><path
           class="st17"
           d="m 452,431.2 c 0,0 -61.5,0.2 -64,-0.4 v 5.4 h 64 z"
           id="path1578"
           inkscape:connector-curvature="0"
           style="fill:none;stroke:#333333;stroke-width:2;stroke-linecap:round;stroke-linejoin:round;stroke-miterlimit:10" /><path
           class="st17"
           d="m 455.9,426.3 c -6.7,0.8 -63.9,-2.5 -63.9,-2.5 l -0.2,4 63.9,3.3 z"
           id="path1580"
           inkscape:connector-curvature="0"
           style="fill:none;stroke:#333333;stroke-width:2;stroke-linecap:round;stroke-linejoin:round;stroke-miterlimit:10" /><path
           class="st17"
           d="m 392,423.8 c 3.1,0.2 2.5,-3.1 0.2,-3.4 -4.4,-0.4 -5.5,8.9 3.3,9.3 10.3,0.5 36.9,1.5 36.9,1.5"
           id="path1582"
           inkscape:connector-curvature="0"
           style="fill:none;stroke:#333333;stroke-width:2;stroke-linecap:round;stroke-linejoin:round;stroke-miterlimit:10" /><path
           class="st17"
           d="m 454.7,424.4 c -2.2,0.9 -10.1,2 -16.4,1.7"
           id="path1584"
           inkscape:connector-curvature="0"
           style="fill:none;stroke:#333333;stroke-width:2;stroke-linecap:round;stroke-linejoin:round;stroke-miterlimit:10" /><line
           style="fill:none;stroke:#333333;stroke-width:2;stroke-linecap:round;stroke-linejoin:round;stroke-miterlimit:10"
           id="line1588"
           y2="401.70001"
           x2="583.40002"
           y1="401.70001"
           x1="577.20001"
           class="st17" /></g></g></g></svg>