<?xml version="1.0" encoding="UTF-8" standalone="no"?>
<!-- Generator: Adobe Illustrator 21.0.0, SVG Export Plug-In . SVG Version: 6.00 Build 0)  -->

<svg
   xmlns:dc="http://purl.org/dc/elements/1.1/"
   xmlns:cc="http://creativecommons.org/ns#"
   xmlns:rdf="http://www.w3.org/1999/02/22-rdf-syntax-ns#"
   xmlns:svg="http://www.w3.org/2000/svg"
   xmlns="http://www.w3.org/2000/svg"
   xmlns:sodipodi="http://sodipodi.sourceforge.net/DTD/sodipodi-0.dtd"
   xmlns:inkscape="http://www.inkscape.org/namespaces/inkscape"
   version="1.1"
   x="0px"
   y="0px"
   viewBox="0 0 707 700"
   xml:space="preserve"
   id="svg2323"
   sodipodi:docname="workspace-3 - Copy.svg"
   inkscape:version="0.92.2 (5c3e80d, 2017-08-06)"
   width="707"
   height="700"><metadata
     id="metadata2329"><rdf:RDF><cc:Work
         rdf:about=""><dc:format>image/svg+xml</dc:format><dc:type
           rdf:resource="http://purl.org/dc/dcmitype/StillImage" /><dc:title></dc:title></cc:Work></rdf:RDF></metadata><defs
     id="defs2327" /><sodipodi:namedview
     pagecolor="#ffffff"
     bordercolor="#666666"
     borderopacity="1"
     objecttolerance="10"
     gridtolerance="10"
     guidetolerance="10"
     inkscape:pageopacity="0"
     inkscape:pageshadow="2"
     inkscape:window-width="1366"
     inkscape:window-height="745"
     id="namedview2325"
     showgrid="false"
     inkscape:snap-nodes="false"
     inkscape:object-paths="true"
     inkscape:snap-intersection-paths="true"
     inkscape:zoom="0.86"
     inkscape:cx="398.108"
     inkscape:cy="300.78758"
     inkscape:window-x="-8"
     inkscape:window-y="-8"
     inkscape:window-maximized="1"
     inkscape:current-layer="svg2323" /><style
     type="text/css"
     id="style1573">
	.st0{fill:#FAF4ED;}
	.st1{fill:#F5F5F7;}
	.st2{fill:#F7F7F7;}
	.st3{fill:#F7FEFF;}
	.st4{opacity:4.000000e-02;fill:#141414;}
	.st5{fill:#FFFFFF;}
	.st6{opacity:5.000000e-02;fill:#141414;}
	.st7{opacity:3.000000e-02;fill:#141414;}
	.st8{opacity:0.5;fill:#FFFFFF;}
	.st9{opacity:0.75;fill:#FFFFFF;}
	.st10{opacity:0.7;fill:#FFFFFF;}
	.st11{opacity:2.000000e-02;fill:#141414;}
	.st12{fill:#141414;}
	.st13{fill:none;stroke:#DCDEE8;stroke-width:3;stroke-linecap:round;stroke-linejoin:round;stroke-miterlimit:10;}
	.st14{fill:none;stroke:#DCDEE8;stroke-width:6;stroke-linecap:round;stroke-linejoin:round;stroke-miterlimit:10;}
	.st15{fill:none;stroke:#DCDEE8;stroke-width:1.5;stroke-linecap:round;stroke-linejoin:round;stroke-miterlimit:10;}
	.st16{fill:none;stroke:#DCDEE8;stroke-width:4;stroke-linecap:round;stroke-linejoin:round;stroke-miterlimit:10;}
	.st17{fill:none;stroke:#DCDEE8;stroke-width:2;stroke-linecap:round;stroke-linejoin:round;stroke-miterlimit:10;}
	.st18{fill:none;stroke:#DCDEE8;stroke-width:3;stroke-linejoin:round;stroke-miterlimit:10;}
	.st19{fill:#EBB886;}
	.st20{fill:#48FFFF;}
	.st21{fill:#D2FFFE;}
	.st22{fill:#E2E2E2;}
	.st23{fill:#51576B;}
	.st24{fill:#D1F7C9;}
	.st25{fill:#FFF5DE;}
	.st26{fill:#FF7382;}
	.st27{fill:#00D3FF;}
	.st28{fill:#FFE499;}
	.st29{fill:#BEE1E5;}
	.st30{opacity:0.35;fill:#141414;}
	.st31{opacity:0.35;fill:#FFFFFF;}
	.st32{opacity:0.15;fill:#FFFFFF;}
	.st33{opacity:8.000000e-02;fill:#141414;}
	.st34{opacity:0.12;fill:#141414;}
	.st35{opacity:0.3;fill:#FFFFFF;}
	.st36{opacity:0.25;fill:#141414;}
	.st37{opacity:0.15;fill:#141414;}
	.st38{opacity:0.1;fill:#141414;}
	.st39{opacity:0.59;fill:#FFFFFF;}
	.st40{fill:none;stroke:#3A4061;stroke-width:2;stroke-linecap:round;stroke-linejoin:round;stroke-miterlimit:10;}
	.st41{fill:none;stroke:#3A4061;stroke-width:4;stroke-linecap:round;stroke-linejoin:round;stroke-miterlimit:10;}
	.st42{fill:#F0F0F2;stroke:#3A4061;stroke-miterlimit:10;}
	.st43{fill:none;stroke:#3A4061;stroke-width:6;stroke-linecap:round;stroke-linejoin:round;stroke-miterlimit:10;}
	.st44{fill:none;stroke:#3A4061;stroke-width:2;stroke-linejoin:round;stroke-miterlimit:10;}
	.st45{fill:none;stroke:#3A4061;stroke-width:3.5;stroke-linejoin:round;stroke-miterlimit:10;}
	.st46{fill:none;stroke:#3A4061;stroke-width:3.5;stroke-linecap:round;stroke-linejoin:round;stroke-miterlimit:10;}
	.st47{fill:none;stroke:#3A4061;stroke-width:3.5;stroke-miterlimit:10;}
</style><g
     id="main"
     transform="matrix(1.4223007,0,0,1.4256281,-225.73194,-75.91429)"
     style="stroke-width:0.70226526"><g
       id="colors"
       style="stroke-width:0.70226526"><g
         id="XMLID_3_"
         style="stroke-width:0.70226526"><g
           id="g2104"
           style="stroke-width:0.70226526"><path
             class="st19"
             d="m 588.3,363 c 3.3,0 6,2.7 6,6 0,1.7 -0.7,3.2 -1.8,4.2 -1.1,1.1 -2.6,1.8 -4.2,1.8 h -13.1 -12.4 v 0 h -228 v 0 H 239 225.9 c -3.3,0 -6,-2.7 -6,-6 0,-1.7 0.7,-3.2 1.8,-4.2 1.1,-1.1 2.6,-1.8 4.2,-1.8 h 21.8 43.7 112.4 56.5 38.7 22.5 38 8.9 z"
             id="path2052"
             inkscape:connector-curvature="0"
             style="fill:#ebb886;stroke-width:0.70226526" /><path
             class="st19"
             d="m 575.1,375 v 94.2 c 0,3.4 -2.8,6.2 -6.2,6.2 -3.4,0 -6.2,-2.8 -6.2,-6.2 V 375 Z"
             id="path2054"
             inkscape:connector-curvature="0"
             style="fill:#ebb886;stroke-width:0.70226526" /><path
             inkscape:connector-curvature="0"
             style="fill:#48ffff;stroke-width:0.70226526"
             d="m 573.6,340.3 -0.6,7 h -18.4 l -0.5,-7 z"
             id="polygon2056" /><path
             inkscape:connector-curvature="0"
             style="fill:#d2fffe;stroke-width:0.70226526"
             d="m 573,347.3 -0.4,4.6 H 555 l -0.4,-4.6 z"
             id="polygon2058" /><path
             class="st20"
             d="m 572.6,351.9 -0.5,6.8 c -0.2,2.4 -1.8,4.3 -3.8,4.3 h -8.9 c -2,0 -3.6,-1.8 -3.8,-4.3 l -0.5,-6.8 z"
             id="path2060"
             inkscape:connector-curvature="0"
             style="fill:#48ffff;stroke-width:0.70226526" /><path
             inkscape:connector-curvature="0"
             style="fill:#ebb886;stroke-width:0.70226526"
             d="m 334.79999,375 h 228 v 22.1 h -228 z"
             id="rect2062" /><path
             class="st22"
             d="m 521.3,363 h -22.5 c 0.2,-4.5 5.2,-8 11.2,-8 6,0 11.1,3.5 11.3,8 z"
             id="path2064"
             inkscape:connector-curvature="0"
             style="fill:#e2e2e2;stroke-width:0.70226526" /><path
             class="st22"
             d="m 492.9,328 v 8.7 c 0,4.4 -3.6,8 -8,8 h -4.6 l -0.6,-8 -19.1,1.4 0.5,6.5 -0.9,0.1 h -17.5 -21.5 -21.5 l 0.5,-3.4 -17.7,-2.4 -0.8,5.8 h -0.3 -2.4 c -4.4,0 -8,-3.6 -8,-8 v -7.3 -1.4 z"
             id="path2066"
             inkscape:connector-curvature="0"
             style="fill:#e2e2e2;stroke-width:0.70226526" /><path
             class="st22"
             d="M 492.9,270.4 V 328 h -122 v -57.7 c 0,-4.4 3.6,-8 8,-8 h 106 c 4.4,0.1 8,3.7 8,8.1 z m -5.9,52.1 v -50.9 c 0,-2.1 -1.7,-3.8 -3.8,-3.8 H 380.4 c -2.1,0 -3.8,1.7 -3.8,3.8 v 50.9 z"
             id="path2068"
             inkscape:connector-curvature="0"
             style="fill:#e2e2e2;stroke-width:0.70226526" /><path
             class="st23"
             d="m 487,271.6 v 50.9 H 376.7 v -50.9 c 0,-2.1 1.7,-3.8 3.8,-3.8 h 102.8 c 2,0.1 3.7,1.8 3.7,3.8 z"
             id="path2070"
             inkscape:connector-curvature="0"
             style="fill:#51576b;stroke-width:0.70226526" /><path
             class="st24"
             d="m 484.4,349.6 c 0.2,2.1 -1.4,3.9 -3.5,4.1 l -15.3,1.1 c 2.1,-0.2 3.7,-2 3.5,-4.1 l 7.7,-0.6 3.8,-0.3 z"
             id="path2072"
             inkscape:connector-curvature="0"
             style="fill:#d1f7c9;stroke-width:0.70226526" /><path
             class="st24"
             d="m 480.3,346.1 0.3,3.8 -3.8,0.3 -7.7,0.6 c 0.2,2.1 -1.4,3.9 -3.5,4.1 -2.1,0.2 -3.9,-1.4 -4.1,-3.5 l -0.5,-6.7 -0.5,-6.5 19.1,-1.4 0.6,8 z"
             id="path2074"
             inkscape:connector-curvature="0"
             style="fill:#d1f7c9;stroke-width:0.70226526" /><path
             class="st22"
             d="m 460.1,363 h -56.5 c 0,-3.5 2.4,-6.3 5.4,-6.3 4.3,0 7.7,-1.8 10.1,-5 1.4,-1.9 1.4,-4.2 2,-7 h 21.5 c 1.6,7.3 5.3,12 12.1,12 1.5,0 2.8,0.7 3.8,1.8 1,1.2 1.6,2.7 1.6,4.5 z"
             id="path2076"
             inkscape:connector-curvature="0"
             style="fill:#e2e2e2;stroke-width:0.70226526" /><path
             class="st25"
             d="m 400.1,341.3 -0.5,3.4 -1.2,8.8 c -0.3,1.9 -2,3.3 -4,3 -1.9,-0.3 -3.3,-2 -3,-4 l -7.2,-1 -3.5,-0.5 0.5,-3.5 0.4,-2.9 0.8,-5.8 z"
             id="path2078"
             inkscape:connector-curvature="0"
             style="fill:#fff5de;stroke-width:0.70226526" /><path
             class="st25"
             d="m 394.5,356.6 -14.2,-1.9 c -1.9,-0.3 -3.3,-2 -3,-4 l 3.5,0.5 3.5,0.5 7.2,1 c -0.3,1.8 1,3.6 3,3.9 z"
             id="path2080"
             inkscape:connector-curvature="0"
             style="fill:#fff5de;stroke-width:0.70226526" /><path
             class="st26"
             d="m 350.7,335.2 v 18.6 c 0,4.5 -3.7,8.2 -8.2,8.2 h -7.6 c -4.5,0 -8.2,-3.7 -8.2,-8.2 v -18.6 z"
             id="path2082"
             inkscape:connector-curvature="0"
             style="fill:#ff7382;stroke-width:0.70226526" /><path
             class="st19"
             d="m 334.7,425.2 v 50.2 h -95.8 v -50.2 z m -12.3,40.3 V 435 h -71.1 v 30.5 z"
             id="path2084"
             inkscape:connector-curvature="0"
             style="fill:#ebb886;stroke-width:0.70226526" /><path
             class="st19"
             d="m 334.7,375 v 50.2 H 238.9 V 375 Z m -12.3,40.3 v -30.4 h -71.1 v 30.4 z"
             id="path2086"
             inkscape:connector-curvature="0"
             style="fill:#ebb886;stroke-width:0.70226526" /><path
             inkscape:connector-curvature="0"
             style="fill:#ebb886;stroke-width:0.70226526"
             d="m 251.2,435.10001 h 71.1 v 30.5 h -71.1 z"
             id="rect2088" /><path
             inkscape:connector-curvature="0"
             style="fill:#ebb886;stroke-width:0.70226526"
             d="m 251.2,384.89999 h 71.1 v 30.5 h -71.1 z"
             id="rect2090" /><path
             class="st27"
             d="m 293,276.5 8.6,8.6 -6.2,6.2 -10.4,10.4 -6.2,6.2 -8.6,-8.6 c -4.6,-4.6 -5.9,-11.3 -3.7,-17 v 0 l 9.6,-9.6 v 0 c 1.8,-0.7 3.7,-1 5.6,-1 4,0.1 8.2,1.6 11.3,4.8 z"
             id="path2092"
             inkscape:connector-curvature="0"
             style="fill:#00d3ff;stroke-width:0.70226526" /><path
             class="st28"
             d="m 295.4,291.3 c 1.3,1.3 2.1,3.1 2.1,5.1 0,4.1 -3.3,7.4 -7.4,7.4 -2,0 -3.8,-0.8 -5.1,-2.1 z"
             id="path2094"
             inkscape:connector-curvature="0"
             style="fill:#ffe499;stroke-width:0.70226526" /><path
             class="st27"
             d="m 291.2,360.8 v 2.2 h -43.7 v -2.2 c 0,-3.9 3.2,-7.1 7.1,-7.1 h 6 17.5 6 c 3.9,0 7.1,3.1 7.1,7.1 z"
             id="path2096"
             inkscape:connector-curvature="0"
             style="fill:#00d3ff;stroke-width:0.70226526" /><path
             class="st27"
             d="m 278.1,353.7 h -17.5 c 0,-4.8 3.9,-8.8 8.8,-8.8 4.8,0 8.7,3.9 8.7,8.8 z"
             id="path2098"
             inkscape:connector-curvature="0"
             style="fill:#00d3ff;stroke-width:0.70226526" /><path
             class="st27"
             d="m 276,272.8 -9.6,9.6 c -2.6,-2.6 -2.6,-6.9 0,-9.6 2.7,-2.7 7,-2.7 9.6,0 z"
             id="path2100"
             inkscape:connector-curvature="0"
             style="fill:#00d3ff;stroke-width:0.70226526" /><path
             class="st29"
             d="m 238.9,306.9 c 3.9,0 7,3.1 7,7 0,3.8 -3.1,6.9 -7,6.9 -3.8,0 -6.9,-3.1 -6.9,-6.9 -0.1,-3.9 3.1,-7 6.9,-7 z"
             id="path2102"
             inkscape:connector-curvature="0"
             style="fill:#bee1e5;stroke-width:0.70226526" /></g><g
           id="g2106"
           style="stroke-width:0.70226526" /></g></g><g
       id="shadows"
       style="stroke-width:0.70226526"><path
         inkscape:connector-curvature="0"
         style="opacity:0.35;fill:#141414;stroke-width:0.70226526"
         d="m 334.70001,376.70001 h 227.60001 v 20 H 334.70001 Z"
         id="rect2110" /><path
         class="st31"
         d="m 350.7,335.2 h -23.6 v 3.5 h 4.6 v 6.9 c 0,1.9 1.6,3.5 3.5,3.5 1.9,0 3.5,-1.6 3.5,-3.5 v -6.9 h 12 z"
         id="path2112"
         inkscape:connector-curvature="0"
         style="opacity:0.35;fill:#ffffff;stroke-width:0.70226526" /><path
         inkscape:connector-curvature="0"
         style="opacity:0.15;fill:#ffffff;stroke-width:0.70226526"
         d="m 404.8,267.9 -27.9,27.8 v 18.9 l 46.8,-46.7 z"
         id="polygon2114" /><path
         inkscape:connector-curvature="0"
         style="opacity:0.15;fill:#ffffff;stroke-width:0.70226526"
         d="m 435.9,267.9 -55.2,55.2 H 419 l 55.5,-55.6 z"
         id="polygon2116" /><path
         inkscape:connector-curvature="0"
         style="opacity:0.5;fill:#ffffff;stroke-width:0.70226526"
         d="m 384.8,328 -11.7,11.8 v 3 l 2,2 h 6.5 l 0.8,-5.9 4.1,0.6 11.6,-11.7 z"
         id="polygon2118" /><path
         inkscape:connector-curvature="0"
         style="opacity:0.5;fill:#ffffff;stroke-width:0.70226526"
         d="m 401,329 -11.1,11.1 h 3 l 11.5,-11.4 z"
         id="polygon2120" /><path
         class="st33"
         d="m 465.8,337.7 13.8,-1 0.6,8 h 4.6 l 6.2,-2.9 1.8,-5.1 V 328 h -6.5 -5.7 c -0.5,1.9 -1.8,3.6 -3.3,5 -3,2.8 -7.5,4.4 -11.5,4.7"
         id="path2122"
         inkscape:connector-curvature="0"
         style="stroke-width:0.70226526" /><path
         inkscape:connector-curvature="0"
         style="opacity:0.12000002;fill:#141414;stroke-width:0.70226526"
         d="m 400.29999,341.20001 h 60.2 v 3 h -60.2 z"
         id="rect2124" /><path
         class="st33"
         d="m 461.8,352.5 c 2.1,0 14.1,-1.5 14.7,-15.6 l 3.1,-0.2 1,12.9 h 3.8 l -0.4,2 -2.2,2.1 -16.2,1.2 z"
         id="path2126"
         inkscape:connector-curvature="0"
         style="stroke-width:0.70226526" /><path
         class="st35"
         d="m 461.4,349.6 0.4,-1.5 c 1.2,-4.3 4.4,-7.8 8.7,-9.2 l 4.8,-1.6 -14.7,0.8 z"
         id="path2128"
         inkscape:connector-curvature="0"
         style="opacity:0.3;fill:#ffffff;stroke-width:0.70226526" /><path
         class="st33"
         d="m 380.4,351.1 c 8.8,1.9 16.7,1.6 19.4,-10 l -2.2,14.2 -2.7,1.2 -16.2,-2.5 -1.6,-3.1 z"
         id="path2130"
         inkscape:connector-curvature="0"
         style="stroke-width:0.70226526" /><path
         class="st5"
         d="m 381.1,348.3 1.3,-9.4 10.2,1.4 -2.8,0.3 c -3.3,0.4 -6.3,2.5 -7.6,5.5 z"
         id="path2132"
         inkscape:connector-curvature="0"
         style="fill:#ffffff;stroke-width:0.70226526" /><path
         inkscape:connector-curvature="0"
         style="opacity:0.25;fill:#141414;stroke-width:0.70226526"
         d="m 421.10001,343.89999 h 21.7 v 6.4 h -21.7 z"
         id="rect2134" /><path
         inkscape:connector-curvature="0"
         style="opacity:0.25;fill:#141414;stroke-width:0.70226526"
         d="M 238.89999,374.79999 H 334.8 v 5.7 h -95.90001 z"
         id="rect2136" /><path
         class="st33"
         d="m 265.9,291.7 c 14,12.1 31.5,-1.3 30.4,-12 l 5.3,5.3 c -4.7,4.7 -9.4,9.4 -14.2,14.2 -2.9,2.9 -5.8,5.8 -8.7,8.7 -4.1,-4.4 -8.2,-8.7 -12.3,-13 z"
         id="path2138"
         inkscape:connector-curvature="0"
         style="stroke-width:0.70226526" /><path
         class="st37"
         d="m 285,354.2 c 0,-0.1 0,-0.3 0,-0.5 l 0.8,0.5 z"
         id="path2140"
         inkscape:connector-curvature="0"
         style="opacity:0.15;fill:#141414;stroke-width:0.70226526" /><path
         class="st33"
         d="m 290,356.8 -1,-0.6 -3.2,-2 H 285 c 0,1.1 -0.8,2.1 -2.2,2.8 -6.3,3.5 -24.6,3 -35.2,2.5 l -0.5,3.5 h 44.8 z"
         id="path2142"
         inkscape:connector-curvature="0"
         style="stroke-width:0.70226526" /><path
         class="st8"
         d="M 249.7,354.2 H 285 c 0,1.1 -0.8,2.1 -2.2,2.8 h -33.1 z"
         id="path2144"
         inkscape:connector-curvature="0"
         style="opacity:0.5;fill:#ffffff;stroke-width:0.70226526" /><path
         inkscape:connector-curvature="0"
         style="opacity:0.3;fill:#ffffff;stroke-width:0.70226526"
         d="m 289,356.2 -3.2,-2 h 3.2 z"
         id="polygon2146" /><path
         class="st38"
         d="m 491.5,375 c 27.5,0.3 52.4,-1.1 53.2,-12 H 592 l 2.2,6 -3,5.2 -43.8,0.8 z"
         id="path2148"
         inkscape:connector-curvature="0"
         style="opacity:0.1;fill:#141414;stroke-width:0.70226526" /><path
         class="st37"
         d="M 563.8,373.4 H 438 c -4.2,-0.2 -8.5,-0.3 -12.7,0 h -90.5 v 7.1 h 127.3 c 9,0 17.9,2.9 24.9,8.5 2.6,2.1 4.7,4.3 6,6.5 h 69.8 l 0.7,-15 h 0.3 z"
         id="path2150"
         inkscape:connector-curvature="0"
         style="opacity:0.15;fill:#141414;stroke-width:0.70226526" /><path
         inkscape:connector-curvature="0"
         style="opacity:0.3;fill:#ffffff;stroke-width:0.70226526"
         d="m 238.9,475.4 h 35 0.1 z"
         id="polygon2152" /><path
         class="st38"
         d="m 322.4,409.6 c 5.5,-0.6 9.7,-2.4 12.3,-3.8 v 19.3 h -55.6 -40.2 v -5.5 c 19.5,0.1 83.5,-4.3 83.5,-4.3 z"
         id="path2154"
         inkscape:connector-curvature="0"
         style="opacity:0.1;fill:#141414;stroke-width:0.70226526" /><path
         class="st31"
         d="m 247.8,472.2 c -1.8,-0.2 -3.4,-1.1 -4.5,-2.4 -0.9,-1.1 -1.5,-2.4 -1.6,-3.8 l -2.9,-29.4 v 33.3 5.5 h 35 z"
         id="path2156"
         inkscape:connector-curvature="0"
         style="opacity:0.35;fill:#ffffff;stroke-width:0.70226526" /><path
         class="st38"
         d="m 334.7,456.1 v 19.3 h -60.8 l -26.1,-3.2 c -1.8,-0.2 -3.4,-1.1 -4.5,-2.4 23.3,-0.4 79,-4.3 79,-4.3 v -5.7 c 5.6,-0.6 9.8,-2.4 12.4,-3.7 z"
         id="path2158"
         inkscape:connector-curvature="0"
         style="opacity:0.1;fill:#141414;stroke-width:0.70226526" /><path
         class="st33"
         d="m 573.9,340.3 h -4.8 c 0.1,1.2 0.2,2.4 0.2,3.5 -0.1,4.5 -1.5,8.6 -3.7,11.9 -1.2,1.8 -3.3,2.9 -5.4,2.9 h -3.1 v 3.9 c -0.4,0.1 -0.9,0.3 -1.3,0.4 L 555,363 h 2.1 v 0 h 15 v -4.5 0 l 1.5,-14.7 z"
         id="path2160"
         inkscape:connector-curvature="0"
         style="stroke-width:0.70226526" /><path
         class="st35"
         d="m 569.2,340.3 c 0.1,1.2 0.2,2.4 0.2,3.5 h -15.3 v -3.5 z"
         id="path2162"
         inkscape:connector-curvature="0"
         style="opacity:0.3;fill:#ffffff;stroke-width:0.70226526" /><path
         inkscape:connector-curvature="0"
         style="fill:#141414;stroke-width:0.70226526"
         d="m 573.9,343.8 h -0.3 l 0.3,-3.5 z"
         id="polygon2164" /><path
         inkscape:connector-curvature="0"
         style="opacity:0.5;fill:#ffffff;stroke-width:0.70226526"
         d="M 403.60001,357.70001 H 458.7 v 5.3 h -55.09999 z"
         id="rect2166" /><path
         class="st31"
         d="m 286.5,272.7 -8.6,-0.9 -4,3.4 v 0 c 0,0.3 0,0.7 0.1,1 l -1.8,-0.4 -7.2,7.8 0.4,5.5 7,-7.2 c 1.2,-1.3 3.3,-1.3 4.5,0 0.1,0.1 0.3,0.3 0.4,0.4 1.5,1.2 3.4,1.9 5.5,1.9 3.4,0 6.4,-1.9 7.9,-4.8 0.5,-0.9 0.8,-2 1,-3 z"
         id="path2168"
         inkscape:connector-curvature="0"
         style="opacity:0.35;fill:#ffffff;stroke-width:0.70226526" /><path
         class="st32"
         d="m 479.2,392.1 h -60.7 -7.2 -60.7 c -2.8,0 -7.3,0.5 -11.1,5 h 71.8 7.2 71.8 c -3.8,-4.5 -8.3,-5 -11.1,-5 z"
         id="path2170"
         inkscape:connector-curvature="0"
         style="opacity:0.15;fill:#ffffff;stroke-width:0.70226526" /><path
         inkscape:connector-curvature="0"
         style="opacity:0.25;fill:#141414;stroke-width:0.70226526"
         d="m 240.69999,313.89999 a 1.8,1.8 0 0 1 -1.8,1.8 1.8,1.8 0 0 1 -1.8,-1.8 1.8,1.8 0 0 1 1.8,-1.8 1.8,1.8 0 0 1 1.8,1.8 z"
         id="circle2172" /><path
         class="st35"
         d="m 233.8,316.1 c 0,-3.4 2.8,-6.2 6.2,-6.2 3.4,0 6.2,2.8 6.2,6.2 l -1.8,-7.3 -5.9,-2.5 -4.8,2.9 -1.9,4.3 z"
         id="path2174"
         inkscape:connector-curvature="0"
         style="opacity:0.3;fill:#ffffff;stroke-width:0.70226526" /><path
         class="st37"
         d="m 243.7,310.3 c 0.8,3.3 -1.3,6.7 -4.6,7.5 -3.3,0.8 -6.7,-1.3 -7.5,-4.6 l 3.4,6.7 6.3,1.1 4,-3.9 0.8,-4.7 z"
         id="path2176"
         inkscape:connector-curvature="0"
         style="opacity:0.15;fill:#141414;stroke-width:0.70226526" /><path
         class="st37"
         d="m 291.2,300.1 5.9,-5.9 -1.7,-3 -7.2,7.3 c -0.1,-0.1 -0.1,-0.1 -0.2,-0.2 l -1.5,1.8 v 0 0 l -0.9,1.1 -0.6,0.8 2.8,1.2 6.1,-0.5 3.3,-3.1 v -1.4 c -1.1,1.6 -3.7,2.4 -6,1.9 z"
         id="path2178"
         inkscape:connector-curvature="0"
         style="opacity:0.15;fill:#141414;stroke-width:0.70226526" /><path
         inkscape:connector-curvature="0"
         style="opacity:0.35;fill:#ffffff;stroke-width:0.70226526"
         d="m 283.99999,277 a 3.2,2 0 0 1 -3.2,2 3.2,2 0 0 1 -3.2,-2 3.2,2 0 0 1 3.2,-2 3.2,2 0 0 1 3.2,2 z"
         id="ellipse2180" /><path
         inkscape:connector-curvature="0"
         style="opacity:0.5;fill:#ffffff;stroke-width:0.70226526"
         d="m 265.5,281.8 -1,-5.2 5.7,-7.2 4.4,3 z"
         id="polygon2182" /><path
         inkscape:connector-curvature="0"
         transform="matrix(0.9208,-0.39,0.39,0.9208,-114.6355,131.8696)"
         style="opacity:0.5;fill:#ffffff;stroke-width:0.70226526"
         d="m 271.29999,348.20001 a 3.9000001,2.0999999 0 0 1 -3.9,2.1 3.9000001,2.0999999 0 0 1 -3.9,-2.1 3.9000001,2.0999999 0 0 1 3.9,-2.1 3.9000001,2.0999999 0 0 1 3.9,2.1 z"
         id="ellipse2184" /><path
         class="st31"
         d="m 594.6,367 c -0.1,0 -0.1,0 -0.2,0 H 227.9 c -1.7,0 -3.2,0.7 -4.2,1.8 -1.1,1.1 -1.8,2.6 -1.8,4.2 0,1.1 -2.2,-9 1,-9 h 366.5 c 2.3,0 4.2,1.2 5.2,3 z"
         id="path2186"
         inkscape:connector-curvature="0"
         style="opacity:0.35;fill:#ffffff;stroke-width:0.70226526" /><path
         inkscape:connector-curvature="0"
         style="opacity:0.25;fill:#141414;stroke-width:0.70226526"
         d="m 562.29999,374.70001 h 12.9 v 7 h -12.9 z"
         id="rect2188" /><path
         class="st38"
         d="m 562.8,454.2 c 0,6.3 12.4,5.9 12.4,-29 0,35.8 0,50.2 0,50.2 h -6.2 -6.2 z"
         id="path2190"
         inkscape:connector-curvature="0"
         style="opacity:0.1;fill:#141414;stroke-width:0.70226526" /><path
         class="st38"
         d="m 252.2,458.5 c 0,4.5 70.2,5.8 70.2,-15.2 0,28.2 0,22.2 0,22.2 h -70.2 z"
         id="path2192"
         inkscape:connector-curvature="0"
         style="opacity:0.1;fill:#141414;stroke-width:0.70226526" /><path
         class="st38"
         d="m 252.2,408.5 c 0,4.5 70.2,5.8 70.2,-15.2 0,28.2 0,22.2 0,22.2 h -70.2 z"
         id="path2194"
         inkscape:connector-curvature="0"
         style="opacity:0.1;fill:#141414;stroke-width:0.70226526" /><path
         class="st31"
         d="m 322.4,435.1 h -71.1 v 2.8 h -0.2 l 2.2,19.4 2.5,-15.4 c 0.2,-1.4 1.4,-2.4 2.8,-2.4 h 63.9 v -4.4 z"
         id="path2196"
         inkscape:connector-curvature="0"
         style="opacity:0.35;fill:#ffffff;stroke-width:0.70226526" /><path
         class="st31"
         d="m 322.4,384.9 h -71.1 v 4.4 l 0.9,16.6 3.3,-14.4 c 0.3,-1.3 1.4,-2.2 2.7,-2.2 h 64.2 z"
         id="path2198"
         inkscape:connector-curvature="0"
         style="opacity:0.35;fill:#ffffff;stroke-width:0.70226526" /><path
         class="st31"
         d="m 335.2,425.8 h -95.9 v 3.4 l 1.3,11.8 2,-9.4 c 0.3,-1.4 1.5,-2.4 3,-2.4 h 89.6 z"
         id="path2200"
         inkscape:connector-curvature="0"
         style="opacity:0.35;fill:#ffffff;stroke-width:0.70226526" /><path
         class="st6"
         d="m 328.2,352.6 c 0,3.8 21.1,5.7 21.1,-9 0,10.2 0,14.7 0,14.7 l -3.4,2.9 h -15.8 l -4.1,-5 1.1,-2.5 z"
         id="path2202"
         inkscape:connector-curvature="0"
         style="stroke-width:0.70226526" /><path
         class="st9"
         d="m 384.3,347.7 h -2.4 c -3,0 -5.6,-1.6 -7,-4.1 -0.7,-1.2 -1,-2.5 -1,-3.9 v -7.3 -61 c 0,-3.3 2.7,-6 6,-6 h 108 c 1.4,0 2.8,0.4 4,1 -1.4,-2.4 -4,-4 -7,-4 h -106 c -4.4,0 -8,3.6 -8,8 v 59 7.3 c 0,3 1.6,5.6 4,6.9 1.2,0.7 2.5,1.1 4,1.1 h 2.4"
         id="path2204"
         inkscape:connector-curvature="0"
         style="opacity:0.75;fill:#ffffff;stroke-width:0.70226526" /><path
         class="st9"
         d="m 489,271.6 v 51.2 c 0,1 -0.8,1.7 -1.7,1.7 H 378.7 c -1.7,0 -3,-1.3 -3,-3 v 0 H 486 v -52.9 c 0,-0.2 0,-0.5 -0.1,-0.7 1.8,0.4 3.1,1.9 3.1,3.7 z"
         id="path2206"
         inkscape:connector-curvature="0"
         style="opacity:0.75;fill:#ffffff;stroke-width:0.70226526" /><path
         inkscape:connector-curvature="0"
         transform="matrix(0.9798,-0.1999,0.1999,0.9798,-61.2569,108.5744)"
         style="opacity:0.5;fill:#ffffff;stroke-width:0.70226526"
         d="m 512.10001,357.70001 a 5,1.8 0 0 1 -5,1.8 5,1.8 0 0 1 -5,-1.8 5,1.8 0 0 1 5,-1.8 5,1.8 0 0 1 5,1.8 z"
         id="ellipse2208" /><path
         class="st39"
         d="m 560.5,343.4 h 0.9 c 1.4,0 2.5,1.1 2.5,2.4 v 6 c 0,1.4 -1.1,2.4 -2.5,2.4 v 0 c -1.2,0 -2.2,-0.9 -2.4,-2.1 l -0.9,-6 c -0.3,-1.3 0.9,-2.7 2.4,-2.7 z"
         id="path2210"
         inkscape:connector-curvature="0"
         style="opacity:0.58999999;fill:#ffffff;stroke-width:0.70226526" /></g><g
       id="lines"
       style="stroke-width:0.70226526"><path
         class="st40"
         d="m 297.5,296.4 c 0,4.1 -3.3,7.4 -7.4,7.4 -2,0 -3.8,-0.8 -5.1,-2.1 l 10.4,-10.4 c 1.3,1.3 2.1,3.1 2.1,5.1 z"
         id="path2213"
         inkscape:connector-curvature="0"
         style="fill:none;stroke:#3a4061;stroke-width:1.40453053;stroke-linecap:round;stroke-linejoin:round;stroke-miterlimit:10" /><path
         class="st41"
         d="M 243,308.3"
         id="path2215"
         inkscape:connector-curvature="0"
         style="fill:none;stroke:#3a4061;stroke-width:2.80906105;stroke-linecap:round;stroke-linejoin:round;stroke-miterlimit:10" /><path
         class="st40"
         d="m 266.5,272.8 c -18.9,-5.4 -25.4,22.1 -25.2,34.7"
         id="path2217"
         inkscape:connector-curvature="0"
         style="fill:none;stroke:#3a4061;stroke-width:1.40453053;stroke-linecap:round;stroke-linejoin:round;stroke-miterlimit:10" /><path
         class="st40"
         d="m 236.4,320.4 c -1.4,12.4 9.6,12.3 17,12.6 10.6,0.4 16.9,2.8 16.9,12"
         id="path2219"
         inkscape:connector-curvature="0"
         style="fill:none;stroke:#3a4061;stroke-width:1.40453053;stroke-linecap:round;stroke-linejoin:round;stroke-miterlimit:10" /><path
         inkscape:connector-curvature="0"
         style="fill:#f0f0f2;stroke:#3a4061;stroke-width:0.70226526;stroke-miterlimit:10"
         d="m 434.99999,336.70001 a 3.2,3.2 0 0 1 -3.2,3.2 3.2,3.2 0 0 1 -3.2,-3.2 3.2,3.2 0 0 1 3.2,-3.2 3.2,3.2 0 0 1 3.2,3.2 z"
         id="circle2221" /><path
         class="st43"
         d="m 277.6,450.3 c 5.8,0 11.7,0 17.5,0"
         id="path2223"
         inkscape:connector-curvature="0"
         style="fill:none;stroke:#3a4061;stroke-width:4.2135911;stroke-linecap:round;stroke-linejoin:round;stroke-miterlimit:10" /><path
         class="st43"
         d="m 277.6,400.1 c 5.8,0 11.7,0 17.5,0"
         id="path2225"
         inkscape:connector-curvature="0"
         style="fill:none;stroke:#3a4061;stroke-width:4.2135911;stroke-linecap:round;stroke-linejoin:round;stroke-miterlimit:10" /><path
         class="st40"
         d="M 483.3,267.9 H 380.4 c -2.1,0 -3.8,1.7 -3.8,3.8 v 50.9 H 487 v -50.9 c 0,-2.1 -1.7,-3.8 -3.7,-3.8 z"
         id="path2227"
         inkscape:connector-curvature="0"
         style="fill:none;stroke:#3a4061;stroke-width:1.40453053;stroke-linecap:round;stroke-linejoin:round;stroke-miterlimit:10" /><path
         inkscape:connector-curvature="0"
         style="fill:none;stroke:#3a4061;stroke-width:1.40453053;stroke-linecap:round;stroke-linejoin:round;stroke-miterlimit:10"
         d="m 409,357.70001 h 15.20001"
         id="line2229" /><path
         inkscape:connector-curvature="0"
         style="fill:none;stroke:#3a4061;stroke-width:1.40453053;stroke-linecap:round;stroke-linejoin:round;stroke-miterlimit:10"
         d="m 429.10001,357.70001 h 2.69998"
         id="line2231" /><path
         inkscape:connector-curvature="0"
         style="fill:none;stroke:#3a4061;stroke-width:1.40453053;stroke-linecap:round;stroke-linejoin:round;stroke-miterlimit:10"
         d="M 573.09998,347.29999 H 554.5"
         id="line2233" /><path
         inkscape:connector-curvature="0"
         style="fill:none;stroke:#3a4061;stroke-width:1.40453053;stroke-linecap:round;stroke-linejoin:round;stroke-miterlimit:10"
         d="m 572.79999,351.89999 h -18"
         id="line2235" /><path
         inkscape:connector-curvature="0"
         style="fill:none;stroke:#3a4061;stroke-width:1.40453053;stroke-linecap:round;stroke-linejoin:round;stroke-miterlimit:10"
         d="m 384.10001,375 -13.5,13.5"
         id="line2237" /><path
         inkscape:connector-curvature="0"
         style="fill:none;stroke:#3a4061;stroke-width:1.40453053;stroke-linecap:round;stroke-linejoin:round;stroke-miterlimit:10"
         d="m 391.89999,375 -7.1,7.10001"
         id="line2239" /><path
         inkscape:connector-curvature="0"
         style="fill:none;stroke:#3a4061;stroke-width:1.40453053;stroke-linecap:round;stroke-linejoin:round;stroke-miterlimit:10"
         d="m 328.79999,425.20001 v 10.9"
         id="line2241" /><path
         inkscape:connector-curvature="0"
         style="fill:none;stroke:#3a4061;stroke-width:1.40453053;stroke-linecap:round;stroke-linejoin:round;stroke-miterlimit:10"
         d="m 507.70001,397.10001 4.89997,-5"
         id="line2243" /><path
         class="st40"
         d="M 540.9,375"
         id="path2245"
         inkscape:connector-curvature="0"
         style="fill:none;stroke:#3a4061;stroke-width:1.40453053;stroke-linecap:round;stroke-linejoin:round;stroke-miterlimit:10" /><path
         class="st44"
         d="m 480.6,349.9 -0.3,-3.8 -0.7,-9.4 -19.1,1.4 1,13.2 c 0.2,2.1 2,3.7 4.1,3.5 2.1,-0.2 3.7,-2 3.5,-4.1 l 7.7,-0.6 3.8,-0.2 3.8,-0.3 c 0.2,2.1 -1.4,3.9 -3.5,4.1 l -15.3,1.1"
         id="path2247"
         inkscape:connector-curvature="0"
         style="fill:none;stroke:#3a4061;stroke-width:1.40453053;stroke-linejoin:round;stroke-miterlimit:10" /><path
         class="st44"
         d="m 394.5,356.6 -14.2,-1.9 c -1.9,-0.3 -3.3,-2 -3,-4 l 3.5,0.5 3.5,0.5 7.2,1 c -0.3,1.8 1,3.6 3,3.9 2,0.3 3.7,-1.1 4,-3 l 1.6,-12.3 -17.7,-2.4 -1.2,8.8 -0.5,3.5"
         id="path2249"
         inkscape:connector-curvature="0"
         style="fill:none;stroke:#3a4061;stroke-width:1.40453053;stroke-linejoin:round;stroke-miterlimit:10" /><path
         inkscape:connector-curvature="0"
         style="fill:none;stroke:#3a4061;stroke-width:1.40453053;stroke-linejoin:round;stroke-miterlimit:10"
         d="m 463.89999,342.79999 13.20002,-1"
         id="line2251" /><path
         inkscape:connector-curvature="0"
         style="fill:none;stroke:#3a4061;stroke-width:1.40453053;stroke-linejoin:round;stroke-miterlimit:10"
         d="m 464.60001,347 6.79998,-0.5"
         id="line2253" /><path
         inkscape:connector-curvature="0"
         style="fill:none;stroke:#3a4061;stroke-width:1.40453053;stroke-linejoin:round;stroke-miterlimit:10"
         d="M 473.20001,346.39999 477.29999,346"
         id="line2255" /><g
         id="g2311"
         style="stroke-width:0.70226526"><path
           inkscape:connector-curvature="0"
           style="fill:none;stroke:#3a4061;stroke-width:2.45792818;stroke-linejoin:round;stroke-miterlimit:10"
           d="M 460.10001,344.70001 H 399.29999"
           id="line2257" /><path
           class="st45"
           d="m 381.3,344.7 h -2.4 c -4.4,0 -8,-3.6 -8,-8 v -7.3 -59 c 0,-4.4 3.6,-8 8,-8 h 106 c 4.4,0 8,3.6 8,8 v 66.3 c 0,4.4 -3.6,8 -8,8 h -5.5"
           id="path2259"
           inkscape:connector-curvature="0"
           style="fill:none;stroke:#3a4061;stroke-width:2.45792818;stroke-linejoin:round;stroke-miterlimit:10" /><path
           inkscape:connector-curvature="0"
           style="fill:none;stroke:#3a4061;stroke-width:2.45792818;stroke-linecap:round;stroke-linejoin:round;stroke-miterlimit:10"
           d="m 492.79999,328 h -122"
           id="line2261" /><path
           class="st46"
           d="m 278.1,353.7 h 6 c 3.9,0 7.1,3.2 7.1,7.1 v 2.2 h -43.7 v -2.2 c 0,-3.9 3.2,-7.1 7.1,-7.1 h 6"
           id="path2263"
           inkscape:connector-curvature="0"
           style="fill:none;stroke:#3a4061;stroke-width:2.45792818;stroke-linecap:round;stroke-linejoin:round;stroke-miterlimit:10" /><path
           class="st46"
           d="m 278.1,353.7 h -17.5 c 0,-4.8 3.9,-8.8 8.8,-8.8 4.9,0 8.7,3.9 8.7,8.8 z"
           id="path2265"
           inkscape:connector-curvature="0"
           style="fill:none;stroke:#3a4061;stroke-width:2.45792818;stroke-linecap:round;stroke-linejoin:round;stroke-miterlimit:10" /><path
           class="st46"
           d="m 276,272.8 -9.6,9.6 c -2.6,-2.6 -2.6,-6.9 0,-9.6 2.7,-2.7 7,-2.7 9.6,0 z"
           id="path2267"
           inkscape:connector-curvature="0"
           style="fill:none;stroke:#3a4061;stroke-width:2.45792818;stroke-linecap:round;stroke-linejoin:round;stroke-miterlimit:10" /><path
           inkscape:connector-curvature="0"
           style="fill:none;stroke:#3a4061;stroke-width:2.45792818;stroke-linecap:round;stroke-linejoin:round;stroke-miterlimit:10"
           d="m 245.89999,313.89999 a 7,7 0 0 1 -7,7 7,7 0 0 1 -7,-7 7,7 0 0 1 7,-7 7,7 0 0 1 7,7 z"
           id="circle2269" /><path
           inkscape:connector-curvature="0"
           style="fill:none;stroke:#3a4061;stroke-width:2.45792818;stroke-linecap:round;stroke-linejoin:round;stroke-miterlimit:10"
           d="M 265.70001,345.70001 241,321.10001"
           id="line2271" /><path
           class="st46"
           d="m 266.4,282.3 c -2.1,5.7 -0.9,12.4 3.7,17 l 8.6,8.6 6.2,-6.2 10.4,-10.4 6.2,-6.2 -8.6,-8.6 c -3.2,-3.1 -7.3,-4.7 -11.4,-4.7 -1.9,0 -3.8,0.3 -5.6,1"
           id="path2273"
           inkscape:connector-curvature="0"
           style="fill:none;stroke:#3a4061;stroke-width:2.45792818;stroke-linecap:round;stroke-linejoin:round;stroke-miterlimit:10" /><path
           inkscape:connector-curvature="0"
           style="fill:none;stroke:#3a4061;stroke-width:2.45792818;stroke-linecap:round;stroke-linejoin:round;stroke-miterlimit:10"
           d="m 241.39999,307.39999 25,-25.1"
           id="line2275" /><path
           class="st46"
           d="m 342.5,362 h -7.6 c -4.5,0 -8.2,-3.7 -8.2,-8.2 v -18.7 h 24 v 18.7 c 0,4.5 -3.7,8.2 -8.2,8.2 z"
           id="path2277"
           inkscape:connector-curvature="0"
           style="fill:none;stroke:#3a4061;stroke-width:2.45792818;stroke-linecap:round;stroke-linejoin:round;stroke-miterlimit:10" /><path
           class="st46"
           d="M 588.3,375 H 225.8 c -3.3,0 -6,-2.7 -6,-6 v 0 c 0,-3.3 2.7,-6 6,-6 h 362.5 c 3.3,0 6,2.7 6,6 v 0 c 0,3.3 -2.7,6 -6,6 z"
           id="path2279"
           inkscape:connector-curvature="0"
           style="fill:none;stroke:#3a4061;stroke-width:2.45792818;stroke-linecap:round;stroke-linejoin:round;stroke-miterlimit:10" /><path
           class="st46"
           d="m 350.7,353.7 h 2.2 c 1.8,0 3.4,-0.7 4.6,-1.9 1.2,-1.2 1.9,-2.8 1.9,-4.6 0,-3.6 -2.9,-6.5 -6.5,-6.5 h -2.2"
           id="path2281"
           inkscape:connector-curvature="0"
           style="fill:none;stroke:#3a4061;stroke-width:2.45792818;stroke-linecap:round;stroke-linejoin:round;stroke-miterlimit:10" /><path
           inkscape:connector-curvature="0"
           style="fill:none;stroke:#3a4061;stroke-width:2.45792818;stroke-linecap:round;stroke-linejoin:round;stroke-miterlimit:10"
           d="M 238.89999,375 H 334.7 v 100.4 h -95.80001 z"
           id="rect2283" /><path
           inkscape:connector-curvature="0"
           style="fill:none;stroke:#3a4061;stroke-width:2.45792818;stroke-linecap:round;stroke-linejoin:round;stroke-miterlimit:10"
           d="M 334.70001,425.20001 H 238.89999"
           id="line2285" /><path
           inkscape:connector-curvature="0"
           style="fill:none;stroke:#3a4061;stroke-width:2.45792818;stroke-linecap:round;stroke-linejoin:round;stroke-miterlimit:10"
           d="m 251.2,435.10001 h 71.1 v 30.4 h -71.1 z"
           id="rect2287" /><path
           inkscape:connector-curvature="0"
           style="fill:none;stroke:#3a4061;stroke-width:2.45792818;stroke-linecap:round;stroke-linejoin:round;stroke-miterlimit:10"
           d="m 251.2,384.89999 h 71.1 v 30.4 h -71.1 z"
           id="rect2289" /><path
           class="st46"
           d="m 442.6,344.7 c 1.6,7.3 5.3,12 12.1,12 1.5,0 2.8,0.7 3.8,1.8 1,1.2 1.6,2.7 1.6,4.5 h -56.5 c 0,-3.5 2.4,-6.3 5.4,-6.3 4.3,0 7.7,-1.8 10.1,-5 1.4,-1.9 1.4,-4.2 2,-7"
           id="path2291"
           inkscape:connector-curvature="0"
           style="fill:none;stroke:#3a4061;stroke-width:2.45792818;stroke-linecap:round;stroke-linejoin:round;stroke-miterlimit:10" /><path
           inkscape:connector-curvature="0"
           style="fill:none;stroke:#3a4061;stroke-width:2.45792818;stroke-linecap:round;stroke-linejoin:round;stroke-miterlimit:10"
           d="m 562.79999,375 h 12.4 v 100.4 h -12.4 z"
           id="rect2293" /><path
           inkscape:connector-curvature="0"
           style="fill:none;stroke:#3a4061;stroke-width:2.45792818;stroke-miterlimit:10"
           d="m 334.79999,375 h 228 v 22.1 h -228 z"
           id="rect2295" /><path
           class="st46"
           d="m 559.3,363 h 8.9 c 2,0 3.6,-1.8 3.8,-4.3 l 1.5,-18.4 H 554 l 1.5,18.4 c 0.2,2.5 1.9,4.3 3.8,4.3 z"
           id="path2297"
           inkscape:connector-curvature="0"
           style="fill:none;stroke:#3a4061;stroke-width:2.45792818;stroke-linecap:round;stroke-linejoin:round;stroke-miterlimit:10" /><path
           inkscape:connector-curvature="0"
           style="fill:none;stroke:#3a4061;stroke-width:2.45792818;stroke-linecap:round;stroke-linejoin:round;stroke-miterlimit:10"
           d="M 214.89999,475.39999 H 608.09998"
           id="line2299" /><path
           inkscape:connector-curvature="0"
           style="fill:none;stroke:#3a4061;stroke-width:2.45792818;stroke-linecap:round;stroke-linejoin:round;stroke-miterlimit:10"
           d="m 207.39999,475.39999 h -8"
           id="line2301" /><path
           inkscape:connector-curvature="0"
           style="fill:none;stroke:#3a4061;stroke-width:2.45792818;stroke-linecap:round;stroke-linejoin:round;stroke-miterlimit:10"
           d="m 615.09998,475.39999 v 0"
           id="line2303" /><path
           class="st46"
           d="m 498.8,363 c 0.2,-4.4 5.2,-8 11.2,-8 6,0 11,3.6 11.3,8"
           id="path2305"
           inkscape:connector-curvature="0"
           style="fill:none;stroke:#3a4061;stroke-width:2.45792818;stroke-linecap:round;stroke-linejoin:round;stroke-miterlimit:10" /><path
           inkscape:connector-curvature="0"
           style="fill:none;stroke:#3a4061;stroke-width:2.45792818;stroke-linecap:round;stroke-linejoin:round;stroke-miterlimit:10"
           d="m 572.09998,323.60001 -2.29999,16.69998"
           id="line2307" /><path
           inkscape:connector-curvature="0"
           style="fill:none;stroke:#3a4061;stroke-width:2.45792818;stroke-linecap:round;stroke-linejoin:round;stroke-miterlimit:10"
           d="m 562.90002,340.29999 v -11.5"
           id="line2309" /></g><path
         inkscape:connector-curvature="0"
         style="fill:none;stroke:#3a4061;stroke-width:1.40453053;stroke-linejoin:round;stroke-miterlimit:10"
         d="m 384.29999,347.20001 8.6,1.09998"
         id="line2313" /><path
         inkscape:connector-curvature="0"
         style="fill:none;stroke:#3a4061;stroke-width:1.40453053;stroke-linejoin:round;stroke-miterlimit:10"
         d="m 385,343.5 10.5,1.39999"
         id="line2315" /><path
         inkscape:connector-curvature="0"
         style="fill:none;stroke:#3a4061;stroke-width:1.40453053;stroke-linecap:round;stroke-linejoin:round;stroke-miterlimit:10"
         d="m 283.10001,295.5 v 0"
         id="line2317" /><path
         inkscape:connector-curvature="0"
         style="fill:none;stroke:#3a4061;stroke-width:1.40453053;stroke-linecap:round;stroke-linejoin:round;stroke-miterlimit:10"
         d="m 280.60001,298 -5.70002,5.79999"
         id="line2319" /></g></g></svg>