<?xml version="1.0" encoding="UTF-8" standalone="no"?>
<!-- Generator: Adobe Illustrator 21.0.0, SVG Export Plug-In . SVG Version: 6.00 Build 0)  -->

<svg
   xmlns:dc="http://purl.org/dc/elements/1.1/"
   xmlns:cc="http://creativecommons.org/ns#"
   xmlns:rdf="http://www.w3.org/1999/02/22-rdf-syntax-ns#"
   xmlns:svg="http://www.w3.org/2000/svg"
   xmlns="http://www.w3.org/2000/svg"
   xmlns:sodipodi="http://sodipodi.sourceforge.net/DTD/sodipodi-0.dtd"
   xmlns:inkscape="http://www.inkscape.org/namespaces/inkscape"
   version="1.1"
   x="0px"
   y="0px"
   viewBox="0 0 430 230"
   xml:space="preserve"
   id="svg752"
   sodipodi:docname="workspace-hero.svg"
   width="430"
   height="230"
   inkscape:version="0.92.2 (5c3e80d, 2017-08-06)"><metadata
     id="metadata758"><rdf:RDF><cc:Work
         rdf:about=""><dc:format>image/svg+xml</dc:format><dc:type
           rdf:resource="http://purl.org/dc/dcmitype/StillImage" /><dc:title /></cc:Work></rdf:RDF></metadata><defs
     id="defs756" /><sodipodi:namedview
     pagecolor="#ffffff"
     bordercolor="#666666"
     borderopacity="1"
     objecttolerance="10"
     gridtolerance="10"
     guidetolerance="10"
     inkscape:pageopacity="0"
     inkscape:pageshadow="2"
     inkscape:window-width="1366"
     inkscape:window-height="745"
     id="namedview754"
     showgrid="false"
     inkscape:zoom="1.5733333"
     inkscape:cx="252.4131"
     inkscape:cy="100.6084"
     inkscape:window-x="-8"
     inkscape:window-y="-8"
     inkscape:window-maximized="1"
     inkscape:current-layer="svg752" /><style
     type="text/css"
     id="style2">
	.st0{fill:#FAF4ED;}
	.st1{fill:#F5F5F7;}
	.st2{fill:#F7F7F7;}
	.st3{fill:#F7FEFF;}
	.st4{opacity:4.000000e-02;fill:#141414;}
	.st5{fill:#FFFFFF;}
	.st6{opacity:5.000000e-02;fill:#141414;}
	.st7{opacity:3.000000e-02;fill:#141414;}
	.st8{opacity:0.5;fill:#FFFFFF;}
	.st9{opacity:0.75;fill:#FFFFFF;}
	.st10{opacity:0.7;fill:#FFFFFF;}
	.st11{opacity:2.000000e-02;fill:#141414;}
	.st12{fill:#141414;}
	.st13{fill:none;stroke:#DCDEE8;stroke-width:3;stroke-linecap:round;stroke-linejoin:round;stroke-miterlimit:10;}
	.st14{fill:none;stroke:#DCDEE8;stroke-width:6;stroke-linecap:round;stroke-linejoin:round;stroke-miterlimit:10;}
	.st15{fill:none;stroke:#DCDEE8;stroke-width:1.5;stroke-linecap:round;stroke-linejoin:round;stroke-miterlimit:10;}
	.st16{fill:none;stroke:#DCDEE8;stroke-width:4;stroke-linecap:round;stroke-linejoin:round;stroke-miterlimit:10;}
	.st17{fill:none;stroke:#DCDEE8;stroke-width:2;stroke-linecap:round;stroke-linejoin:round;stroke-miterlimit:10;}
	.st18{fill:none;stroke:#DCDEE8;stroke-width:3;stroke-linejoin:round;stroke-miterlimit:10;}
	.st19{fill:#EBB886;}
	.st20{fill:#48FFFF;}
	.st21{fill:#D2FFFE;}
	.st22{fill:#E2E2E2;}
	.st23{fill:#51576B;}
	.st24{fill:#D1F7C9;}
	.st25{fill:#FFF5DE;}
	.st26{fill:#FF7382;}
	.st27{fill:#00D3FF;}
	.st28{fill:#FFE499;}
	.st29{fill:#BEE1E5;}
	.st30{opacity:0.35;fill:#141414;}
	.st31{opacity:0.35;fill:#FFFFFF;}
	.st32{opacity:0.15;fill:#FFFFFF;}
	.st33{opacity:8.000000e-02;fill:#141414;}
	.st34{opacity:0.12;fill:#141414;}
	.st35{opacity:0.3;fill:#FFFFFF;}
	.st36{opacity:0.25;fill:#141414;}
	.st37{opacity:0.15;fill:#141414;}
	.st38{opacity:0.1;fill:#141414;}
	.st39{opacity:0.59;fill:#FFFFFF;}
	.st40{fill:none;stroke:#3A4061;stroke-width:2;stroke-linecap:round;stroke-linejoin:round;stroke-miterlimit:10;}
	.st41{fill:none;stroke:#3A4061;stroke-width:4;stroke-linecap:round;stroke-linejoin:round;stroke-miterlimit:10;}
	.st42{fill:#F0F0F2;stroke:#3A4061;stroke-miterlimit:10;}
	.st43{fill:none;stroke:#3A4061;stroke-width:6;stroke-linecap:round;stroke-linejoin:round;stroke-miterlimit:10;}
	.st44{fill:none;stroke:#3A4061;stroke-width:2;stroke-linejoin:round;stroke-miterlimit:10;}
	.st45{fill:none;stroke:#3A4061;stroke-width:3.5;stroke-linejoin:round;stroke-miterlimit:10;}
	.st46{fill:none;stroke:#3A4061;stroke-width:3.5;stroke-linecap:round;stroke-linejoin:round;stroke-miterlimit:10;}
	.st47{fill:none;stroke:#3A4061;stroke-width:3.5;stroke-miterlimit:10;}
</style><g
     id="g1228"
     transform="translate(-1.6906919)"><path
       style="fill:#ebb886"
       inkscape:connector-curvature="0"
       id="path481"
       d="m 397.74071,110.25693 c 3.3,0 6,2.7 6,6 0,1.7 -0.7,3.2 -1.8,4.2 -1.1,1.1 -2.6,1.8 -4.2,1.8 h -13.1 -12.4 v 0 h -228 v 0 h -95.8 -13.1 c -3.3,0 -6,-2.7 -6,-6 0,-1.7 0.7,-3.2 1.8,-4.2 1.1,-1.1 2.6,-1.8 4.2,-1.8 h 21.8 43.7 112.4 56.5 38.7 22.5 38 8.9 z"
       class="st19" /><path
       style="fill:#ebb886"
       inkscape:connector-curvature="0"
       id="path483"
       d="m 384.54071,122.25693 v 94.2 c 0,3.4 -2.8,6.2 -6.2,6.2 -3.4,0 -6.2,-2.8 -6.2,-6.2 v -94.2 z"
       class="st19" /><polygon
       transform="translate(-202.55929,-252.74307)"
       style="fill:#48ffff"
       id="polygon485"
       points="554.6,347.3 554.1,340.3 573.6,340.3 573,347.3 "
       class="st20" /><polygon
       transform="translate(-202.55929,-252.74307)"
       style="fill:#d2fffe"
       id="polygon487"
       points="555,351.9 554.6,347.3 573,347.3 572.6,351.9 "
       class="st21" /><path
       style="fill:#48ffff"
       inkscape:connector-curvature="0"
       id="path489"
       d="m 370.04071,99.15693 -0.5,6.8 c -0.2,2.4 -1.8,4.3 -3.8,4.3 h -8.9 c -2,0 -3.6,-1.8 -3.8,-4.3 l -0.5,-6.8 z"
       class="st20" /><rect
       style="fill:#ebb886"
       id="rect491"
       height="22.1"
       width="228"
       class="st19"
       y="122.25693"
       x="144.24069" /><path
       style="fill:#e2e2e2"
       inkscape:connector-curvature="0"
       id="path493"
       d="m 312.74071,110.25693 h -22.5 c 0.2,-4.5 5.2,-8 11.2,-8 6,0 11.1,3.5 11.3,8 z"
       class="st22" /><path
       style="fill:#ebb886"
       inkscape:connector-curvature="0"
       id="path513"
       d="m 144.14071,172.45693 v 50.2 h -95.8 v -50.2 z m -12.3,40.3 v -30.5 h -71.1 v 30.5 z"
       class="st19" /><path
       style="fill:#ebb886"
       inkscape:connector-curvature="0"
       id="path515"
       d="m 144.14071,122.25693 v 50.2 h -95.8 v -50.2 z m -12.3,40.3 v -30.4 h -71.1 v 30.4 z"
       class="st19" /><rect
       style="fill:#ebb886"
       id="rect517"
       height="30.5"
       width="71.099998"
       class="st19"
       y="182.35693"
       x="60.640705" /><rect
       style="fill:#ebb886"
       id="rect519"
       height="30.5"
       width="71.099998"
       class="st19"
       y="132.15692"
       x="60.640705" /><path
       style="fill:#00d3ff"
       inkscape:connector-curvature="0"
       id="path521"
       d="m 102.44071,23.75693 8.6,8.6 -6.2,6.2 -10.4,10.4 -6.2,6.2 -8.6,-8.6 c -4.6,-4.6 -5.9,-11.3 -3.7,-17 v 0 l 9.6,-9.6 v 0 c 1.8,-0.7 3.7,-1 5.6,-1 4,0.1 8.2,1.6 11.3,4.8 z"
       class="st27" /><path
       style="fill:#ffe499"
       inkscape:connector-curvature="0"
       id="path523"
       d="m 104.84071,38.55693 c 1.3,1.3 2.1,3.1 2.1,5.1 0,4.1 -3.3,7.4 -7.4,7.4 -2,0 -3.8,-0.8 -5.1,-2.1 z"
       class="st28" /><path
       style="fill:#00d3ff"
       inkscape:connector-curvature="0"
       id="path525"
       d="m 100.64071,108.05693 v 2.2 h -43.7 v -2.2 c 0,-3.9 3.2,-7.1 7.1,-7.1 h 6 17.5 6 c 3.9,0 7.1,3.1 7.1,7.1 z"
       class="st27" /><path
       style="fill:#00d3ff"
       inkscape:connector-curvature="0"
       id="path527"
       d="m 87.54071,100.95693 h -17.5 c 0,-4.8 3.9,-8.8 8.8,-8.8 4.8,0 8.7,3.9 8.7,8.8 z"
       class="st27" /><path
       style="fill:#00d3ff"
       inkscape:connector-curvature="0"
       id="path529"
       d="m 85.44071,20.05693 -9.6,9.6 c -2.6,-2.6 -2.6,-6.9 0,-9.6 2.7,-2.7 7,-2.7 9.6,0 z"
       class="st27" /><path
       style="fill:#bee1e5"
       inkscape:connector-curvature="0"
       id="path531"
       d="m 48.34071,54.15693 c 3.9,0 7,3.1 7,7 0,3.8 -3.1,6.9 -7,6.9 -3.8,0 -6.9,-3.1 -6.9,-6.9 -0.1,-3.9 3.1,-7 6.9,-7 z"
       class="st29" /><rect
       style="opacity:0.35;fill:#141414"
       id="rect539"
       height="20"
       width="227.60001"
       class="st30"
       y="123.95694"
       x="144.14072" /><rect
       style="opacity:0.25;fill:#141414"
       id="rect565"
       height="5.6999998"
       width="95.900002"
       class="st36"
       y="122.05692"
       x="48.340702" /><path
       inkscape:connector-curvature="0"
       id="path567"
       d="m 75.34071,38.95693 c 14,12.1 31.5,-1.3 30.4,-12 l 5.3,5.3 c -4.7,4.7 -9.4,9.4 -14.2,14.2 -2.9,2.9 -5.8,5.8 -8.7,8.7 -4.1,-4.4 -8.2,-8.7 -12.3,-13 z"
       class="st33" /><path
       style="opacity:0.15;fill:#141414"
       inkscape:connector-curvature="0"
       id="path569"
       d="m 94.44071,101.45693 c 0,-0.1 0,-0.3 0,-0.5 l 0.8,0.5 z"
       class="st37" /><path
       inkscape:connector-curvature="0"
       id="path571"
       d="m 99.44071,104.05693 -1,-0.6 -3.2,-2 h -0.8 c 0,1.1 -0.8,2.1 -2.2,2.8 -6.3,3.5 -24.6,3 -35.2,2.5 l -0.5,3.5 h 44.8 z"
       class="st33" /><path
       style="opacity:0.5;fill:#ffffff"
       inkscape:connector-curvature="0"
       id="path573"
       d="m 59.14071,101.45693 h 35.3 c 0,1.1 -0.8,2.1 -2.2,2.8 h -33.1 z"
       class="st8" /><polygon
       transform="translate(-190.55929,-252.74307)"
       style="opacity:0.3;fill:#ffffff"
       id="polygon575"
       points="289,354.2 289,356.2 285.8,354.2 "
       class="st35" /><path
       style="opacity:0.1;fill:#141414"
       inkscape:connector-curvature="0"
       id="path577"
       d="m 300.94071,122.25693 c 27.5,0.3 52.4,-1.1 53.2,-12 h 47.3 l 2.2,6 -3,5.2 -43.8,0.8 z"
       class="st38" /><path
       style="opacity:0.15;fill:#141414"
       inkscape:connector-curvature="0"
       id="path579"
       d="m 373.24071,120.65693 h -125.8 c -4.2,-0.2 -8.5,-0.3 -12.7,0 h -90.5 v 7.1 h 127.3 c 9,0 17.9,2.9 24.9,8.5 2.6,2.1 4.7,4.3 6,6.5 h 69.8 l 0.7,-15 h 0.3 z"
       class="st37" /><polygon
       transform="translate(-190.55929,-252.74307)"
       style="opacity:0.3;fill:#ffffff"
       id="polygon581"
       points="274,475.4 238.9,475.4 273.9,475.4 "
       class="st35" /><path
       style="opacity:0.1;fill:#141414"
       inkscape:connector-curvature="0"
       id="path583"
       d="m 131.84071,156.85693 c 5.5,-0.6 9.7,-2.4 12.3,-3.8 v 19.3 h -55.6 -40.2 v -5.5 c 19.5,0.1 83.5,-4.3 83.5,-4.3 z"
       class="st38" /><path
       style="opacity:0.35;fill:#ffffff"
       inkscape:connector-curvature="0"
       id="path585"
       d="m 57.24071,219.45693 c -1.8,-0.2 -3.4,-1.1 -4.5,-2.4 -0.9,-1.1 -1.5,-2.4 -1.6,-3.8 l -2.9,-29.4 v 33.3 5.5 h 35 z"
       class="st31" /><path
       style="opacity:0.1;fill:#141414"
       inkscape:connector-curvature="0"
       id="path587"
       d="m 144.14071,203.35693 v 19.3 h -60.8 l -26.1,-3.2 c -1.8,-0.2 -3.4,-1.1 -4.5,-2.4 23.3,-0.4 79,-4.3 79,-4.3 v -5.7 c 5.6,-0.6 9.8,-2.4 12.4,-3.7 z"
       class="st38" /><path
       inkscape:connector-curvature="0"
       id="path589"
       d="m 371.34071,87.55693 h -4.8 c 0.1,1.2 0.2,2.4 0.2,3.5 -0.1,4.5 -1.5,8.6 -3.7,11.9 -1.2,1.8 -3.3,2.9 -5.4,2.9 h -3.1 v 3.9 c -0.4,0.1 -0.9,0.3 -1.3,0.4 l -0.8,0.1 h 2.1 v 0 h 15 v -4.5 0 l 1.5,-14.7 z"
       class="st33" /><path
       style="opacity:0.3;fill:#ffffff"
       inkscape:connector-curvature="0"
       id="path591"
       d="m 366.64071,87.55693 c 0.1,1.2 0.2,2.4 0.2,3.5 h -15.3 v -3.5 z"
       class="st35" /><polygon
       transform="translate(-202.55929,-252.74307)"
       style="fill:#141414"
       id="polygon593"
       points="573.9,343.8 573.6,343.8 573.9,340.3 "
       class="st12" /><path
       style="opacity:0.35;fill:#ffffff"
       inkscape:connector-curvature="0"
       id="path597"
       d="m 95.94071,19.95693 -8.6,-0.9 -4,3.4 v 0 c 0,0.3 0,0.7 0.1,1 l -1.8,-0.4 -7.2,7.8 0.4,5.5 7,-7.2 c 1.2,-1.3 3.3,-1.3 4.5,0 0.1,0.1 0.3,0.3 0.4,0.4 1.5,1.2 3.4,1.9 5.5,1.9 3.4,0 6.4,-1.9 7.9,-4.8 0.5,-0.9 0.8,-2 1,-3 z"
       class="st31" /><path
       style="opacity:0.15;fill:#ffffff"
       inkscape:connector-curvature="0"
       id="path599"
       d="m 288.64071,139.35693 h -60.7 -7.2 -60.7 c -2.8,0 -7.3,0.5 -11.1,5 h 71.8 7.2 71.8 c -3.8,-4.5 -8.3,-5 -11.1,-5 z"
       class="st32" /><circle
       style="opacity:0.25;fill:#141414"
       id="circle601"
       r="1.8"
       cy="61.156925"
       cx="48.340702"
       class="st36" /><path
       style="opacity:0.3;fill:#ffffff"
       inkscape:connector-curvature="0"
       id="path603"
       d="m 43.24071,63.35693 c 0,-3.4 2.8,-6.2 6.2,-6.2 3.4,0 6.2,2.8 6.2,6.2 l -1.8,-7.3 -5.9,-2.5 -4.8,2.9 -1.9,4.3 z"
       class="st35" /><path
       style="opacity:0.15;fill:#141414"
       inkscape:connector-curvature="0"
       id="path605"
       d="m 53.14071,57.55693 c 0.8,3.3 -1.3,6.7 -4.6,7.5 -3.3,0.8 -6.7,-1.3 -7.5,-4.6 l 3.4,6.7 6.3,1.1 4,-3.9 0.8,-4.7 z"
       class="st37" /><path
       style="opacity:0.15;fill:#141414"
       inkscape:connector-curvature="0"
       id="path607"
       d="m 100.64071,47.35693 5.9,-5.9 -1.7,-3 -7.2,7.3 c -0.1,-0.1 -0.1,-0.1 -0.2,-0.2 l -1.5,1.8 v 0 0 l -0.9,1.1 -0.6,0.8 2.8,1.2 6.1,-0.5 3.3,-3.1 v -1.4 c -1.1,1.6 -3.7,2.4 -6,1.9 z"
       class="st37" /><ellipse
       style="opacity:0.35;fill:#ffffff"
       id="ellipse609"
       ry="2"
       rx="3.2"
       cy="24.256929"
       cx="90.2407"
       class="st31" /><polygon
       transform="translate(-190.55929,-252.74307)"
       style="opacity:0.5;fill:#ffffff"
       id="polygon611"
       points="265.5,281.8 264.5,276.6 270.2,269.4 274.6,272.4 "
       class="st8" /><ellipse
       style="opacity:0.5;fill:#ffffff;stroke-width:0.99998629"
       id="ellipse613"
       ry="2.0999713"
       rx="3.8999467"
       cy="117.86584"
       cx="33.510426"
       class="st8"
       transform="rotate(-22.954831)" /><path
       style="opacity:0.35;fill:#ffffff"
       inkscape:connector-curvature="0"
       id="path615"
       d="m 404.04071,114.25693 c -0.1,0 -0.1,0 -0.2,0 h -366.5 c -1.7,0 -3.2,0.7 -4.2,1.8 -1.1,1.1 -1.8,2.6 -1.8,4.2 0,1.1 -2.2,-9 1,-9 h 366.5 c 2.3,0 4.2,1.2 5.2,3 z"
       class="st31" /><rect
       style="opacity:0.25;fill:#141414"
       id="rect617"
       height="7"
       width="12.9"
       class="st36"
       y="121.95694"
       x="371.74069" /><path
       style="opacity:0.1;fill:#141414"
       inkscape:connector-curvature="0"
       id="path619"
       d="m 372.24071,201.45693 c 0,6.3 12.4,5.9 12.4,-29 0,35.8 0,50.2 0,50.2 h -6.2 -6.2 z"
       class="st38" /><path
       style="opacity:0.1;fill:#141414"
       inkscape:connector-curvature="0"
       id="path621"
       d="m 61.64071,205.75693 c 0,4.5 70.2,5.8 70.2,-15.2 0,28.2 0,22.2 0,22.2 h -70.2 z"
       class="st38" /><path
       style="opacity:0.1;fill:#141414"
       inkscape:connector-curvature="0"
       id="path623"
       d="m 61.64071,155.75693 c 0,4.5 70.2,5.8 70.2,-15.2 0,28.2 0,22.2 0,22.2 h -70.2 z"
       class="st38" /><path
       style="opacity:0.35;fill:#ffffff"
       inkscape:connector-curvature="0"
       id="path625"
       d="m 131.84071,182.35693 h -71.1 v 2.8 h -0.2 l 2.2,19.4 2.5,-15.4 c 0.2,-1.4 1.4,-2.4 2.8,-2.4 h 63.9 v -4.4 z"
       class="st31" /><path
       style="opacity:0.35;fill:#ffffff"
       inkscape:connector-curvature="0"
       id="path627"
       d="m 131.84071,132.15693 h -71.1 v 4.4 l 0.9,16.6 3.3,-14.4 c 0.3,-1.3 1.4,-2.2 2.7,-2.2 h 64.2 z"
       class="st31" /><path
       style="opacity:0.35;fill:#ffffff"
       inkscape:connector-curvature="0"
       id="path629"
       d="m 144.64071,173.05693 h -95.9 v 3.4 l 1.3,11.8 2,-9.4 c 0.3,-1.4 1.5,-2.4 3,-2.4 h 89.6 z"
       class="st31" /><ellipse
       style="opacity:0.5;fill:#ffffff;stroke-width:0.99998403"
       id="ellipse637"
       ry="1.7999712"
       rx="4.9999199"
       cy="162.49843"
       cx="271.54163"
       class="st8"
       transform="rotate(-11.531298)" /><path
       style="opacity:0.58999999;fill:#ffffff"
       inkscape:connector-curvature="0"
       id="path639"
       d="m 357.94071,90.65693 h 0.9 c 1.4,0 2.5,1.1 2.5,2.4 v 6 c 0,1.4 -1.1,2.4 -2.5,2.4 v 0 c -1.2,0 -2.2,-0.9 -2.4,-2.1 l -0.9,-6 c -0.3,-1.3 0.9,-2.7 2.4,-2.7 z"
       class="st39" /><path
       style="fill:#ffffff;stroke:#3a4061;stroke-width:2;stroke-linecap:round;stroke-linejoin:round;stroke-miterlimit:10"
       inkscape:connector-curvature="0"
       id="path642"
       d="m 106.94071,43.65693 c 0,4.1 -3.3,7.4 -7.4,7.4 -2,0 -3.8,-0.8 -5.1,-2.1 l 10.4,-10.4 c 1.3,1.3 2.1,3.1 2.1,5.1 z"
       class="st40" /><path
       style="fill:none;stroke:#3a4061;stroke-width:4;stroke-linecap:round;stroke-linejoin:round;stroke-miterlimit:10"
       inkscape:connector-curvature="0"
       id="path644"
       d="M 52.44071,55.55693"
       class="st41" /><path
       style="fill:none;stroke:#3a4061;stroke-width:2;stroke-linecap:round;stroke-linejoin:round;stroke-miterlimit:10"
       inkscape:connector-curvature="0"
       id="path646"
       d="m 75.94071,20.05693 c -18.9,-5.4 -25.4,22.1 -25.2,34.7"
       class="st40" /><path
       style="fill:none;stroke:#3a4061;stroke-width:2;stroke-linecap:round;stroke-linejoin:round;stroke-miterlimit:10"
       inkscape:connector-curvature="0"
       id="path648"
       d="m 45.84071,67.65693 c -1.4,12.4 9.6,12.3 17,12.6 10.6,0.4 16.9,2.8 16.9,12"
       class="st40" /><path
       style="fill:none;stroke:#3a4061;stroke-width:6;stroke-linecap:round;stroke-linejoin:round;stroke-miterlimit:10"
       inkscape:connector-curvature="0"
       id="path652"
       d="m 87.04071,197.55693 c 5.8,0 11.7,0 17.5,0"
       class="st43" /><path
       style="fill:none;stroke:#3a4061;stroke-width:6;stroke-linecap:round;stroke-linejoin:round;stroke-miterlimit:10"
       inkscape:connector-curvature="0"
       id="path654"
       d="m 87.04071,147.35693 c 5.8,0 11.7,0 17.5,0"
       class="st43" /><line
       style="fill:none;stroke:#3a4061;stroke-width:2;stroke-linecap:round;stroke-linejoin:round;stroke-miterlimit:10"
       id="line662"
       y2="94.556915"
       x2="351.9407"
       y1="94.556915"
       x1="370.54068"
       class="st40" /><line
       style="fill:none;stroke:#3a4061;stroke-width:2;stroke-linecap:round;stroke-linejoin:round;stroke-miterlimit:10"
       id="line664"
       y2="99.156921"
       x2="352.24069"
       y1="99.156921"
       x1="370.24069"
       class="st40" /><line
       style="fill:none;stroke:#3a4061;stroke-width:2;stroke-linecap:round;stroke-linejoin:round;stroke-miterlimit:10"
       id="line666"
       y2="135.75693"
       x2="180.04071"
       y1="122.25693"
       x1="193.54071"
       class="st40" /><line
       style="fill:none;stroke:#3a4061;stroke-width:2;stroke-linecap:round;stroke-linejoin:round;stroke-miterlimit:10"
       id="line668"
       y2="129.35693"
       x2="194.24069"
       y1="122.25693"
       x1="201.3407"
       class="st40" /><line
       style="fill:none;stroke:#3a4061;stroke-width:2;stroke-linecap:round;stroke-linejoin:round;stroke-miterlimit:10"
       id="line670"
       y2="183.35693"
       x2="138.24069"
       y1="172.45694"
       x1="138.24069"
       class="st40" /><line
       style="fill:none;stroke:#3a4061;stroke-width:2;stroke-linecap:round;stroke-linejoin:round;stroke-miterlimit:10"
       id="line672"
       y2="139.35693"
       x2="322.04068"
       y1="144.35693"
       x1="317.14072"
       class="st40" /><path
       style="fill:none;stroke:#3a4061;stroke-width:2;stroke-linecap:round;stroke-linejoin:round;stroke-miterlimit:10"
       inkscape:connector-curvature="0"
       id="path674"
       d="M 350.34071,122.25693"
       class="st40" /><path
       class="st46"
       d="m 87.54071,100.95693 h 6 c 3.9,0 7.1,3.2 7.1,7.1 v 2.2 h -43.7 v -2.2 c 0,-3.9 3.2,-7.1 7.1,-7.1 h 6"
       id="path692"
       inkscape:connector-curvature="0"
       style="fill:none;stroke:#3a4061;stroke-width:3.5;stroke-linecap:round;stroke-linejoin:round;stroke-miterlimit:10" /><path
       class="st46"
       d="m 87.54071,100.95693 h -17.5 c 0,-4.8 3.9,-8.8 8.8,-8.8 4.9,0 8.7,3.9 8.7,8.8 z"
       id="path694"
       inkscape:connector-curvature="0"
       style="fill:none;stroke:#3a4061;stroke-width:3.5;stroke-linecap:round;stroke-linejoin:round;stroke-miterlimit:10" /><path
       class="st46"
       d="m 85.44071,20.05693 -9.6,9.6 c -2.6,-2.6 -2.6,-6.9 0,-9.6 2.7,-2.7 7,-2.7 9.6,0 z"
       id="path696"
       inkscape:connector-curvature="0"
       style="fill:none;stroke:#3a4061;stroke-width:3.5;stroke-linecap:round;stroke-linejoin:round;stroke-miterlimit:10" /><circle
       class="st46"
       cx="48.340702"
       cy="61.156925"
       r="7"
       id="circle698"
       style="fill:none;stroke:#3a4061;stroke-width:3.5;stroke-linecap:round;stroke-linejoin:round;stroke-miterlimit:10" /><line
       class="st46"
       x1="75.140724"
       y1="92.95694"
       x2="50.440708"
       y2="68.356934"
       id="line700"
       style="fill:none;stroke:#3a4061;stroke-width:3.5;stroke-linecap:round;stroke-linejoin:round;stroke-miterlimit:10" /><path
       class="st46"
       d="m 75.84071,29.55693 c -2.1,5.7 -0.9,12.4 3.7,17 l 8.6,8.6 6.2,-6.2 10.4,-10.4 6.2,-6.2 -8.6,-8.6 c -3.2,-3.1 -7.3,-4.7 -11.4,-4.7 -1.9,0 -3.8,0.3 -5.6,1"
       id="path702"
       inkscape:connector-curvature="0"
       style="fill:none;stroke:#3a4061;stroke-width:3.5;stroke-linecap:round;stroke-linejoin:round;stroke-miterlimit:10" /><line
       class="st46"
       x1="50.840702"
       y1="54.656925"
       x2="75.840706"
       y2="29.556917"
       id="line704"
       style="fill:none;stroke:#3a4061;stroke-width:3.5;stroke-linecap:round;stroke-linejoin:round;stroke-miterlimit:10" /><path
       class="st46"
       d="m 397.74071,122.25693 h -362.5 c -3.3,0 -6,-2.7 -6,-6 v 0 c 0,-3.3 2.7,-6 6,-6 h 362.5 c 3.3,0 6,2.7 6,6 v 0 c 0,3.3 -2.7,6 -6,6 z"
       id="path708"
       inkscape:connector-curvature="0"
       style="fill:none;stroke:#3a4061;stroke-width:3.5;stroke-linecap:round;stroke-linejoin:round;stroke-miterlimit:10" /><rect
       x="48.340702"
       y="122.25693"
       class="st46"
       width="95.800003"
       height="100.4"
       id="rect712"
       style="fill:none;stroke:#3a4061;stroke-width:3.5;stroke-linecap:round;stroke-linejoin:round;stroke-miterlimit:10" /><line
       class="st46"
       x1="144.14072"
       y1="172.45694"
       x2="48.340702"
       y2="172.45694"
       id="line714"
       style="fill:none;stroke:#3a4061;stroke-width:3.5;stroke-linecap:round;stroke-linejoin:round;stroke-miterlimit:10" /><rect
       x="60.640705"
       y="182.35693"
       class="st46"
       width="71.099998"
       height="30.4"
       id="rect716"
       style="fill:none;stroke:#3a4061;stroke-width:3.5;stroke-linecap:round;stroke-linejoin:round;stroke-miterlimit:10" /><rect
       x="60.640705"
       y="132.15692"
       class="st46"
       width="71.099998"
       height="30.4"
       id="rect718"
       style="fill:none;stroke:#3a4061;stroke-width:3.5;stroke-linecap:round;stroke-linejoin:round;stroke-miterlimit:10" /><rect
       x="372.24069"
       y="122.25693"
       class="st46"
       width="12.4"
       height="100.4"
       id="rect722"
       style="fill:none;stroke:#3a4061;stroke-width:3.5;stroke-linecap:round;stroke-linejoin:round;stroke-miterlimit:10" /><rect
       x="144.24069"
       y="122.25693"
       class="st47"
       width="228"
       height="22.1"
       id="rect724"
       style="fill:none;stroke:#3a4061;stroke-width:3.5;stroke-miterlimit:10" /><path
       class="st46"
       d="m 356.74071,110.25693 h 8.9 c 2,0 3.6,-1.8 3.8,-4.3 l 1.5,-18.4 h -19.5 l 1.5,18.4 c 0.2,2.5 1.9,4.3 3.8,4.3 z"
       id="path726"
       inkscape:connector-curvature="0"
       style="fill:none;stroke:#3a4061;stroke-width:3.5;stroke-linecap:round;stroke-linejoin:round;stroke-miterlimit:10" /><line
       class="st46"
       x1="24.340704"
       y1="222.65692"
       x2="417.54068"
       y2="222.65692"
       id="line728"
       style="fill:none;stroke:#3a4061;stroke-width:3.5;stroke-linecap:round;stroke-linejoin:round;stroke-miterlimit:10" /><line
       class="st46"
       x1="16.840704"
       y1="222.65692"
       x2="8.840704"
       y2="222.65692"
       id="line730"
       style="fill:none;stroke:#3a4061;stroke-width:3.5;stroke-linecap:round;stroke-linejoin:round;stroke-miterlimit:10" /><line
       class="st46"
       x1="424.54068"
       y1="222.65692"
       x2="424.54068"
       y2="222.65692"
       id="line732"
       style="fill:none;stroke:#3a4061;stroke-width:3.5;stroke-linecap:round;stroke-linejoin:round;stroke-miterlimit:10" /><path
       class="st46"
       d="m 290.24071,110.25693 c 0.2,-4.4 5.2,-8 11.2,-8 6,0 11,3.6 11.3,8"
       id="path734"
       inkscape:connector-curvature="0"
       style="fill:none;stroke:#3a4061;stroke-width:3.5;stroke-linecap:round;stroke-linejoin:round;stroke-miterlimit:10" /><line
       class="st46"
       x1="369.54068"
       y1="70.856934"
       x2="367.24069"
       y2="87.556915"
       id="line736"
       style="fill:none;stroke:#3a4061;stroke-width:3.5;stroke-linecap:round;stroke-linejoin:round;stroke-miterlimit:10" /><line
       class="st46"
       x1="360.34073"
       y1="87.556915"
       x2="360.34073"
       y2="76.056915"
       id="line738"
       style="fill:none;stroke:#3a4061;stroke-width:3.5;stroke-linecap:round;stroke-linejoin:round;stroke-miterlimit:10" /><g
       transform="translate(-26.278239)"
       id="g1100"><path
         class="st22"
         d="m 302.34071,75.25693 v 8.7 c 0,4.4 -3.6,8 -8,8 h -4.6 l -0.6,-8 -19.1,1.4 0.5,6.5 -0.9,0.1 h -17.5 -21.5 -21.5 l 0.5,-3.4 -17.7,-2.4 -0.8,5.8 h -0.3 -2.4 c -4.4,0 -8,-3.6 -8,-8 v -7.3 -1.4 z"
         id="path495"
         inkscape:connector-curvature="0"
         style="fill:#e2e2e2" /><path
         class="st22"
         d="m 302.34071,17.65693 v 57.6 h -122 v -57.7 c 0,-4.4 3.6,-8 8,-8 h 106 c 4.4,0.1 8,3.7 8,8.1 z m -5.9,52.1 v -50.9 c 0,-2.1 -1.7,-3.8 -3.8,-3.8 h -102.8 c -2.1,0 -3.8,1.7 -3.8,3.8 v 50.9 z"
         id="path497"
         inkscape:connector-curvature="0"
         style="fill:#e2e2e2" /><path
         class="st23"
         d="m 296.44071,18.85693 v 50.9 h -110.3 v -50.9 c 0,-2.1 1.7,-3.8 3.8,-3.8 h 102.8 c 2,0.1 3.7,1.8 3.7,3.8 z"
         id="path499"
         inkscape:connector-curvature="0"
         style="fill:#51576b" /><path
         class="st24"
         d="m 293.84071,96.85693 c 0.2,2.1 -1.4,3.9 -3.5,4.1 l -15.3,1.1 c 2.1,-0.2 3.7,-2 3.5,-4.1 l 7.7,-0.6 3.8,-0.3 z"
         id="path501"
         inkscape:connector-curvature="0"
         style="fill:#d1f7c9" /><path
         class="st24"
         d="m 289.74071,93.35693 0.3,3.8 -3.8,0.3 -7.7,0.6 c 0.2,2.1 -1.4,3.9 -3.5,4.1 -2.1,0.2 -3.9,-1.4 -4.1,-3.5 l -0.5,-6.7 -0.5,-6.5 19.1,-1.4 0.6,8 z"
         id="path503"
         inkscape:connector-curvature="0"
         style="fill:#d1f7c9" /><path
         class="st22"
         d="m 269.54071,110.25693 h -56.5 c 0,-3.5 2.4,-6.3 5.4,-6.3 4.3,0 7.7,-1.8 10.1,-5 1.4,-1.9 1.4,-4.2 2,-7 h 21.5 c 1.6,7.3 5.3,12 12.1,12 1.5,0 2.8,0.7 3.8,1.8 1,1.2 1.6,2.7 1.6,4.5 z"
         id="path505"
         inkscape:connector-curvature="0"
         style="fill:#e2e2e2" /><path
         class="st25"
         d="m 209.54071,88.55693 -0.5,3.4 -1.2,8.8 c -0.3,1.9 -2,3.3 -4,3 -1.9,-0.3 -3.3,-2 -3,-4 l -7.2,-1 -3.5,-0.5 0.5,-3.5 0.4,-2.9 0.8,-5.8 z"
         id="path507"
         inkscape:connector-curvature="0"
         style="fill:#fff5de" /><path
         class="st25"
         d="m 203.94071,103.85693 -14.2,-1.9 c -1.9,-0.3 -3.3,-2 -3,-4 l 3.5,0.5 3.5,0.5 7.2,1 c -0.3,1.8 1,3.6 3,3.9 z"
         id="path509"
         inkscape:connector-curvature="0"
         style="fill:#fff5de" /><polygon
         class="st32"
         points="376.9,295.7 376.9,314.6 423.7,267.9 404.8,267.9 "
         id="polygon543"
         style="opacity:0.15;fill:#ffffff"
         transform="translate(-190.55929,-252.74307)" /><polygon
         class="st32"
         points="380.7,323.1 419,323.1 474.5,267.5 435.9,267.9 "
         id="polygon545"
         style="opacity:0.15;fill:#ffffff"
         transform="translate(-190.55929,-252.74307)" /><polygon
         class="st8"
         points="382.4,338.9 386.5,339.5 398.1,327.8 384.8,328 373.1,339.8 373.1,342.8 375.1,344.8 381.6,344.8 "
         id="polygon547"
         style="opacity:0.5;fill:#ffffff"
         transform="translate(-190.55929,-252.74307)" /><polygon
         class="st8"
         points="389.9,340.1 392.9,340.1 404.4,328.7 401,329 "
         id="polygon549"
         style="opacity:0.5;fill:#ffffff"
         transform="translate(-190.55929,-252.74307)" /><path
         class="st33"
         d="m 275.24071,84.95693 13.8,-1 0.6,8 h 4.6 l 6.2,-2.9 1.8,-5.1 v -8.7 h -6.5 -5.7 c -0.5,1.9 -1.8,3.6 -3.3,5 -3,2.8 -7.5,4.4 -11.5,4.7"
         id="path551"
         inkscape:connector-curvature="0" /><rect
         x="209.74069"
         y="88.45694"
         class="st34"
         width="60.200001"
         height="3"
         id="rect553"
         style="opacity:0.12000002;fill:#141414" /><path
         class="st33"
         d="m 271.24071,99.75693 c 2.1,0 14.1,-1.5 14.7,-15.6 l 3.1,-0.2 1,12.9 h 3.8 l -0.4,2 -2.2,2.1 -16.2,1.2 z"
         id="path555"
         inkscape:connector-curvature="0" /><path
         class="st35"
         d="m 270.84071,96.85693 0.4,-1.5 c 1.2,-4.3 4.4,-7.8 8.7,-9.2 l 4.8,-1.6 -14.7,0.8 z"
         id="path557"
         inkscape:connector-curvature="0"
         style="opacity:0.3;fill:#ffffff" /><path
         class="st33"
         d="m 189.84071,98.35693 c 8.8,1.9 16.7,1.6 19.4,-10 l -2.2,14.2 -2.7,1.2 -16.2,-2.5 -1.6,-3.1 z"
         id="path559"
         inkscape:connector-curvature="0" /><path
         class="st5"
         d="m 190.54071,95.55693 1.3,-9.4 10.2,1.4 -2.8,0.3 c -3.3,0.4 -6.3,2.5 -7.6,5.5 z"
         id="path561"
         inkscape:connector-curvature="0"
         style="fill:#ffffff" /><rect
         x="230.54071"
         y="91.156921"
         class="st36"
         width="21.700001"
         height="6.4000001"
         id="rect563"
         style="opacity:0.25;fill:#141414" /><rect
         x="213.04071"
         y="104.95694"
         class="st8"
         width="55.099998"
         height="5.3000002"
         id="rect595"
         style="opacity:0.5;fill:#ffffff" /><path
         class="st9"
         d="m 193.74071,94.95693 h -2.4 c -3,0 -5.6,-1.6 -7,-4.1 -0.7,-1.2 -1,-2.5 -1,-3.9 v -7.3 -61 c 0,-3.3 2.7,-6 6,-6 h 108 c 1.4,0 2.8,0.4 4,1 -1.4,-2.4 -4,-4 -7,-4 h -106 c -4.4,0 -8,3.6 -8,8 v 59 7.3 c 0,3 1.6,5.6 4,6.9 1.2,0.7 2.5,1.1 4,1.1 h 2.4"
         id="path633"
         inkscape:connector-curvature="0"
         style="opacity:0.75;fill:#ffffff" /><path
         class="st9"
         d="m 298.44071,18.85693 v 51.2 c 0,1 -0.8,1.7 -1.7,1.7 h -108.6 c -1.7,0 -3,-1.3 -3,-3 v 0 h 110.3 v -52.9 c 0,-0.2 0,-0.5 -0.1,-0.7 1.8,0.4 3.1,1.9 3.1,3.7 z"
         id="path635"
         inkscape:connector-curvature="0"
         style="opacity:0.75;fill:#ffffff" /><circle
         class="st42"
         cx="241.24069"
         cy="83.95694"
         r="3.2"
         id="circle650"
         style="fill:#f0f0f2;stroke:#3a4061;stroke-miterlimit:10" /><path
         class="st40"
         d="m 292.74071,15.15693 h -102.9 c -2.1,0 -3.8,1.7 -3.8,3.8 v 50.9 h 110.4 v -50.9 c 0,-2.1 -1.7,-3.8 -3.7,-3.8 z"
         id="path656"
         inkscape:connector-curvature="0"
         style="fill:none;stroke:#3a4061;stroke-width:2;stroke-linecap:round;stroke-linejoin:round;stroke-miterlimit:10" /><line
         class="st40"
         x1="218.4407"
         y1="104.95694"
         x2="233.64072"
         y2="104.95694"
         id="line658"
         style="fill:none;stroke:#3a4061;stroke-width:2;stroke-linecap:round;stroke-linejoin:round;stroke-miterlimit:10" /><line
         class="st40"
         x1="238.54071"
         y1="104.95694"
         x2="241.24069"
         y2="104.95694"
         id="line660"
         style="fill:none;stroke:#3a4061;stroke-width:2;stroke-linecap:round;stroke-linejoin:round;stroke-miterlimit:10" /><path
         class="st44"
         d="m 290.04071,97.15693 -0.3,-3.8 -0.7,-9.4 -19.1,1.4 1,13.2 c 0.2,2.1 2,3.7 4.1,3.5 2.1,-0.2 3.7,-2 3.5,-4.1 l 7.7,-0.6 3.8,-0.2 3.8,-0.3 c 0.2,2.1 -1.4,3.9 -3.5,4.1 l -15.3,1.1"
         id="path676"
         inkscape:connector-curvature="0"
         style="fill:#bee1e5;fill-opacity:1;stroke:#3a4061;stroke-width:2;stroke-linejoin:round;stroke-miterlimit:10" /><path
         class="st44"
         d="m 203.94071,103.85693 -14.2,-1.9 c -1.9,-0.3 -3.3,-2 -3,-4 l 3.5,0.5 3.5,0.5 7.2,1 c -0.3,1.8 1,3.6 3,3.9 2,0.3 3.7,-1.1 4,-3 l 1.6,-12.3 -17.7,-2.4 -1.2,8.8 -0.5,3.5"
         id="path678"
         inkscape:connector-curvature="0"
         style="fill:none;stroke:#3a4061;stroke-width:2;stroke-linejoin:round;stroke-miterlimit:10" /><line
         class="st44"
         x1="273.3407"
         y1="90.056915"
         x2="286.54071"
         y2="89.056915"
         id="line680"
         style="fill:none;stroke:#3a4061;stroke-width:2;stroke-linejoin:round;stroke-miterlimit:10" /><line
         class="st44"
         x1="274.04071"
         y1="94.256927"
         x2="280.8407"
         y2="93.756927"
         id="line682"
         style="fill:none;stroke:#3a4061;stroke-width:2;stroke-linejoin:round;stroke-miterlimit:10" /><line
         class="st44"
         x1="282.64072"
         y1="93.656921"
         x2="286.74069"
         y2="93.256927"
         id="line684"
         style="fill:none;stroke:#3a4061;stroke-width:2;stroke-linejoin:round;stroke-miterlimit:10" /><line
         style="fill:none;stroke:#3a4061;stroke-width:3.5;stroke-linejoin:round;stroke-miterlimit:10"
         id="line686"
         y2="91.95694"
         x2="208.74069"
         y1="91.95694"
         x1="269.54071"
         class="st45" /><path
         style="fill:none;stroke:#3a4061;stroke-width:3.5;stroke-linejoin:round;stroke-miterlimit:10"
         inkscape:connector-curvature="0"
         id="path688"
         d="m 190.74071,91.95693 h -2.4 c -4.4,0 -8,-3.6 -8,-8 v -7.3 -59 c 0,-4.4 3.6,-8 8,-8 h 106 c 4.4,0 8,3.6 8,8 v 66.3 c 0,4.4 -3.6,8 -8,8 h -5.5"
         class="st45" /><line
         style="fill:none;stroke:#3a4061;stroke-width:3.5;stroke-linecap:round;stroke-linejoin:round;stroke-miterlimit:10"
         id="line690"
         y2="75.256927"
         x2="180.24069"
         y1="75.256927"
         x1="302.24069"
         class="st46" /><path
         style="fill:none;stroke:#3a4061;stroke-width:3.5;stroke-linecap:round;stroke-linejoin:round;stroke-miterlimit:10"
         inkscape:connector-curvature="0"
         id="path720"
         d="m 252.04071,91.95693 c 1.6,7.3 5.3,12 12.1,12 1.5,0 2.8,0.7 3.8,1.8 1,1.2 1.6,2.7 1.6,4.5 h -56.5 c 0,-3.5 2.4,-6.3 5.4,-6.3 4.3,0 7.7,-1.8 10.1,-5 1.4,-1.9 1.4,-4.2 2,-7"
         class="st46" /><line
         class="st44"
         x1="193.74069"
         y1="94.45694"
         x2="202.3407"
         y2="95.556915"
         id="line742"
         style="fill:none;stroke:#3a4061;stroke-width:2;stroke-linejoin:round;stroke-miterlimit:10" /><line
         class="st44"
         x1="194.4407"
         y1="90.756927"
         x2="204.9407"
         y2="92.156921"
         id="line744"
         style="fill:none;stroke:#3a4061;stroke-width:2;stroke-linejoin:round;stroke-miterlimit:10" /></g><line
       style="fill:none;stroke:#3a4061;stroke-width:2;stroke-linecap:round;stroke-linejoin:round;stroke-miterlimit:10"
       id="line746"
       y2="42.756931"
       x2="92.540718"
       y1="42.756931"
       x1="92.540718"
       class="st40" /><line
       style="fill:none;stroke:#3a4061;stroke-width:2;stroke-linecap:round;stroke-linejoin:round;stroke-miterlimit:10"
       id="line748"
       y2="51.056919"
       x2="84.340706"
       y1="45.256931"
       x1="90.040718"
       class="st40" /></g></svg>