<?xml version="1.0" encoding="UTF-8" standalone="no"?>
<!-- Generator: Adobe Illustrator 21.0.0, SVG Export Plug-In . SVG Version: 6.00 Build 0)  -->

<svg
   xmlns:dc="http://purl.org/dc/elements/1.1/"
   xmlns:cc="http://creativecommons.org/ns#"
   xmlns:rdf="http://www.w3.org/1999/02/22-rdf-syntax-ns#"
   xmlns:svg="http://www.w3.org/2000/svg"
   xmlns="http://www.w3.org/2000/svg"
   xmlns:sodipodi="http://sodipodi.sourceforge.net/DTD/sodipodi-0.dtd"
   xmlns:inkscape="http://www.inkscape.org/namespaces/inkscape"
   version="1.1"
   x="0px"
   y="0px"
   viewBox="0 0 430 230"
   xml:space="preserve"
   id="svg752"
   sodipodi:docname="workspace-hero-image-home.svg"
   width="430"
   height="230"
   inkscape:version="0.92.2 (5c3e80d, 2017-08-06)"><metadata
     id="metadata758"><rdf:RDF><cc:Work
         rdf:about=""><dc:format>image/svg+xml</dc:format><dc:type
           rdf:resource="http://purl.org/dc/dcmitype/StillImage" /><dc:title /></cc:Work></rdf:RDF></metadata><defs
     id="defs756" /><sodipodi:namedview
     pagecolor="#ffffff"
     bordercolor="#666666"
     borderopacity="1"
     objecttolerance="10"
     gridtolerance="10"
     guidetolerance="10"
     inkscape:pageopacity="0"
     inkscape:pageshadow="2"
     inkscape:window-width="1366"
     inkscape:window-height="745"
     id="namedview754"
     showgrid="false"
     inkscape:zoom="1.1125146"
     inkscape:cx="45.515644"
     inkscape:cy="122.96498"
     inkscape:window-x="-8"
     inkscape:window-y="-8"
     inkscape:window-maximized="1"
     inkscape:current-layer="svg752"
     inkscape:pagecheckerboard="true" /><style
     type="text/css"
     id="style2">
	.st0{fill:#FAF4ED;}
	.st1{fill:#F5F5F7;}
	.st2{fill:#F7F7F7;}
	.st3{fill:#F7FEFF;}
	.st4{opacity:4.000000e-02;fill:#141414;}
	.st5{fill:#FFFFFF;}
	.st6{opacity:5.000000e-02;fill:#141414;}
	.st7{opacity:3.000000e-02;fill:#141414;}
	.st8{opacity:0.5;fill:#FFFFFF;}
	.st9{opacity:0.75;fill:#FFFFFF;}
	.st10{opacity:0.7;fill:#FFFFFF;}
	.st11{opacity:2.000000e-02;fill:#141414;}
	.st12{fill:#141414;}
	.st13{fill:none;stroke:#DCDEE8;stroke-width:3;stroke-linecap:round;stroke-linejoin:round;stroke-miterlimit:10;}
	.st14{fill:none;stroke:#DCDEE8;stroke-width:6;stroke-linecap:round;stroke-linejoin:round;stroke-miterlimit:10;}
	.st15{fill:none;stroke:#DCDEE8;stroke-width:1.5;stroke-linecap:round;stroke-linejoin:round;stroke-miterlimit:10;}
	.st16{fill:none;stroke:#DCDEE8;stroke-width:4;stroke-linecap:round;stroke-linejoin:round;stroke-miterlimit:10;}
	.st17{fill:none;stroke:#DCDEE8;stroke-width:2;stroke-linecap:round;stroke-linejoin:round;stroke-miterlimit:10;}
	.st18{fill:none;stroke:#DCDEE8;stroke-width:3;stroke-linejoin:round;stroke-miterlimit:10;}
	.st19{fill:#EBB886;}
	.st20{fill:#48FFFF;}
	.st21{fill:#D2FFFE;}
	.st22{fill:#E2E2E2;}
	.st23{fill:#51576B;}
	.st24{fill:#D1F7C9;}
	.st25{fill:#FFF5DE;}
	.st26{fill:#FF7382;}
	.st27{fill:#00D3FF;}
	.st28{fill:#FFE499;}
	.st29{fill:#BEE1E5;}
	.st30{opacity:0.35;fill:#141414;}
	.st31{opacity:0.35;fill:#FFFFFF;}
	.st32{opacity:0.15;fill:#FFFFFF;}
	.st33{opacity:8.000000e-02;fill:#141414;}
	.st34{opacity:0.12;fill:#141414;}
	.st35{opacity:0.3;fill:#FFFFFF;}
	.st36{opacity:0.25;fill:#141414;}
	.st37{opacity:0.15;fill:#141414;}
	.st38{opacity:0.1;fill:#141414;}
	.st39{opacity:0.59;fill:#FFFFFF;}
	.st40{fill:none;stroke:#3A4061;stroke-width:2;stroke-linecap:round;stroke-linejoin:round;stroke-miterlimit:10;}
	.st41{fill:none;stroke:#3A4061;stroke-width:4;stroke-linecap:round;stroke-linejoin:round;stroke-miterlimit:10;}
	.st42{fill:#F0F0F2;stroke:#3A4061;stroke-miterlimit:10;}
	.st43{fill:none;stroke:#3A4061;stroke-width:6;stroke-linecap:round;stroke-linejoin:round;stroke-miterlimit:10;}
	.st44{fill:none;stroke:#3A4061;stroke-width:2;stroke-linejoin:round;stroke-miterlimit:10;}
	.st45{fill:none;stroke:#3A4061;stroke-width:3.5;stroke-linejoin:round;stroke-miterlimit:10;}
	.st46{fill:none;stroke:#3A4061;stroke-width:3.5;stroke-linecap:round;stroke-linejoin:round;stroke-miterlimit:10;}
	.st47{fill:none;stroke:#3A4061;stroke-width:3.5;stroke-miterlimit:10;}
</style><g
     id="g1223"
     transform="translate(2.8796868,5.4731425)"><path
       style="fill:#ebb886"
       inkscape:connector-curvature="0"
       id="path481"
       d="m 393.17033,103.62678 c 3.3,0 6,2.7 6,6 0,1.7 -0.7,3.2 -1.8,4.2 -1.1,1.1 -2.6,1.8 -4.2,1.8 h -13.1 -12.4 v 0 h -228 v 0 h -95.800004 -13.1 c -3.3,0 -6,-2.7 -6,-6 0,-1.7 0.7,-3.2 1.8,-4.2 1.1,-1.1 2.6,-1.8 4.2,-1.8 h 21.8 43.7 112.400004 56.5 38.7 22.5 38 8.9 z"
       class="st19" /><path
       style="fill:#ebb886"
       inkscape:connector-curvature="0"
       id="path483"
       d="m 379.97033,115.62678 v 94.2 c 0,3.4 -2.8,6.2 -6.2,6.2 -3.4,0 -6.2,-2.8 -6.2,-6.2 v -94.2 z"
       class="st19" /><polygon
       transform="translate(-207.12967,-259.37322)"
       style="fill:#48ffff"
       id="polygon485"
       points="573.6,340.3 573,347.3 554.6,347.3 554.1,340.3 "
       class="st20" /><polygon
       transform="translate(-207.12967,-259.37322)"
       style="fill:#d2fffe"
       id="polygon487"
       points="573,347.3 572.6,351.9 555,351.9 554.6,347.3 "
       class="st21" /><path
       style="fill:#48ffff"
       inkscape:connector-curvature="0"
       id="path489"
       d="m 365.47033,92.526776 -0.5,6.8 c -0.2,2.400004 -1.8,4.300004 -3.8,4.300004 h -8.9 c -2,0 -3.6,-1.8 -3.8,-4.300004 l -0.5,-6.8 z"
       class="st20" /><rect
       style="fill:#ebb886"
       id="rect491"
       height="22.1"
       width="228"
       class="st19"
       y="115.62677"
       x="139.6703" /><path
       style="fill:#e2e2e2"
       inkscape:connector-curvature="0"
       id="path493"
       d="m 308.17033,103.62678 h -22.5 c 0.2,-4.500004 5.2,-8.000004 11.2,-8.000004 6,0 11.1,3.5 11.3,8.000004 z"
       class="st22" /><path
       style="fill:#ebb886"
       inkscape:connector-curvature="0"
       id="path513"
       d="m 139.57033,165.82678 v 50.2 H 43.770326 v -50.2 z m -12.3,40.3 v -30.5 H 56.170326 v 30.5 z"
       class="st19" /><path
       style="fill:#ebb886"
       inkscape:connector-curvature="0"
       id="path515"
       d="m 139.57033,115.62678 v 50.2 H 43.770326 v -50.2 z m -12.3,40.3 v -30.4 H 56.170326 v 30.4 z"
       class="st19" /><rect
       style="fill:#ebb886"
       id="rect517"
       height="30.5"
       width="71.099998"
       class="st19"
       y="175.72678"
       x="56.07032" /><rect
       style="fill:#ebb886"
       id="rect519"
       height="30.5"
       width="71.099998"
       class="st19"
       y="125.52676"
       x="56.07032" /><path
       style="fill:#00d3ff"
       inkscape:connector-curvature="0"
       id="path521"
       d="m 97.870326,17.126776 8.600004,8.6 -6.2,6.2 -10.400004,10.4 -6.2,6.2 -8.6,-8.6 c -4.6,-4.6 -5.9,-11.3 -3.7,-17 v 0 l 9.6,-9.6 v 0 c 1.8,-0.7 3.7,-1 5.6,-1 4,0.1 8.2,1.6 11.3,4.8 z"
       class="st27" /><path
       style="fill:#ffe499"
       inkscape:connector-curvature="0"
       id="path523"
       d="m 100.27033,31.926776 c 1.3,1.3 2.1,3.1 2.1,5.1 0,4.1 -3.300004,7.4 -7.400004,7.4 -2,0 -3.8,-0.8 -5.1,-2.1 z"
       class="st28" /><path
       style="fill:#00d3ff"
       inkscape:connector-curvature="0"
       id="path525"
       d="m 96.070326,101.42678 v 2.2 h -43.7 v -2.2 c 0,-3.900004 3.2,-7.100004 7.1,-7.100004 h 6 17.5 6 c 3.9,0 7.1,3.1 7.1,7.100004 z"
       class="st27" /><path
       style="fill:#00d3ff"
       inkscape:connector-curvature="0"
       id="path527"
       d="m 82.970326,94.326776 h -17.5 c 0,-4.8 3.9,-8.8 8.8,-8.8 4.8,0 8.7,3.9 8.7,8.8 z"
       class="st27" /><path
       style="fill:#00d3ff"
       inkscape:connector-curvature="0"
       id="path529"
       d="m 80.870326,13.426776 -9.6,9.6 c -2.6,-2.6 -2.6,-6.9 0,-9.6 2.7,-2.7 7,-2.7 9.6,0 z"
       class="st27" /><path
       style="fill:#bee1e5"
       inkscape:connector-curvature="0"
       id="path531"
       d="m 43.770326,47.526776 c 3.9,0 7,3.1 7,7 0,3.8 -3.1,6.9 -7,6.9 -3.8,0 -6.9,-3.1 -6.9,-6.9 -0.1,-3.9 3.1,-7 6.9,-7 z"
       class="st29" /><rect
       style="opacity:0.35;fill:#141414"
       id="rect539"
       height="20"
       width="227.60001"
       class="st30"
       y="117.32678"
       x="139.57033" /><rect
       style="opacity:0.25;fill:#141414"
       id="rect565"
       height="5.6999998"
       width="95.900002"
       class="st36"
       y="115.42677"
       x="43.770317" /><path
       style="opacity:0.15;fill:#141414"
       inkscape:connector-curvature="0"
       id="path569"
       d="m 89.870326,94.826776 c 0,-0.1 0,-0.3 0,-0.5 l 0.8,0.5 z"
       class="st37" /><path
       style="opacity:0.5;fill:#ffffff"
       inkscape:connector-curvature="0"
       id="path573"
       d="m 54.570326,94.826776 h 35.3 c 0,1.1 -0.8,2.1 -2.2,2.8 h -33.1 z"
       class="st8" /><polygon
       transform="translate(-195.12967,-259.37322)"
       style="opacity:0.3;fill:#ffffff"
       id="polygon575"
       points="289,354.2 289,356.2 285.8,354.2 "
       class="st35" /><path
       style="opacity:0.1;fill:#141414"
       inkscape:connector-curvature="0"
       id="path577"
       d="m 296.37033,115.62678 c 27.5,0.3 52.4,-1.1 53.2,-12 h 47.3 l 2.2,6 -3,5.2 -43.8,0.8 z"
       class="st38" /><path
       style="opacity:0.15;fill:#141414"
       inkscape:connector-curvature="0"
       id="path579"
       d="m 368.67033,114.02678 h -125.8 c -4.2,-0.2 -8.5,-0.3 -12.7,0 h -90.5 v 7.1 h 127.3 c 9,0 17.9,2.9 24.9,8.5 2.6,2.1 4.7,4.3 6,6.5 h 69.8 l 0.7,-15 h 0.3 z"
       class="st37" /><polygon
       transform="translate(-195.12967,-259.37322)"
       style="opacity:0.3;fill:#ffffff"
       id="polygon581"
       points="274,475.4 238.9,475.4 273.9,475.4 "
       class="st35" /><path
       style="opacity:0.1;fill:#141414"
       inkscape:connector-curvature="0"
       id="path583"
       d="m 127.27033,150.22678 c 5.5,-0.6 9.7,-2.4 12.3,-3.8 v 19.3 h -55.600004 -40.2 v -5.5 c 19.5,0.1 83.500004,-4.3 83.500004,-4.3 z"
       class="st38" /><path
       style="opacity:0.35;fill:#ffffff"
       inkscape:connector-curvature="0"
       id="path585"
       d="m 52.670326,212.82678 c -1.8,-0.2 -3.4,-1.1 -4.5,-2.4 -0.9,-1.1 -1.5,-2.4 -1.6,-3.8 l -2.9,-29.4 v 33.3 5.5 h 35 z"
       class="st31" /><path
       style="opacity:0.1;fill:#141414"
       inkscape:connector-curvature="0"
       id="path587"
       d="m 139.57033,196.72678 v 19.3 H 78.770326 l -26.1,-3.2 c -1.8,-0.2 -3.4,-1.1 -4.5,-2.4 23.3,-0.4 79.000004,-4.3 79.000004,-4.3 v -5.7 c 5.6,-0.6 9.8,-2.4 12.4,-3.7 z"
       class="st38" /><path
       style="opacity:0.3;fill:#ffffff"
       inkscape:connector-curvature="0"
       id="path591"
       d="m 362.07033,80.926776 c 0.1,1.2 0.2,2.4 0.2,3.5 h -15.3 v -3.5 z"
       class="st35" /><polygon
       transform="translate(-207.12967,-259.37322)"
       style="fill:#141414"
       id="polygon593"
       points="573.9,343.8 573.6,343.8 573.9,340.3 "
       class="st12" /><path
       style="opacity:0.35;fill:#ffffff"
       inkscape:connector-curvature="0"
       id="path597"
       d="m 91.370326,13.326776 -8.6,-0.9 -4,3.4 v 0 c 0,0.3 0,0.7 0.1,1 l -1.8,-0.4 -7.2,7.8 0.4,5.5 7,-7.2 c 1.2,-1.3 3.3,-1.3 4.5,0 0.1,0.1 0.3,0.3 0.4,0.4 1.5,1.2 3.4,1.9 5.5,1.9 3.4,0 6.4,-1.9 7.9,-4.8 0.5,-0.9 0.8,-2 1,-3 z"
       class="st31" /><path
       style="opacity:0.15;fill:#ffffff"
       inkscape:connector-curvature="0"
       id="path599"
       d="m 284.07033,132.72678 h -60.7 -7.2 -60.7 c -2.8,0 -7.3,0.5 -11.1,5 h 71.8 7.2 71.8 c -3.8,-4.5 -8.3,-5 -11.1,-5 z"
       class="st32" /><circle
       style="opacity:0.25;fill:#141414"
       id="circle601"
       r="1.8"
       cy="54.526772"
       cx="43.770317"
       class="st36" /><path
       style="opacity:0.3;fill:#ffffff"
       inkscape:connector-curvature="0"
       id="path603"
       d="m 38.670326,56.726776 c 0,-3.4 2.8,-6.2 6.2,-6.2 3.4,0 6.2,2.8 6.2,6.2 l -1.8,-7.3 -5.9,-2.5 -4.8,2.9 -1.9,4.3 z"
       class="st35" /><path
       style="opacity:0.15;fill:#141414"
       inkscape:connector-curvature="0"
       id="path605"
       d="m 48.570326,50.926776 c 0.8,3.3 -1.3,6.7 -4.6,7.5 -3.3,0.8 -6.7,-1.3 -7.5,-4.6 l 3.4,6.7 6.3,1.1 4,-3.9 0.8,-4.7 z"
       class="st37" /><path
       style="opacity:0.15;fill:#141414"
       inkscape:connector-curvature="0"
       id="path607"
       d="m 96.070326,40.726776 5.900004,-5.9 -1.7,-3 -7.200004,7.3 c -0.1,-0.1 -0.1,-0.1 -0.2,-0.2 l -1.5,1.8 v 0 0 l -0.9,1.1 -0.6,0.8 2.8,1.2 6.1,-0.5 3.300004,-3.1 v -1.4 c -1.1,1.6 -3.700004,2.4 -6.000004,1.9 z"
       class="st37" /><ellipse
       style="opacity:0.35;fill:#ffffff"
       id="ellipse609"
       ry="2"
       rx="3.2"
       cy="17.626776"
       cx="85.670319"
       class="st31" /><polygon
       transform="translate(-195.12967,-259.37322)"
       style="opacity:0.5;fill:#ffffff"
       id="polygon611"
       points="270.2,269.4 274.6,272.4 265.5,281.8 264.5,276.6 "
       class="st8" /><ellipse
       style="opacity:0.5;fill:#ffffff;stroke-width:0.99998629"
       id="ellipse613"
       ry="2.0999713"
       rx="3.8999467"
       cy="109.97823"
       cx="31.887754"
       class="st8"
       transform="rotate(-22.954831)" /><path
       style="opacity:0.35;fill:#ffffff"
       inkscape:connector-curvature="0"
       id="path615"
       d="m 399.47033,107.62678 c -0.1,0 -0.1,0 -0.2,0 H 32.770326 c -1.7,0 -3.2,0.7 -4.2,1.8 -1.1,1.1 -1.8,2.6 -1.8,4.2 0,1.1 -2.2,-9 1,-9 H 394.27033 c 2.3,0 4.2,1.2 5.2,3 z"
       class="st31" /><rect
       style="opacity:0.25;fill:#141414"
       id="rect617"
       height="7"
       width="12.9"
       class="st36"
       y="115.32678"
       x="367.17032" /><path
       style="opacity:0.1;fill:#141414"
       inkscape:connector-curvature="0"
       id="path619"
       d="m 367.67033,194.82678 c 0,6.3 12.4,5.9 12.4,-29 0,35.8 0,50.2 0,50.2 h -6.2 -6.2 z"
       class="st38" /><path
       style="opacity:0.1;fill:#141414"
       inkscape:connector-curvature="0"
       id="path621"
       d="m 57.070326,199.12678 c 0,4.5 70.200004,5.8 70.200004,-15.2 0,28.2 0,22.2 0,22.2 H 57.070326 Z"
       class="st38" /><path
       style="opacity:0.1;fill:#141414"
       inkscape:connector-curvature="0"
       id="path623"
       d="m 57.070326,149.12678 c 0,4.5 70.200004,5.8 70.200004,-15.2 0,28.2 0,22.2 0,22.2 H 57.070326 Z"
       class="st38" /><path
       style="opacity:0.35;fill:#ffffff"
       inkscape:connector-curvature="0"
       id="path625"
       d="M 127.27033,175.72678 H 56.170326 v 2.8 h -0.2 l 2.2,19.4 2.5,-15.4 c 0.2,-1.4 1.4,-2.4 2.8,-2.4 h 63.900004 v -4.4 z"
       class="st31" /><path
       style="opacity:0.35;fill:#ffffff"
       inkscape:connector-curvature="0"
       id="path627"
       d="M 127.27033,125.52678 H 56.170326 v 4.4 l 0.9,16.6 3.3,-14.4 c 0.3,-1.3 1.4,-2.2 2.7,-2.2 h 64.200004 z"
       class="st31" /><path
       style="opacity:0.35;fill:#ffffff"
       inkscape:connector-curvature="0"
       id="path629"
       d="M 140.07033,166.42678 H 44.170326 v 3.4 l 1.3,11.8 2,-9.4 c 0.3,-1.4 1.5,-2.4 3,-2.4 h 89.600004 z"
       class="st31" /><ellipse
       style="opacity:0.5;fill:#ffffff;stroke-width:0.99998403"
       id="ellipse637"
       ry="1.7999712"
       rx="4.9999199"
       cy="155.08847"
       cx="268.38889"
       class="st8"
       transform="rotate(-11.531298)" /><path
       style="opacity:0.58999999;fill:#ffffff"
       inkscape:connector-curvature="0"
       id="path639"
       d="m 353.37033,84.026776 h 0.9 c 1.4,0 2.5,1.1 2.5,2.4 v 6 c 0,1.4 -1.1,2.4 -2.5,2.4 v 0 c -1.2,0 -2.2,-0.9 -2.4,-2.1 l -0.9,-6 c -0.3,-1.3 0.9,-2.7 2.4,-2.7 z"
       class="st39" /><path
       style="fill:#ffffff;stroke:#3a4061;stroke-width:2;stroke-linecap:round;stroke-linejoin:round;stroke-miterlimit:10"
       inkscape:connector-curvature="0"
       id="path642"
       d="m 102.37033,37.026776 c 0,4.1 -3.300004,7.4 -7.400004,7.4 -2,0 -3.8,-0.8 -5.1,-2.1 l 10.400004,-10.4 c 1.3,1.3 2.1,3.1 2.1,5.1 z"
       class="st40" /><path
       style="fill:none;stroke:#3a4061;stroke-width:4;stroke-linecap:round;stroke-linejoin:round;stroke-miterlimit:10"
       inkscape:connector-curvature="0"
       id="path644"
       d="M 47.870326,48.926776"
       class="st41" /><path
       style="fill:none;stroke:#3a4061;stroke-width:2;stroke-linecap:round;stroke-linejoin:round;stroke-miterlimit:10"
       inkscape:connector-curvature="0"
       id="path646"
       d="m 71.370326,13.426776 c -18.9,-5.3999999 -25.4,22.1 -25.2,34.7"
       class="st40" /><path
       style="fill:none;stroke:#3a4061;stroke-width:2;stroke-linecap:round;stroke-linejoin:round;stroke-miterlimit:10"
       inkscape:connector-curvature="0"
       id="path648"
       d="m 41.270326,61.026776 c -1.4,12.4 9.6,12.3 17,12.6 10.6,0.4 16.9,2.8 16.9,12"
       class="st40" /><path
       style="fill:none;stroke:#3a4061;stroke-width:6;stroke-linecap:round;stroke-linejoin:round;stroke-miterlimit:10"
       inkscape:connector-curvature="0"
       id="path652"
       d="m 82.470326,190.92678 c 5.8,0 11.7,0 17.5,0"
       class="st43" /><path
       style="fill:none;stroke:#3a4061;stroke-width:6;stroke-linecap:round;stroke-linejoin:round;stroke-miterlimit:10"
       inkscape:connector-curvature="0"
       id="path654"
       d="m 82.470326,140.72678 c 5.8,0 11.7,0 17.5,0"
       class="st43" /><line
       style="fill:none;stroke:#3a4061;stroke-width:2;stroke-linecap:round;stroke-linejoin:round;stroke-miterlimit:10"
       id="line662"
       y2="87.926758"
       x2="347.37033"
       y1="87.926758"
       x1="365.97031"
       class="st40" /><line
       style="fill:none;stroke:#3a4061;stroke-width:2;stroke-linecap:round;stroke-linejoin:round;stroke-miterlimit:10"
       id="line664"
       y2="92.526764"
       x2="347.67032"
       y1="92.526764"
       x1="365.67032"
       class="st40" /><line
       style="fill:none;stroke:#3a4061;stroke-width:2;stroke-linecap:round;stroke-linejoin:round;stroke-miterlimit:10"
       id="line666"
       y2="129.12677"
       x2="175.47032"
       y1="115.62677"
       x1="188.97032"
       class="st40" /><line
       style="fill:none;stroke:#3a4061;stroke-width:2;stroke-linecap:round;stroke-linejoin:round;stroke-miterlimit:10"
       id="line668"
       y2="122.72678"
       x2="189.6703"
       y1="115.62677"
       x1="196.77031"
       class="st40" /><line
       style="fill:none;stroke:#3a4061;stroke-width:2;stroke-linecap:round;stroke-linejoin:round;stroke-miterlimit:10"
       id="line670"
       y2="176.72678"
       x2="133.6703"
       y1="165.82678"
       x1="133.6703"
       class="st40" /><line
       style="fill:none;stroke:#3a4061;stroke-width:2;stroke-linecap:round;stroke-linejoin:round;stroke-miterlimit:10"
       id="line672"
       y2="132.72678"
       x2="317.47031"
       y1="137.72678"
       x1="312.57034"
       class="st40" /><path
       style="fill:none;stroke:#3a4061;stroke-width:2;stroke-linecap:round;stroke-linejoin:round;stroke-miterlimit:10"
       inkscape:connector-curvature="0"
       id="path674"
       d="M 345.77033,115.62678"
       class="st40" /><path
       class="st46"
       d="m 82.970326,94.326776 h 6 c 3.9,0 7.1,3.2 7.1,7.100004 v 2.2 h -43.7 v -2.2 c 0,-3.900004 3.2,-7.100004 7.1,-7.100004 h 6"
       id="path692"
       inkscape:connector-curvature="0"
       style="fill:none;stroke:#3a4061;stroke-width:3.5;stroke-linecap:round;stroke-linejoin:round;stroke-miterlimit:10" /><path
       class="st46"
       d="m 82.970326,94.326776 h -17.5 c 0,-4.8 3.9,-8.8 8.8,-8.8 4.9,0 8.7,3.9 8.7,8.8 z"
       id="path694"
       inkscape:connector-curvature="0"
       style="fill:none;stroke:#3a4061;stroke-width:3.5;stroke-linecap:round;stroke-linejoin:round;stroke-miterlimit:10" /><path
       class="st46"
       d="m 80.870326,13.426776 -9.6,9.6 c -2.6,-2.6 -2.6,-6.9 0,-9.6 2.7,-2.7 7,-2.7 9.6,0 z"
       id="path696"
       inkscape:connector-curvature="0"
       style="fill:none;stroke:#3a4061;stroke-width:3.5;stroke-linecap:round;stroke-linejoin:round;stroke-miterlimit:10" /><circle
       class="st46"
       cx="43.770317"
       cy="54.526772"
       r="7"
       id="circle698"
       style="fill:none;stroke:#3a4061;stroke-width:3.5;stroke-linecap:round;stroke-linejoin:round;stroke-miterlimit:10" /><line
       class="st46"
       x1="70.570343"
       y1="86.326782"
       x2="45.870323"
       y2="61.72678"
       id="line700"
       style="fill:none;stroke:#3a4061;stroke-width:3.5;stroke-linecap:round;stroke-linejoin:round;stroke-miterlimit:10" /><path
       class="st46"
       d="m 71.370326,22.926776 c -2.1,5.7 -0.9,12.4 3.7,17 l 8.6,8.6 6.200001,-6.2 10.400003,-10.4 6.2,-6.2 -8.600003,-8.6 c -3.2,-3.1 -7.3,-4.7 -11.4,-4.7 -1.9,0 -3.800001,0.3 -5.600001,1"
       id="path702"
       inkscape:connector-curvature="0"
       style="fill:none;stroke:#3a4061;stroke-width:3.5;stroke-linecap:round;stroke-linejoin:round;stroke-miterlimit:10" /><line
       class="st46"
       x1="46.270317"
       y1="48.026772"
       x2="71.270325"
       y2="22.926764"
       id="line704"
       style="fill:none;stroke:#3a4061;stroke-width:3.5;stroke-linecap:round;stroke-linejoin:round;stroke-miterlimit:10" /><path
       class="st46"
       d="M 393.17033,115.62678 H 30.670326 c -3.3,0 -6,-2.7 -6,-6 v 0 c 0,-3.3 2.7,-6 6,-6 H 393.17033 c 3.3,0 6,2.7 6,6 v 0 c 0,3.3 -2.7,6 -6,6 z"
       id="path708"
       inkscape:connector-curvature="0"
       style="fill:none;stroke:#3a4061;stroke-width:3.5;stroke-linecap:round;stroke-linejoin:round;stroke-miterlimit:10" /><rect
       x="43.770317"
       y="115.62677"
       class="st46"
       width="95.800003"
       height="100.4"
       id="rect712"
       style="fill:none;stroke:#3a4061;stroke-width:3.5;stroke-linecap:round;stroke-linejoin:round;stroke-miterlimit:10" /><line
       class="st46"
       x1="139.57033"
       y1="165.82678"
       x2="43.770317"
       y2="165.82678"
       id="line714"
       style="fill:none;stroke:#3a4061;stroke-width:3.5;stroke-linecap:round;stroke-linejoin:round;stroke-miterlimit:10" /><rect
       x="56.07032"
       y="175.72678"
       class="st46"
       width="71.099998"
       height="30.4"
       id="rect716"
       style="fill:none;stroke:#3a4061;stroke-width:3.5;stroke-linecap:round;stroke-linejoin:round;stroke-miterlimit:10" /><rect
       x="56.07032"
       y="125.52676"
       class="st46"
       width="71.099998"
       height="30.4"
       id="rect718"
       style="fill:none;stroke:#3a4061;stroke-width:3.5;stroke-linecap:round;stroke-linejoin:round;stroke-miterlimit:10" /><rect
       x="367.67032"
       y="115.62677"
       class="st46"
       width="12.4"
       height="100.4"
       id="rect722"
       style="fill:none;stroke:#3a4061;stroke-width:3.5;stroke-linecap:round;stroke-linejoin:round;stroke-miterlimit:10" /><rect
       x="139.6703"
       y="115.62677"
       class="st47"
       width="228"
       height="22.1"
       id="rect724"
       style="fill:none;stroke:#3a4061;stroke-width:3.5;stroke-miterlimit:10" /><path
       class="st46"
       d="m 352.17033,103.62678 h 8.9 c 2,0 3.6,-1.8 3.8,-4.300004 l 1.5,-18.4 h -19.5 l 1.5,18.4 c 0.2,2.500004 1.9,4.300004 3.8,4.300004 z"
       id="path726"
       inkscape:connector-curvature="0"
       style="fill:none;stroke:#3a4061;stroke-width:3.5;stroke-linecap:round;stroke-linejoin:round;stroke-miterlimit:10" /><line
       class="st46"
       x1="19.770321"
       y1="216.02676"
       x2="412.97031"
       y2="216.02676"
       id="line728"
       style="fill:none;stroke:#3a4061;stroke-width:3.5;stroke-linecap:round;stroke-linejoin:round;stroke-miterlimit:10" /><line
       class="st46"
       x1="12.27032"
       y1="216.02676"
       x2="4.2703199"
       y2="216.02676"
       id="line730"
       style="fill:none;stroke:#3a4061;stroke-width:3.5;stroke-linecap:round;stroke-linejoin:round;stroke-miterlimit:10" /><line
       class="st46"
       x1="419.97031"
       y1="216.02676"
       x2="419.97031"
       y2="216.02676"
       id="line732"
       style="fill:none;stroke:#3a4061;stroke-width:3.5;stroke-linecap:round;stroke-linejoin:round;stroke-miterlimit:10" /><path
       class="st46"
       d="m 285.67033,103.62678 c 0.2,-4.400004 5.2,-8.000004 11.2,-8.000004 6,0 11,3.6 11.3,8.000004"
       id="path734"
       inkscape:connector-curvature="0"
       style="fill:none;stroke:#3a4061;stroke-width:3.5;stroke-linecap:round;stroke-linejoin:round;stroke-miterlimit:10" /><line
       class="st46"
       x1="364.97031"
       y1="64.226776"
       x2="362.67032"
       y2="80.926758"
       id="line736"
       style="fill:none;stroke:#3a4061;stroke-width:3.5;stroke-linecap:round;stroke-linejoin:round;stroke-miterlimit:10" /><line
       class="st46"
       x1="355.77036"
       y1="80.926758"
       x2="355.77036"
       y2="69.426758"
       id="line738"
       style="fill:none;stroke:#3a4061;stroke-width:3.5;stroke-linecap:round;stroke-linejoin:round;stroke-miterlimit:10" /><path
       style="fill:#e2e2e2"
       inkscape:connector-curvature="0"
       id="path495"
       d="m 271.49209,68.626776 v 8.7 c 0,4.4 -3.6,8 -8,8 h -4.6 l -0.6,-8 -19.1,1.4 0.5,6.5 -0.9,0.1 h -17.5 -21.5 -21.5 l 0.5,-3.4 -17.7,-2.4 -0.8,5.8 h -0.3 -2.4 c -4.4,0 -8,-3.6 -8,-8 v -7.3 -1.4 z"
       class="st22" /><path
       style="fill:#e2e2e2"
       inkscape:connector-curvature="0"
       id="path497"
       d="m 271.49209,11.026776 v 57.6 h -122 v -57.7 c 0,-4.3999999 3.6,-7.9999999 8,-7.9999999 h 106 c 4.4,0.1 8,3.7 8,8.0999999 z m -5.9,52.1 v -50.9 c 0,-2.1 -1.7,-3.7999999 -3.8,-3.7999999 h -102.8 c -2.1,0 -3.8,1.6999999 -3.8,3.7999999 v 50.9 z"
       class="st22" /><path
       style="fill:#51576b"
       inkscape:connector-curvature="0"
       id="path499"
       d="m 265.59209,12.226776 v 50.9 h -110.3 v -50.9 c 0,-2.1 1.7,-3.7999999 3.8,-3.7999999 h 102.8 c 2,0.1 3.7,1.7999999 3.7,3.7999999 z"
       class="st23" /><path
       style="fill:#d1f7c9"
       inkscape:connector-curvature="0"
       id="path501"
       d="m 262.99209,90.226776 c 0.2,2.1 -1.4,3.9 -3.5,4.1 l -15.3,1.1 c 2.1,-0.2 3.7,-2 3.5,-4.1 l 7.7,-0.6 3.8,-0.3 z"
       class="st24" /><path
       style="fill:#d1f7c9"
       inkscape:connector-curvature="0"
       id="path503"
       d="m 258.89209,86.726776 0.3,3.8 -3.8,0.3 -7.7,0.6 c 0.2,2.1 -1.4,3.9 -3.5,4.1 -2.1,0.2 -3.9,-1.4 -4.1,-3.5 l -0.5,-6.7 -0.5,-6.5 19.1,-1.4 0.6,8 z"
       class="st24" /><path
       style="fill:#e2e2e2"
       inkscape:connector-curvature="0"
       id="path505"
       d="m 238.69209,103.62678 h -56.5 c 0,-3.5 2.4,-6.300004 5.4,-6.300004 4.3,0 7.7,-1.8 10.1,-5 1.4,-1.9 1.4,-4.2 2,-7 h 21.5 c 1.6,7.3 5.3,12 12.1,12 1.5,0 2.8,0.7 3.8,1.8 1,1.200004 1.6,2.700004 1.6,4.500004 z"
       class="st22" /><path
       style="fill:#fff5de"
       inkscape:connector-curvature="0"
       id="path507"
       d="m 178.69209,81.926776 -0.5,3.4 -1.2,8.8 c -0.3,1.9 -2,3.3 -4,3 -1.9,-0.3 -3.3,-2 -3,-4 l -7.2,-1 -3.5,-0.5 0.5,-3.5 0.4,-2.9 0.8,-5.8 z"
       class="st25" /><path
       style="fill:#fff5de"
       inkscape:connector-curvature="0"
       id="path509"
       d="m 173.09209,97.226776 -14.2,-1.9 c -1.9,-0.3 -3.3,-2 -3,-4 l 3.5,0.5 3.5,0.5 7.2,1 c -0.3,1.8 1,3.6 3,3.9 z"
       class="st25" /><polygon
       transform="translate(-221.40791,-259.37322)"
       style="opacity:0.15;fill:#ffffff"
       id="polygon543"
       points="376.9,295.7 376.9,314.6 423.7,267.9 404.8,267.9 "
       class="st32" /><polygon
       transform="translate(-221.40791,-259.37322)"
       style="opacity:0.15;fill:#ffffff"
       id="polygon545"
       points="380.7,323.1 419,323.1 474.5,267.5 435.9,267.9 "
       class="st32" /><polygon
       transform="translate(-221.40791,-259.37322)"
       style="opacity:0.5;fill:#ffffff"
       id="polygon547"
       points="382.4,338.9 386.5,339.5 398.1,327.8 384.8,328 373.1,339.8 373.1,342.8 375.1,344.8 381.6,344.8 "
       class="st8" /><polygon
       transform="translate(-221.40791,-259.37322)"
       style="opacity:0.5;fill:#ffffff"
       id="polygon549"
       points="389.9,340.1 392.9,340.1 404.4,328.7 401,329 "
       class="st8" /><rect
       style="opacity:0.12000002;fill:#141414"
       id="rect553"
       height="3"
       width="60.200001"
       class="st34"
       y="81.826782"
       x="178.89207" /><path
       style="opacity:0.3;fill:#ffffff"
       inkscape:connector-curvature="0"
       id="path557"
       d="m 239.99209,90.226776 0.4,-1.5 c 1.2,-4.3 4.4,-7.8 8.7,-9.2 l 4.8,-1.6 -14.7,0.8 z"
       class="st35" /><path
       style="fill:#ffffff"
       inkscape:connector-curvature="0"
       id="path561"
       d="m 159.69209,88.926776 1.3,-9.4 10.2,1.4 -2.8,0.3 c -3.3,0.4 -6.3,2.5 -7.6,5.5 z"
       class="st5" /><rect
       style="opacity:0.25;fill:#141414"
       id="rect563"
       height="6.4000001"
       width="21.700001"
       class="st36"
       y="84.526764"
       x="199.69209" /><rect
       style="opacity:0.5;fill:#ffffff"
       id="rect595"
       height="5.3000002"
       width="55.099998"
       class="st8"
       y="98.326782"
       x="182.19209" /><path
       style="opacity:0.75;fill:#ffffff"
       inkscape:connector-curvature="0"
       id="path633"
       d="m 162.89209,88.326776 h -2.4 c -3,0 -5.6,-1.6 -7,-4.1 -0.7,-1.2 -1,-2.5 -1,-3.9 v -7.3 -61 c 0,-3.2999999 2.7,-5.9999999 6,-5.9999999 h 108 c 1.4,0 2.8,0.4 4,1 -1.4,-2.4 -4,-4 -7,-4 h -106 c -4.4,0 -8,3.6 -8,7.9999999 v 59 7.3 c 0,3 1.6,5.6 4,6.9 1.2,0.7 2.5,1.1 4,1.1 h 2.4"
       class="st9" /><path
       style="opacity:0.75;fill:#ffffff"
       inkscape:connector-curvature="0"
       id="path635"
       d="m 267.59209,12.226776 v 51.2 c 0,1 -0.8,1.7 -1.7,1.7 h -108.6 c -1.7,0 -3,-1.3 -3,-3 v 0 h 110.3 V 9.2267761 c 0,-0.2 0,-0.5 -0.1,-0.7 1.8,0.4 3.1,1.8999999 3.1,3.6999999 z"
       class="st9" /><circle
       style="fill:#f0f0f2;stroke:#3a4061;stroke-miterlimit:10"
       id="circle650"
       r="3.2"
       cy="77.326782"
       cx="210.39207"
       class="st42" /><path
       style="fill:none;stroke:#3a4061;stroke-width:2;stroke-linecap:round;stroke-linejoin:round;stroke-miterlimit:10"
       inkscape:connector-curvature="0"
       id="path656"
       d="m 261.89209,8.5267761 h -102.9 c -2.1,0 -3.8,1.6999999 -3.8,3.7999999 v 50.9 h 110.4 v -50.9 c 0,-2.1 -1.7,-3.7999999 -3.7,-3.7999999 z"
       class="st40" /><line
       style="fill:none;stroke:#3a4061;stroke-width:2;stroke-linecap:round;stroke-linejoin:round;stroke-miterlimit:10"
       id="line658"
       y2="98.326782"
       x2="202.7921"
       y1="98.326782"
       x1="187.59209"
       class="st40" /><line
       style="fill:none;stroke:#3a4061;stroke-width:2;stroke-linecap:round;stroke-linejoin:round;stroke-miterlimit:10"
       id="line660"
       y2="98.326782"
       x2="210.39207"
       y1="98.326782"
       x1="207.69209"
       class="st40" /><path
       style="fill:#bee1e5;fill-opacity:1;stroke:#3a4061;stroke-width:2;stroke-linejoin:round;stroke-miterlimit:10"
       inkscape:connector-curvature="0"
       id="path676"
       d="m 259.19209,90.626776 -0.3,-3.8 -0.7,-9.4 -19.1,1.4 1,13.2 c 0.2,2.1 2,3.7 4.1,3.5 2.1,-0.2 3.7,-2 3.5,-4.1 l 7.7,-0.6 3.8,-0.2 3.8,-0.3 c 0.2,2.1 -1.4,3.9 -3.5,4.1 l -15.3,1.1"
       class="st44" /><path
       style="fill:none;stroke:#3a4061;stroke-width:2;stroke-linejoin:round;stroke-miterlimit:10"
       inkscape:connector-curvature="0"
       id="path678"
       d="m 173.09209,97.226776 -14.2,-1.9 c -1.9,-0.3 -3.3,-2 -3,-4 l 3.5,0.5 3.5,0.5 7.2,1 c -0.3,1.8 1,3.6 3,3.9 2,0.3 3.7,-1.1 4,-3 l 1.6,-12.3 -17.7,-2.4 -1.2,8.8 -0.5,3.5"
       class="st44" /><line
       style="fill:none;stroke:#3a4061;stroke-width:2;stroke-linejoin:round;stroke-miterlimit:10"
       id="line680"
       y2="82.426758"
       x2="255.69209"
       y1="83.426758"
       x1="242.49208"
       class="st44" /><line
       style="fill:none;stroke:#3a4061;stroke-width:2;stroke-linejoin:round;stroke-miterlimit:10"
       id="line682"
       y2="87.12677"
       x2="249.99208"
       y1="87.62677"
       x1="243.19209"
       class="st44" /><line
       style="fill:none;stroke:#3a4061;stroke-width:2;stroke-linejoin:round;stroke-miterlimit:10"
       id="line684"
       y2="86.62677"
       x2="255.89207"
       y1="87.026764"
       x1="251.7921"
       class="st44" /><line
       class="st45"
       x1="238.69209"
       y1="85.326782"
       x2="177.89207"
       y2="85.326782"
       id="line686"
       style="fill:none;stroke:#3a4061;stroke-width:3.5;stroke-linejoin:round;stroke-miterlimit:10" /><path
       class="st45"
       d="m 159.89209,85.326776 h -2.4 c -4.4,0 -8,-3.6 -8,-8 v -7.3 -59 c 0,-4.3999999 3.6,-7.9999999 8,-7.9999999 h 106 c 4.4,0 8,3.6 8,7.9999999 v 66.3 c 0,4.4 -3.6,8 -8,8 h -5.5"
       id="path688"
       inkscape:connector-curvature="0"
       style="fill:none;stroke:#3a4061;stroke-width:3.5;stroke-linejoin:round;stroke-miterlimit:10" /><line
       class="st46"
       x1="271.39206"
       y1="68.62677"
       x2="149.39207"
       y2="68.62677"
       id="line690"
       style="fill:none;stroke:#3a4061;stroke-width:3.5;stroke-linecap:round;stroke-linejoin:round;stroke-miterlimit:10" /><path
       class="st46"
       d="m 221.19209,85.326776 c 1.6,7.3 5.3,12 12.1,12 1.5,0 2.8,0.7 3.8,1.8 1,1.200004 1.6,2.700004 1.6,4.500004 h -56.5 c 0,-3.5 2.4,-6.300004 5.4,-6.300004 4.3,0 7.7,-1.8 10.1,-5 1.4,-1.9 1.4,-4.2 2,-7"
       id="path720"
       inkscape:connector-curvature="0"
       style="fill:none;stroke:#3a4061;stroke-width:3.5;stroke-linecap:round;stroke-linejoin:round;stroke-miterlimit:10" /><line
       style="fill:none;stroke:#3a4061;stroke-width:2;stroke-linejoin:round;stroke-miterlimit:10"
       id="line742"
       y2="88.926758"
       x2="171.49208"
       y1="87.826782"
       x1="162.89207"
       class="st44" /><line
       style="fill:none;stroke:#3a4061;stroke-width:2;stroke-linejoin:round;stroke-miterlimit:10"
       id="line744"
       y2="85.526764"
       x2="174.09209"
       y1="84.12677"
       x1="163.59209"
       class="st44" /><line
       style="fill:none;stroke:#3a4061;stroke-width:2;stroke-linecap:round;stroke-linejoin:round;stroke-miterlimit:10"
       id="line746"
       y2="36.126778"
       x2="87.970337"
       y1="36.126778"
       x1="87.970337"
       class="st40" /><line
       style="fill:none;stroke:#3a4061;stroke-width:2;stroke-linecap:round;stroke-linejoin:round;stroke-miterlimit:10"
       id="line748"
       y2="44.426765"
       x2="79.770325"
       y1="38.626778"
       x1="85.470337"
       class="st40" /></g></svg>